<?xml version="1.0" encoding="UTF-8"?>
<svg width="80px" height="80px" viewBox="0 0 80 80" version="1.1" xmlns="http://www.w3.org/2000/svg" xmlns:xlink="http://www.w3.org/1999/xlink">
    <!-- Generator: Sketch 61.2 (89653) - https://sketch.com -->
    <title>map_icons</title>
    <desc>Created with Sketch.</desc>
    <g id="Page-1" stroke="none" stroke-width="1" fill="none" fill-rule="evenodd">
        <g id="rowboat-people" transform="translate(-6.000000, 6.000000)" fill-rule="nonzero">
            <path d="M47.5,0 C29.2613602,18.0444444 32.1701088,30.3333333 32.1701088,33.0555556 C32.1701088,35.7777778 35.707776,68.0555556 35.707776,68.0555556 L47.5,70 L59.292224,68.0555556 C59.292224,68.0555556 62.8298912,35.8555556 62.8298912,33.1333333 C62.8298912,30.4111111 65.7386398,18.0444444 47.5,0 Z" id="Shape" fill="#000000"></path>
            <path d="M47.5,2 C30.4380466,19.0133333 33.159134,30.6 33.159134,33.1666667 C33.159134,35.7333333 36.4685646,66.1666667 36.4685646,66.1666667 L47.5,68 L58.5314354,66.1666667 C58.5314354,66.1666667 61.840866,35.8066667 61.840866,33.24 C61.840866,30.6733333 64.5619534,19.0133333 47.5,2 Z M47.4634146,5 L49,6.48076923 L48.2682927,12 L46.7317073,12 L46,6.48076923 L47.4634146,5 Z M58,58 L37,58 L37,55 L57.923913,55 C58,55.0810811 58,58 58,58 Z M58,52 L37,52 L37,49 L57.923913,49 C58,49.0810811 58,52 58,52 Z M59.9261538,37 L36,37 L36,34 L60,34 L60,37 L59.9261538,37 Z M59.9261538,31 L36,31 L36,28 L60,28 L60,31 L59.9261538,31 Z" id="colored" fill="#00C1FF"></path>
            <path d="M46,25.5 C46,28.5376077 43.5376077,31 40.5,31 C37.4623923,31 35,28.5376077 35,25.5 C35,22.4623923 37.4623923,20 40.5,20 C43.5376077,20 46,22.4623923 46,25.5 Z" id="Path" fill="#000000"></path>
            <path d="M47,44.5 C47,47.5376077 44.5376077,50 41.5,50 C38.4623923,50 36,47.5376077 36,44.5 C36,41.4623923 38.4623923,39 41.5,39 C44.5376077,39 47,41.4623923 47,44.5 Z" id="Path" fill="#000000"></path>
            <path d="M59,44.5 C59,47.5376077 56.5376077,50 53.5,50 C50.4623923,50 48,47.5376077 48,44.5 C48,41.4623923 50.4623923,39 53.5,39 C56.5376077,39 59,41.4623923 59,44.5 Z" id="Path" fill="#000000"></path>
        </g>
    </g>
</svg>