<?xml version="1.0" encoding="UTF-8"?>
<svg width="80px" height="80px" viewBox="0 0 80 80" version="1.1" xmlns="http://www.w3.org/2000/svg" xmlns:xlink="http://www.w3.org/1999/xlink">
    <!-- Generator: Sketch 61.2 (89653) - https://sketch.com -->
    <title>map_icons</title>
    <desc>Created with Sketch.</desc>
    <g id="Page-1" stroke="none" stroke-width="1" fill="none" fill-rule="evenodd">
        <g id="circle-stroked" fill="#000000" fill-rule="nonzero">
            <path d="M40,0 C62.0917333,0 80,17.9082667 80,40 C80,62.0917333 62.0917333,80 40,80 C17.9082667,80 0,62.0917333 0,40 C0,17.9082667 17.9082667,0 40,0 Z M40,8.88853333 C22.8176,8.88853333 8.88906667,22.8176 8.88906667,40 C8.88906667,57.1824 22.8176,71.1114667 40,71.1114667 C57.1824,71.1114667 71.1109333,57.1824 71.1109333,40 C71.1109333,22.8176 57.1824,8.88853333 40,8.88853333 Z" id="path8564-5-6-4"></path>
        </g>
        <g id="circle_rescue_float" transform="translate(18.000000, 15.000000)" fill="#000000" fill-rule="nonzero">
            <path d="M40.3288387,45 C39.6532258,45 39.3487742,44.668 38.9272258,44.209 C38.4325806,43.67 37.818,43 36.6569677,43 C35.4973548,43 34.8827742,43.67 34.3888387,44.209 C33.9672903,44.668 33.6635484,45 32.9886452,45 C32.3151613,45 32.0114194,44.668 31.5905806,44.209 C31.0966452,43.67 30.4820645,43 29.3231613,43 C28.1635484,43 27.5489677,43.67 27.0550323,44.209 C26.6341935,44.668 26.3297419,45 25.6555484,45 C24.9813548,45 24.6776129,44.668 24.2567742,44.209 C23.762129,43.67 23.1482581,43 21.9886452,43 C20.8297419,43 20.2144516,43.67 19.7212258,44.209 C19.3003871,44.668 18.9959355,45 18.3217419,45 C17.6475484,45 17.3438065,44.668 16.9229677,44.209 C16.4297419,43.67 15.8151613,43 14.6555484,43 C13.4966452,43 12.8820645,43.67 12.3888387,44.209 C11.968,44.668 11.6642581,45 10.9907742,45 C10.318,45 10.0142581,44.668 9.59341935,44.209 C9.10019355,43.671 8.48632258,43 7.32741935,43 C6.16851613,43 5.55393548,43.67 5.06070968,44.209 C4.63987097,44.668 4.33541935,45 3.66193548,45 C2.98916129,45 2.68612903,44.668 2.266,44.209 C1.77277419,43.671 1.15819355,43 0,43 L0,45 C0.672774194,45 0.975806452,45.332 1.39593548,45.791 C1.88987097,46.329 2.50374194,47 3.66193548,47 C4.82083871,47 5.43541935,46.33 5.92935484,45.791 C6.35019355,45.332 6.65322581,45 7.32741935,45 C8.00019355,45 8.30393548,45.332 8.72477419,45.791 C9.218,46.329 9.83187097,47 10.9907742,47 C12.1496774,47 12.7642581,46.33 13.2574839,45.791 C13.6783226,45.332 13.9820645,45 14.6555484,45 C15.3297419,45 15.6334839,45.332 16.0543226,45.791 C16.5482581,46.33 17.1628387,47 18.3217419,47 C19.4813548,47 20.0959355,46.33 20.589871,45.791 C21.0107097,45.332 21.3144516,45 21.9886452,45 C22.6628387,45 22.9665806,45.332 23.3874194,45.791 C23.8813548,46.33 24.4959355,47 25.6555484,47 C26.8151613,47 27.4297419,46.33 27.9236774,45.791 C28.3445161,45.332 28.6489677,45 29.3231613,45 C29.9966452,45 30.3003871,45.332 30.7212258,45.791 C31.2151613,46.33 31.8297419,47 32.9886452,47 C34.1482581,47 34.7635484,46.33 35.2574839,45.791 C35.6783226,45.332 35.9827742,45 36.6569677,45 C37.3325806,45 37.6370323,45.332 38.0585806,45.791 C38.5532258,46.33 39.1685161,47 40.3288387,47 C41.4891613,47 42.1044516,46.33 42.5990968,45.791 C43.0199355,45.332 43.3243871,45 44,45 L44,43 C42.8396774,43 42.2250968,43.67 41.7304516,44.209 C41.3089032,44.668 41.0044516,45 40.3288387,45 Z" id="Path"></path>
            <path d="M40.3288387,38 C39.6532258,38 39.3487742,37.668 38.9272258,37.209 C38.4325806,36.67 37.818,36 36.6569677,36 C35.4973548,36 34.8827742,36.67 34.3888387,37.209 C33.9672903,37.668 33.6635484,38 32.9886452,38 C32.3151613,38 32.0114194,37.668 31.5905806,37.209 C31.0966452,36.67 30.4820645,36 29.3231613,36 C28.1635484,36 27.5489677,36.67 27.0550323,37.209 C26.6341935,37.668 26.3297419,38 25.6555484,38 C24.9813548,38 24.6776129,37.668 24.2567742,37.209 C23.762129,36.67 23.1482581,36 21.9886452,36 C20.8297419,36 20.2144516,36.67 19.7212258,37.209 C19.3003871,37.668 18.9959355,38 18.3217419,38 C17.6475484,38 17.3438065,37.668 16.9229677,37.209 C16.4297419,36.67 15.8151613,36 14.6555484,36 C13.4966452,36 12.8820645,36.67 12.3888387,37.209 C11.968,37.668 11.6642581,38 10.9907742,38 C10.318,38 10.0142581,37.668 9.59341935,37.209 C9.10019355,36.671 8.48632258,36 7.32741935,36 C6.16851613,36 5.55393548,36.67 5.06070968,37.209 C4.63987097,37.668 4.33541935,38 3.66193548,38 C2.98916129,38 2.68612903,37.668 2.266,37.209 C1.77277419,36.671 1.15819355,36 0,36 L0,38 C0.672774194,38 0.975806452,38.332 1.39593548,38.791 C1.88987097,39.329 2.50374194,40 3.66193548,40 C4.82083871,40 5.43541935,39.33 5.92935484,38.791 C6.35019355,38.332 6.65322581,38 7.32741935,38 C8.00019355,38 8.30393548,38.332 8.72477419,38.791 C9.218,39.329 9.83187097,40 10.9907742,40 C12.1496774,40 12.7642581,39.33 13.2574839,38.791 C13.6783226,38.332 13.9820645,38 14.6555484,38 C15.3297419,38 15.6334839,38.332 16.0543226,38.791 C16.5482581,39.33 17.1628387,40 18.3217419,40 C19.4813548,40 20.0959355,39.33 20.589871,38.791 C21.0107097,38.332 21.3144516,38 21.9886452,38 C22.6628387,38 22.9665806,38.332 23.3874194,38.791 C23.8813548,39.33 24.4959355,40 25.6555484,40 C26.8151613,40 27.4297419,39.33 27.9236774,38.791 C28.3445161,38.332 28.6489677,38 29.3231613,38 C29.9966452,38 30.3003871,38.332 30.7212258,38.791 C31.2151613,39.33 31.8297419,40 32.9886452,40 C34.1482581,40 34.7635484,39.33 35.2574839,38.791 C35.6783226,38.332 35.9827742,38 36.6569677,38 C37.3325806,38 37.6370323,38.332 38.0585806,38.791 C38.5532258,39.33 39.1685161,40 40.3288387,40 C41.4891613,40 42.1044516,39.33 42.5990968,38.791 C43.0199355,38.332 43.3243871,38 44,38 L44,36 C42.8396774,36 42.2250968,36.67 41.7304516,37.209 C41.3089032,37.668 41.0044516,38 40.3288387,38 Z" id="Path"></path>
            <path d="M3.66193548,33.7959184 C4.82083871,33.7959184 5.43541935,33.3036735 5.92935484,32.9076735 C6.35019355,32.570449 6.65322581,32.3265306 7.32741935,32.3265306 C8.00019355,32.3265306 8.30393548,32.570449 8.72477419,32.9076735 C9.218,33.3029388 9.83187097,33.7959184 10.9907742,33.7959184 C12.1496774,33.7959184 12.7642581,33.3036735 13.2574839,32.9076735 C13.6783226,32.570449 13.9820645,32.3265306 14.6555484,32.3265306 C15.3297419,32.3265306 15.6334839,32.570449 16.0543226,32.9076735 C16.5482581,33.3036735 17.1628387,33.7959184 18.3217419,33.7959184 C19.4813548,33.7959184 20.0959355,33.3036735 20.589871,32.9076735 C21.0107097,32.570449 21.3144516,32.3265306 21.9886452,32.3265306 C22.6628387,32.3265306 22.9665806,32.570449 23.3874194,32.9076735 C23.8813548,33.3036735 24.4959355,33.7959184 25.6555484,33.7959184 C26.8151613,33.7959184 27.4297419,33.3036735 27.9236774,32.9076735 C28.3445161,32.570449 28.6489677,32.3265306 29.3231613,32.3265306 C29.9966452,32.3265306 30.3003871,32.570449 30.7212258,32.9076735 C31.2151613,33.3036735 31.8297419,33.7959184 32.9886452,33.7959184 C34.1482581,33.7959184 34.7628387,33.3036735 35.2567742,32.9076735 C35.3745806,32.8136327 35.483871,32.7306122 35.5931613,32.6542041 L37.2538065,34.9986122 C37.6980645,35.6260408 38.4105806,36 39.1614194,36 C39.6965161,36 40.2216774,35.8097143 40.6389677,35.4636735 L43.3747742,33.1986122 C43.7721935,32.8687347 44,32.3772245 44,31.8497143 C44,30.897551 43.2512903,30.122449 42.3315484,30.122449 L40.1010323,30.122449 L33.5201935,20.8322449 C32.5557419,19.4708571 30.8212903,18.818449 29.2301935,19.2284082 L18.3636129,22.0408163 L16.1820645,22.0408163 L15.996129,21.1760816 C15.7910323,20.2195102 15.5362581,19.2798367 15.2424516,18.3563265 L25.407871,8.49085714 C25.9479355,7.96628571 26.2580645,7.22497959 26.2580645,6.45869388 C26.2580645,4.92318367 25.0509032,3.67346939 23.5676774,3.67346939 L23.4874839,3.67346939 C22.8061935,3.67346939 22.156129,3.93795918 21.6565161,4.41771429 L12.8579355,12.8762449 C12.6194839,12.4523265 12.3718065,12.0328163 12.1120645,11.6199184 C12.9594194,10.6971429 13.483871,9.45257143 13.483871,8.08163265 L13.483871,5.14285714 C13.483871,2.30693878 11.2554839,0 8.51612903,0 C5.77677419,0 3.5483871,2.30693878 3.5483871,5.14285714 L3.5483871,8.08163265 C3.5483871,9.75232653 4.32548387,11.2349388 5.52129032,12.1746122 C4.76619355,12.6609796 4.25806452,13.5205714 4.25806452,14.5065306 C4.25806452,14.6762449 4.27296774,14.8459592 4.30348387,15.0134694 L5.84277419,23.5102041 L4.96774194,23.5102041 C2.2283871,23.5102041 0,25.8171429 0,28.6530612 C0,29.4531429 0.176,30.213551 0.491806452,30.8931429 C0.338516129,30.8718367 0.177419355,30.8571429 0,30.8571429 L0,32.3265306 C0.672774194,32.3265306 0.975806452,32.570449 1.39593548,32.9076735 C1.88987097,33.3029388 2.50374194,33.7959184 3.66193548,33.7959184 Z M7.32741935,30.8571429 C6.96335484,30.8571429 6.65748387,30.9093061 6.38709677,30.9886531 L6.38709677,25.982449 C6.74406452,26.7017143 7.46083871,27.1836735 8.27483871,27.1836735 L9.22580645,27.1836735 L9.22580645,31.4632653 C8.78580645,31.1488163 8.21806452,30.8571429 7.32741935,30.8571429 Z M12.3888387,31.7453878 C11.968,32.0826122 11.6642581,32.3265306 10.9907742,32.3265306 C10.8594839,32.3265306 10.7523226,32.3103673 10.6451613,32.2927347 L10.6451613,27.1836735 L15.6129032,27.1836735 L15.6129032,30.9930612 C15.3389677,30.9115102 15.0274194,30.8571429 14.6555484,30.8571429 C13.4966452,30.8571429 12.8820645,31.3493878 12.3888387,31.7453878 Z M18.3217419,32.3265306 C17.7085806,32.3265306 17.3991613,32.1200816 17.0322581,31.8298776 L17.0322581,27.1836735 L19.516129,27.1836735 C19.6374839,27.1836735 19.753871,27.1638367 19.8709677,27.1462041 L19.8709677,31.6263673 C19.819871,31.6667755 19.7694839,31.706449 19.7212258,31.7453878 C19.3003871,32.0826122 18.9959355,32.3265306 18.3217419,32.3265306 Z M24.2567742,31.7453878 C23.762129,31.3493878 23.1482581,30.8571429 21.9886452,30.8571429 C21.7289032,30.8571429 21.5003871,30.8850612 21.2903226,30.9276735 L21.2903226,26.4063673 C21.6487097,26.0257959 21.8871613,25.5298776 21.9638065,24.9795918 L26.2580645,24.9795918 L26.2580645,32.2288163 C26.0877419,32.2853878 25.9003871,32.3265306 25.6555484,32.3265306 C24.9813548,32.3265306 24.6769032,32.0826122 24.2567742,31.7453878 Z M27.6774194,31.2950204 L27.6774194,24.9795918 L30.1563226,24.9795918 L30.516129,25.4872653 L30.516129,31.0738776 C30.1910968,30.9453061 29.8064516,30.8571429 29.3231613,30.8571429 C28.5943226,30.8571429 28.0812258,31.0518367 27.6774194,31.2950204 Z M34.3888387,31.7453878 C33.9672903,32.0826122 33.6635484,32.3265306 32.9886452,32.3265306 C32.5081935,32.3265306 32.2165161,32.1986939 31.9354839,32.0054694 L31.9354839,27.4907755 L34.7521935,31.4662041 C34.6209032,31.5609796 34.5002581,31.6557551 34.3888387,31.7453878 Z M29.5743871,20.6537143 C30.6112258,20.3862857 31.7467097,20.8116735 32.3754839,21.7006531 L38.9563226,30.9915918 C39.223871,31.3670204 39.6518065,31.5918367 40.1017419,31.5918367 L42.3322581,31.5918367 C42.4692258,31.5918367 42.5806452,31.7071837 42.5806452,31.8497143 C42.5806452,31.9283265 42.5465806,32.0025306 42.4876774,32.0510204 L39.751871,34.3160816 C39.3516129,34.6481633 38.7022581,34.5592653 38.3992258,34.1309388 L31.9354839,25.0060408 L31.9354839,24.9795918 L31.9170323,24.9795918 L31.3010323,24.110449 C31.0341935,23.7350204 30.6062581,23.5102041 30.1563226,23.5102041 L21.7509032,23.5102041 C21.6295484,23.2479184 21.4727097,23.0054694 21.2768387,22.8019592 L29.5743871,20.6537143 Z M10.9914839,12.5338776 C12.7025161,15.2838367 13.923871,18.2946122 14.6108387,21.4942041 L14.7286452,22.0408163 L11.2192903,22.0408163 L9.54019355,13.9297959 C9.48270968,13.653551 9.37980645,13.3986122 9.24993548,13.1620408 C9.87587097,13.0650612 10.4641935,12.8497959 10.9914839,12.5338776 Z M22.6223871,5.49477551 C22.858,5.2677551 23.166,5.14285714 23.4874839,5.14285714 L23.5676774,5.14285714 C24.2688387,5.14285714 24.8387097,5.73281633 24.8387097,6.45869388 C24.8387097,6.82089796 24.6918065,7.17061224 24.4370323,7.41893878 L14.715871,16.8531429 C14.3738065,15.9516735 13.9884516,15.0685714 13.5605161,14.2060408 L22.6223871,5.49477551 Z M4.96774194,8.08163265 L4.96774194,5.14285714 C4.96774194,3.11730612 6.55954839,1.46938776 8.51612903,1.46938776 C10.4727097,1.46938776 12.0645161,3.11730612 12.0645161,5.14285714 L12.0645161,8.08163265 C12.0645161,10.1071837 10.4727097,11.755102 8.51612903,11.755102 C6.55954839,11.755102 4.96774194,10.1071837 4.96774194,8.08163265 Z M5.67741935,14.5065306 C5.67741935,13.7997551 6.23309677,13.2244898 6.94135484,13.2244898 C7.52116129,13.2244898 8.03070968,13.6506122 8.15206452,14.2376327 L10.0710323,23.5102041 L19.516129,23.5102041 C20.1030323,23.5102041 20.5806452,24.0046531 20.5806452,24.6122449 C20.5806452,25.2198367 20.1030323,25.7142857 19.516129,25.7142857 L8.27483871,25.7142857 C7.93419355,25.7142857 7.6403871,25.4622857 7.57793548,25.1155102 L5.69870968,14.743102 C5.68451613,14.6652245 5.67741935,14.5858776 5.67741935,14.5065306 Z M4.96774194,24.9795918 L4.96774194,31.8173878 C4.73283871,32.004 4.51354839,32.1516735 4.23677419,32.2383673 C2.59741935,31.8827755 1.41935484,30.4053061 1.41935484,28.6530612 C1.41935484,26.6275102 3.01116129,24.9795918 4.96774194,24.9795918 Z" id="Shape"></path>
        </g>
    </g>
</svg>