<?xml version="1.0" encoding="UTF-8"?>
<svg width="80px" height="80px" viewBox="0 0 80 80" version="1.1" xmlns="http://www.w3.org/2000/svg" xmlns:xlink="http://www.w3.org/1999/xlink">
    <!-- Generator: Sketch 61.2 (89653) - https://sketch.com -->
    <title>map_icons</title>
    <desc>Created with Sketch.</desc>
    <g id="Page-1" stroke="none" stroke-width="1" fill="none" fill-rule="evenodd">
        <g id="circle" transform="translate(3.000000, 3.000000)" fill="#000000" fill-opacity="0.501720935" fill-rule="nonzero">
            <path d="M75,37.5 C75,58.2109615 58.2109615,75 37.5,75 C16.7890385,75 0,58.2109615 0,37.5 C0,16.7890385 16.7890385,0 37.5,0 C58.2109615,0 75,16.7890385 75,37.5 Z" id="Path"></path>
        </g>
        <g id="whitecircle" transform="translate(5.000000, 5.000000)" fill="#FFEAB6" fill-rule="nonzero">
            <path d="M71,35.5 C71,55.1063769 55.1063769,71 35.5,71 C15.8936231,71 0,55.1063769 0,35.5 C0,15.8936231 15.8936231,0 35.5,0 C55.1063769,0 71,15.8936231 71,35.5 Z" id="Path"></path>
        </g>
        <g id="circle-rescue-robot-colored" transform="translate(16.000000, 5.000000)" fill-rule="nonzero">
            <path d="M28.7777778,25.5047528 C32.766501,25.5047528 36,22.3352097 36,18.4253801 C36,14.5155505 32.766501,11.3460074 28.7777778,11.3460074 L24.4444444,11.3460074 L24.4444444,8.25232155 C26.4342341,7.56273926 27.6278152,5.56829601 27.2709271,3.52934205 C26.9140389,1.4903881 25.1104906,0 23,0 C20.8895094,0 19.0859611,1.4903881 18.7290729,3.52934205 C18.3721848,5.56829601 19.5657659,7.56273926 21.5555556,8.25232155 L21.5555556,11.3460074 L17.2222222,11.3460074 C13.233499,11.3460074 10,14.5155505 10,18.4253801 C10,22.3352097 13.233499,25.5047528 17.2222222,25.5047528 L18.6666667,25.5047528 L18.6666667,28.3365019 L15.7777778,28.3365019 C13.3845439,28.3365019 11.4444444,30.2382277 11.4444444,32.5841255 C11.4444444,33.3660914 12.0911443,34 12.8888889,34 C13.6866335,34 14.3333333,33.3660914 14.3333333,32.5841255 C14.3333333,31.8021595 14.9800331,31.1682509 15.7777778,31.1682509 L30.2222222,31.1682509 C31.0199669,31.1682509 31.6666667,31.8021595 31.6666667,32.5841255 C31.6666667,33.3660914 32.3133665,34 33.1111111,34 C33.9088557,34 34.5555556,33.3660914 34.5555556,32.5841255 C34.5555556,30.2382277 32.6154561,28.3365019 30.2222222,28.3365019 L27.3333333,28.3365019 L27.3333333,25.5047528 L28.7777778,25.5047528 Z M23,2.8507602 C23.7977446,2.8507602 24.4444444,3.48466882 24.4444444,4.26663473 C24.4444444,5.04860065 23.7977446,5.68250927 23,5.68250927 C22.2022554,5.68250927 21.5555556,5.04860065 21.5555556,4.26663473 C21.5555556,3.48466882 22.2022554,2.8507602 23,2.8507602 Z M12.8888889,18.4253801 C12.8888889,16.0794824 14.8289883,14.1777565 17.2222222,14.1777565 L28.7777778,14.1777565 C31.1710117,14.1777565 33.1111111,16.0794824 33.1111111,18.4253801 C33.1111111,20.7712778 31.1710117,22.6730037 28.7777778,22.6730037 L17.2222222,22.6730037 C14.8289883,22.6730037 12.8888889,20.7712778 12.8888889,18.4253801 Z M24.4444444,28.3365019 L21.5555556,28.3365019 L21.5555556,25.5047528 L24.4444444,25.5047528 L24.4444444,28.3365019 Z" id="Shape" fill="#0003FF"></path>
            <circle id="Oval" fill="#000000" cx="18.5" cy="18.5" r="1.5"></circle>
            <circle id="Oval" fill="#000000" cx="27.5" cy="18.5" r="1.5"></circle>
            <path d="M45.138298,56.5962955 C42.6213244,55.807734 41.776055,55.807734 39.2619351,56.5962955 C36.6724771,57.4113951 35.6434287,57.4113951 33.0191555,56.5962955 C30.3703404,55.7817374 29.6209558,55.8348137 27.1393681,56.5962955 C24.5036801,57.4113951 23.4831928,57.4113951 20.8960179,56.5962955 C18.3761905,55.807734 17.5360578,55.807734 15.0162305,56.5962955 C12.4279141,57.4113951 11.4000071,57.4113951 8.77345097,56.5962955 C7.49441743,56.2014731 6.49561836,56 5.80330793,56 C5.15209094,56 4.17440934,56.2014731 2.89195134,56.5962955 C1.69909989,56.9678293 0.746530957,57.1476386 0,57.1823007 L0,60.8548527 L0.0102733618,61 C0.451457176,60.7719887 1.44797327,60.5710572 2.73100201,60.1762348 C5.42775948,59.340013 6.38774806,59.3860485 8.94010773,60.1762348 C11.4274028,60.9415078 12.1830656,60.9951256 14.8221781,60.1762348 C17.4430268,59.3605936 18.4583774,59.3605936 21.0963484,60.1762348 C23.7326072,60.9913345 24.4871286,60.9415078 26.9789895,60.1762348 C29.5267833,59.3784662 30.4804937,59.3367634 33.1858123,60.1762348 C35.660551,60.9415078 36.4179261,60.9913345 39.0678827,60.1762348 C41.6927266,59.3605936 42.7206335,59.3605936 45.3095207,60.1762348 C46.420756,60.527188 47.3230996,60.722162 48,60.7627816 L48,56.9808276 C47.4743463,57.2245451 46.4316001,57.0062825 45.138298,56.5962955 Z" id="Path" fill="#0003FF"></path>
            <path d="M45.138298,49.5962955 C42.6213244,48.807734 41.776055,48.807734 39.2619351,49.5962955 C36.6724771,50.4113951 35.6434287,50.4113951 33.0191555,49.5962955 C30.3703404,48.7806542 29.6209558,48.8342721 27.1393681,49.5962955 C24.5036801,50.4113951 23.4831928,50.4113951 20.8960179,49.5962955 C18.3761905,48.807734 17.5360578,48.807734 15.0162305,49.5962955 C12.4279141,50.4113951 11.4000071,50.4113951 8.77345097,49.5962955 C7.49441743,49.2014731 6.49561836,49 5.80330793,49 C5.15209094,49 4.17440934,49.2014731 2.89195134,49.5962955 C1.69909989,49.9678293 0.746530957,50.1476386 0,50.1823007 L0,53.8548527 L0.0102733618,54 C0.451457176,53.7714471 1.44797327,53.5705156 2.73100201,53.1762348 C5.42775948,52.340013 6.38774806,52.3865901 8.94010773,53.1762348 C11.4274028,53.9420494 12.1830656,53.9956672 14.8221781,53.1762348 C17.4430268,52.3616768 18.4583774,52.3616768 21.0963484,53.1762348 C23.7326072,53.9913345 24.4871286,53.9420494 26.9789895,53.1762348 C29.5267833,52.3790078 30.4804937,52.3367634 33.1858123,53.1762348 C35.660551,53.9420494 36.4179261,53.9913345 39.0678827,53.1762348 C41.6927266,52.3616768 42.7206335,52.3616768 45.3095207,53.1762348 C46.420756,53.5277296 47.3230996,53.7227036 48,53.7633232 L48,49.9813692 C47.4743463,50.2245451 46.4316001,50.0051993 45.138298,49.5962955 Z" id="Path" fill="#0003FF"></path>
            <path d="M24.4744179,27.3452941 L24.4744179,46.5917647 C25.1758358,46.5052941 25.937791,46.3011765 26.9203582,45.9770588 C29.4512836,45.1494118 30.2155672,45.0917647 32.9170448,45.9770588 C35.5934925,46.8623529 36.6424179,46.8623529 39.2839403,45.9770588 C39.7862836,45.8094118 40.2216866,45.6758824 40.6192537,45.5735294 C41.8276716,43.1435294 42.9010448,40.6394118 42.8684478,39.5029412 C42.7025522,33.6805882 28.1444925,28.5482353 24.4744179,27.3452941 Z" id="Path" fill="#0003FF"></path>
            <path d="M22.9615672,27.2947059 C19.5877761,28.3894118 4.58034328,33.5888235 4.41270149,39.5029412 C4.3789403,40.6341176 5.443,43.1205882 6.64501493,45.5411765 C7.10602985,45.6482353 7.61535821,45.7882353 8.18929851,45.9770588 C10.8674925,46.8623529 11.9158358,46.8623529 14.556194,45.9770588 C17.1261194,45.1205882 17.9829552,45.1205882 20.5528806,45.9770588 C21.5168209,46.3005882 22.2671343,46.5041176 22.9621493,46.5911765 L22.9621493,27.2947059 L22.9615672,27.2947059 Z" id="Path" fill="#0003FF"></path>
        </g>
    </g>
</svg>