<?xml version="1.0" encoding="UTF-8"?>
<svg width="80px" height="80px" viewBox="0 0 80 80" version="1.1" xmlns="http://www.w3.org/2000/svg" xmlns:xlink="http://www.w3.org/1999/xlink">
    <!-- Generator: Sketch 61.2 (89653) - https://sketch.com -->
    <title>map_icons</title>
    <desc>Created with Sketch.</desc>
    <g id="Page-1" stroke="none" stroke-width="1" fill="none" fill-rule="evenodd">
        <g id="whitecircle" fill="#FFFFFF" fill-rule="nonzero">
            <path d="M80,40 C80,62.0916923 62.0916923,80 40,80 C17.9083077,80 0,62.0916923 0,40 C0,17.9083077 17.9083077,0 40,0 C62.0916923,0 80,17.9083077 80,40 Z" id="Path"></path>
        </g>
        <g id="circle-stroked" fill="#000000" fill-rule="nonzero">
            <path d="M40,0 C62.0917333,0 80,17.9082667 80,40 C80,62.0917333 62.0917333,80 40,80 C17.9082667,80 0,62.0917333 0,40 C0,17.9082667 17.9082667,0 40,0 Z M40,8.88853333 C22.8176,8.88853333 8.88906667,22.8176 8.88906667,40 C8.88906667,57.1824 22.8176,71.1114667 40,71.1114667 C57.1824,71.1114667 71.1109333,57.1824 71.1109333,40 C71.1109333,22.8176 57.1824,8.88853333 40,8.88853333 Z" id="path8564-5-6-4"></path>
        </g>
        <g id="circle-flood-rescue" transform="translate(14.000000, 11.000000)" fill="#000000" fill-rule="nonzero">
            <path d="M23.0164968,6 C23.0092188,6.08684325 23,6.17310754 23,6.26284556 C23,8.32739904 24.344493,10 26.0009704,10 C27.6574478,10 29,8.32739904 29,6.26284556 C29,6.17310754 28.9888404,6.08568534 28.9849588,6 L23.0164968,6 Z" id="Path"></path>
            <path d="M29.8610576,4.21213641 C29.6367452,2.37161484 28.1643213,0 25.5046166,0 C22.8954229,0 21.3752037,2.38164493 21.1356836,4.21213641 L20,4.21213641 L20,5 L31,5 L31,4.21213641 L29.8610576,4.21213641 Z" id="Path"></path>
            <path d="M30.8928006,15.8332876 L31.8747304,15.8332876 L31.8747304,22.8073441 C32.8688186,23.1654975 33.9254353,23.5649175 35,24 L35,15.6091233 C35,13.3471019 33.1501971,11.1344986 30.2113552,11 C30.0469283,11.4692166 29.8975545,12.31238 30.0920878,13.7011796 C30.2733048,14.9896148 30.8928006,15.8332876 30.8928006,15.8332876 Z" id="Path"></path>
            <path d="M45.3767732,47.5962955 C43.0695473,46.807734 42.2947171,46.807734 39.9901071,47.5962955 C37.6164374,48.4113951 36.673143,48.4113951 34.2675592,47.5962955 C31.8394787,46.7817374 31.1525428,46.8348137 28.8777541,47.5962955 C26.4617068,48.4113951 25.5262601,48.4113951 23.1546831,47.5962955 C20.8448413,46.807734 20.0747197,46.807734 17.7648779,47.5962955 C15.3922546,48.4113951 14.4500065,48.4113951 12.0423301,47.5962955 C10.8698826,47.2014731 9.95431683,47 9.31969893,47 C8.72275003,47 7.8265419,47.2014731 6.6509554,47.5962955 C5.55750823,47.9678293 4.68432004,48.1476386 4,48.1823007 L4,51.8548527 L4.00941725,52 C4.41383575,51.7719887 5.32730883,51.5710572 6.50341851,51.1762348 C8.97544619,50.340013 9.85543573,50.3860485 12.1950988,51.1762348 C14.4751192,51.9415078 15.1678101,51.9951256 17.5869966,51.1762348 C19.9894413,50.3605936 20.9201793,50.3605936 23.3383194,51.1762348 C25.75489,51.9913345 26.4465345,51.9415078 28.7307404,51.1762348 C31.066218,50.3784662 31.9404526,50.3367634 34.4203279,51.1762348 C36.6888384,51.9415078 37.3830989,51.9913345 39.8122258,51.1762348 C42.2183327,50.3605936 43.1605807,50.3605936 45.5337273,51.1762348 C46.5523597,51.527188 47.379508,51.722162 48,51.7627816 L48,47.9808276 C47.5181508,48.2245451 46.5623001,48.0062825 45.3767732,47.5962955 Z" id="Path"></path>
            <path d="M45.3767732,41.5962955 C43.0695473,40.807734 42.2947171,40.807734 39.9901071,41.5962955 C37.6164374,42.4113951 36.673143,42.4113951 34.2675592,41.5962955 C31.8394787,40.7806542 31.1525428,40.8342721 28.8777541,41.5962955 C26.4617068,42.4113951 25.5262601,42.4113951 23.1546831,41.5962955 C20.8448413,40.807734 20.0747197,40.807734 17.7648779,41.5962955 C15.3922546,42.4113951 14.4500065,42.4113951 12.0423301,41.5962955 C10.8698826,41.2014731 9.95431683,41 9.31969893,41 C8.72275003,41 7.8265419,41.2014731 6.6509554,41.5962955 C5.55750823,41.9678293 4.68432004,42.1476386 4,42.1823007 L4,45.8548527 L4.00941725,46 C4.41383575,45.7714471 5.32730883,45.5705156 6.50341851,45.1762348 C8.97544619,44.340013 9.85543573,44.3865901 12.1950988,45.1762348 C14.4751192,45.9420494 15.1678101,45.9956672 17.5869966,45.1762348 C19.9894413,44.3616768 20.9201793,44.3616768 23.3383194,45.1762348 C25.75489,45.9913345 26.4465345,45.9420494 28.7307404,45.1762348 C31.066218,44.3790078 31.9404526,44.3367634 34.4203279,45.1762348 C36.6888384,45.9420494 37.3830989,45.9913345 39.8122258,45.1762348 C42.2183327,44.3616768 43.1605807,44.3616768 45.5337273,45.1762348 C46.5523597,45.5277296 47.379508,45.7227036 48,45.7633232 L48,41.9813692 C47.5181508,42.2245451 46.5623001,42.0051993 45.3767732,41.5962955 Z" id="Path"></path>
            <g id="Group" transform="translate(8.000000, 22.000000)">
                <path d="M18.3744776,0.310764706 L18.3744776,17.6325882 C19.0039552,17.5547647 19.6877612,17.3710588 20.5695522,17.0793529 C22.8408955,16.3344706 23.526791,16.2825882 25.951194,17.0793529 C28.3531343,17.8761176 29.2944776,17.8761176 31.6650746,17.0793529 C32.1158955,16.9284706 32.5066418,16.8082941 32.8634328,16.7161765 C33.9479104,14.5291765 34.911194,12.2754706 34.8819403,11.2526471 C34.7330597,6.01252941 21.6681343,1.39341176 18.3744776,0.310764706 Z" id="Path"></path>
                <path d="M17.016791,0.265235294 C13.9890299,1.25047059 0.520820896,5.92994118 0.370373134,11.2526471 C0.340074627,12.2707059 1.295,14.5085294 2.37373134,16.6870588 C2.78746269,16.7834118 3.24455224,16.9094118 3.75962687,17.0793529 C6.16313433,17.8761176 7.10395522,17.8761176 9.47350746,17.0793529 C11.7798507,16.3085294 12.548806,16.3085294 14.8551493,17.0793529 C15.7202239,17.3705294 16.3935821,17.5537059 17.0173134,17.6320588 L17.0173134,0.265235294 L17.016791,0.265235294 Z" id="Path"></path>
            </g>
            <polygon id="Path" points="26.6670035 17.3335017 26.6670035 15 24.3329965 15 24.3329965 17.3335017 22 17.3335017 22 19.6664983 24.3329965 19.6664983 24.3329965 22 26.6670035 22 26.6670035 19.6664983 29 19.6664983 29 17.3335017"></polygon>
            <path d="M24.0110351,11 C24.0062373,11.0436195 24,11.087239 24,11.1308585 C24,12.1642691 24.8967254,13 26.0007197,13 C27.1042341,13 28,12.1633411 28,11.1308585 C28,11.0867749 27.9923234,11.0436195 27.9899244,11 L24.0110351,11 Z" id="Path"></path>
            <path d="M20.1260094,22.8062261 L20.1260094,15.8172408 L21.1079898,15.8172408 C21.1079898,15.8172408 21.7269385,14.976369 21.9081648,13.6922115 C22.1021291,12.3080228 21.9533266,11.4681665 21.7888912,11 C18.8493191,11.134052 17,13.3393094 17,15.5938208 L17,24 C18.073462,23.5648387 19.1289751,23.1647137 20.1260094,22.8062261 Z" id="Path"></path>
        </g>
    </g>
</svg>