<?xml version="1.0" encoding="UTF-8"?>
<svg width="80px" height="80px" viewBox="0 0 80 80" version="1.1" xmlns="http://www.w3.org/2000/svg" xmlns:xlink="http://www.w3.org/1999/xlink">
    <!-- Generator: Sketch 61.2 (89653) - https://sketch.com -->
    <title>map_icons</title>
    <desc>Created with Sketch.</desc>
    <g id="Page-1" stroke="none" stroke-width="1" fill="none" fill-rule="evenodd">
        <g id="circle-stroked" fill="#000000" fill-rule="nonzero">
            <path d="M40,0 C62.0917333,0 80,17.9082667 80,40 C80,62.0917333 62.0917333,80 40,80 C17.9082667,80 0,62.0917333 0,40 C0,17.9082667 17.9082667,0 40,0 Z M40,8.88853333 C22.8176,8.88853333 8.88906667,22.8176 8.88906667,40 C8.88906667,57.1824 22.8176,71.1114667 40,71.1114667 C57.1824,71.1114667 71.1109333,57.1824 71.1109333,40 C71.1109333,22.8176 57.1824,8.88853333 40,8.88853333 Z" id="path8564-5-6-4"></path>
        </g>
        <g id="circle-flooding_helpme" transform="translate(13.000000, 10.000000)" fill="#000000" fill-rule="nonzero">
            <path d="M1.19714353,39 C1.48217771,39 1.76721188,38.8868013 1.99523922,38.660404 L4.5605468,36.4530298 C5.07360831,36.0002351 5.75769033,35.7738377 6.44177235,35.7738377 C7.12585437,35.7738377 7.80993639,36.0002351 8.32299791,36.4530298 L9.74816878,37.6416159 C10.717285,38.4340066 11.9144285,38.8868013 13.2825925,38.8868013 C14.6507566,38.8868013 15.8479001,38.4340066 16.8170163,37.6416159 L18.2421872,36.3964304 C18.7552487,35.9436357 19.4393307,35.7172384 20.1234127,35.7172384 C20.8074948,35.7172384 21.4915768,35.9436357 22.0046383,36.4530298 L23.4298092,37.6416159 C24.3989254,38.4340066 25.6530757,38.8868013 26.9642329,38.8868013 C28.2753901,38.8868013 29.5295405,38.4340066 30.4986567,37.6416159 L31.9238276,36.3964304 C32.4368891,35.9436357 33.1209711,35.7172384 33.8050531,35.7172384 C34.4891352,35.7172384 35.1732172,35.9436357 35.6862787,36.3964304 L37.1114496,37.6416159 C38.0805658,38.4340066 39.3347161,38.8868013 40.6458733,38.8868013 C42.0140374,38.8868013 43.2111809,38.4340066 44.1802971,37.6416159 L45.605468,36.3964304 C46.1185295,35.9436357 46.8026115,35.7172384 47.4866935,35.7172384 C48.1707756,35.7172384 48.8548576,35.9436357 49.3679191,36.3964304 L51.9332267,38.6038046 C52.161254,38.830202 52.4462882,38.9434007 52.7313224,38.9434007 C53.0733634,38.9434007 53.4724112,38.7736026 53.7004385,38.490606 C53.9284659,38.2642086 54.0424796,37.9246126 53.9854727,37.5850165 C53.9854727,37.2454205 53.8144522,36.9624238 53.529418,36.7360265 L51.0781241,34.5852516 C50.1090079,33.7362615 48.8548576,33.2834668 47.5437004,33.2834668 C46.2325432,33.2834668 44.9783928,33.7362615 44.0092766,34.5852516 L42.5841057,35.830437 C42.128051,36.2266324 41.443969,36.4530298 40.7028802,36.4530298 C40.0187982,36.4530298 39.3347161,36.2266324 38.8216546,35.7738377 L37.3964837,34.5852516 C36.4273675,33.7362615 35.1732172,33.2834668 33.86206,33.2834668 C33.4630121,33.2834668 33.0069574,33.3400661 32.6079096,33.4532648 L32.9499506,29.3215131 C35.2872308,28.2461257 35.4582514,25.0199634 35.914306,21.6806024 C36.4843744,17.60545 37.9095453,6.45538032 37.9095453,6.45538032 C38.0235589,5.43659222 37.3394769,4.58760215 36.3133539,4.47440347 C35.2872308,4.36120479 34.4321283,5.04039685 34.3181147,6.05918495 L33.3489985,14.1528904 C33.2919916,14.4358871 33.0639643,14.6622844 32.7789301,14.6622844 L32.7219233,14.6622844 C32.4368891,14.6622844 32.1518549,14.3792877 32.2088618,14.096291 L32.6649164,3.62541339 C32.7219233,2.6066253 31.9238276,1.75763522 30.9547114,1.75763522 C29.9855952,1.70103588 29.1304927,2.49342662 29.0734858,3.45561537 L28.6174312,13.926493 C28.6174312,14.2094897 28.332397,14.4924864 28.0473628,14.4358871 C27.7623286,14.4358871 27.5343013,14.2094897 27.5343013,13.926493 L26.6791988,1.70103588 C26.6221919,0.682247784 25.7670894,-0.0535436172 24.7409664,0.00305572133 C23.7148433,0.0596550599 22.9737545,0.908645139 23.0307613,1.92743323 L23.7718502,13.586897 C23.7718502,13.926493 23.5438228,14.2094897 23.2017818,14.1528904 L23.0307613,14.1528904 C22.7457272,14.1528904 22.5747066,13.926493 22.5176998,13.7000957 L20.8645016,4.13480744 C20.6934811,3.17261868 19.7243649,2.49342662 18.7552487,2.66322463 C17.7861325,2.83302265 17.1020505,3.79521141 17.273071,4.75740016 C17.273071,4.75740016 18.6982419,12.5681089 18.9262692,14.2094897 C19.1542966,15.9074699 19.2683102,16.8130593 19.3253171,18.3412414 C19.3823239,19.1902315 18.641235,19.6996255 17.8431393,18.9072348 C17.8431393,18.9072348 16.3039548,17.0394566 15.3918454,16.1338672 C14.4797361,15.2282778 13.5106199,14.8886818 12.5985105,15.5112745 C11.6293943,16.1338672 11.3443602,17.435652 12.0284422,18.3412414 C12.0284422,18.3412414 15.9619138,24.7369667 18.3562009,27.3971356 C19.0972897,28.2461257 20.0664059,29.0951157 21.0925289,29.4913111 L21.43457,33.4532648 C21.0355221,33.3400661 20.6364743,33.2834668 20.2374264,33.2834668 C18.9262692,33.2834668 17.6721188,33.7362615 16.7030026,34.5852516 L15.2778318,35.830437 C14.8217771,36.2266324 14.1376951,36.4530298 13.4536131,36.4530298 C12.7125242,36.4530298 12.085449,36.2266324 11.5723875,35.7738377 L10.033203,34.5852516 C9.06408676,33.7362615 7.80993639,33.2834668 6.49877919,33.2834668 C5.18762198,33.2834668 3.93347161,33.7362615 2.96435542,34.5852516 L0.399047845,36.7926258 C0.171020505,37.0190231 0,37.3020198 0,37.6416159 C0,37.9812119 0.057006835,38.3208079 0.285034175,38.5472053 C0.513061515,38.830202 0.855102525,39 1.19714353,39 Z" id="Path"></path>
            <path d="M50.967312,40.049505 C49.9992178,38.7128713 48.74639,38 47.4366155,38 C46.126841,38 44.8740133,38.7128713 43.9059191,40.049505 L42.4822511,42.009901 C42.0266774,42.6336634 41.3433168,42.990099 40.6030095,42.990099 C39.9196489,42.990099 39.2362882,42.6336634 38.7237678,41.9207921 L37.3000999,40.049505 C36.3320057,38.7128713 35.0791779,38 33.7694034,38 C32.4596289,38 31.2637478,38.7128713 30.2387069,40.049505 L28.7580923,42.009901 C28.3025185,42.6336634 27.6191579,42.990099 26.9357973,42.990099 C26.19549,42.990099 25.5690761,42.6336634 25.0565556,41.9207921 L23.6328877,40.049505 C22.6078468,38.7128713 21.4119657,38 20.1021912,38 C18.7924167,38 17.5395889,38.7128713 16.5714947,40.049505 L15.1478268,42.009901 C14.6922531,42.6336634 14.0088925,42.990099 13.3255319,42.990099 C12.5852245,42.990099 11.9588106,42.6336634 11.4462902,41.9207921 L10.0226223,40.049505 C9.05452806,38.7128713 7.80170028,38 6.49192578,38 C5.18215128,38 3.9293235,38.7128713 2.9612293,40.049505 L0.398627021,43.5247525 C0.170840152,43.8811881 0,44.3267327 0,44.8613861 C0,45.3960396 0.0569467173,45.9306931 0.284733587,46.2871287 C0.512520456,46.7326733 0.85420076,47 1.25282778,47 C1.53756137,47 1.82229495,46.8217822 2.05008182,46.4653465 L4.6126841,42.990099 C5.12520456,42.2772277 5.80856517,41.9207921 6.49192578,41.9207921 C7.17528639,41.9207921 7.85864699,42.2772277 8.37116745,42.990099 L9.79483538,44.8613861 C10.7629296,46.1089109 11.9588106,46.8217822 13.3255319,46.8217822 C14.6922531,46.8217822 15.8881341,46.1089109 16.8562283,44.8613861 L18.2798963,42.9009901 C18.7924167,42.1881188 19.4757773,41.8316832 20.1591379,41.8316832 C20.8424985,41.8316832 21.5258592,42.1881188 22.0383796,42.990099 L23.4620475,44.8613861 C24.4301417,46.1089109 25.6829695,46.8217822 26.992744,46.8217822 C28.3025185,46.8217822 29.5553463,46.1089109 30.5234405,44.8613861 L31.9471084,42.9009901 C32.4596289,42.1881188 33.1429895,41.8316832 33.8263501,41.8316832 C34.5097107,41.8316832 35.1930713,42.1881188 35.7055918,42.9009901 L37.1292597,44.8613861 C38.0973539,46.1089109 39.3501817,46.8217822 40.6599562,46.8217822 C42.0266774,46.8217822 43.2225585,46.1089109 44.1906527,44.8613861 L45.6143206,42.9009901 C46.126841,42.1881188 46.8102017,41.8316832 47.4935623,41.8316832 C48.1769229,41.8316832 48.8602835,42.1881188 49.3728039,42.9009901 L51.9354062,46.3762376 C52.1631931,46.7326733 52.4479267,46.9108911 52.7326603,46.9108911 C53.0743406,46.9108911 53.4729676,46.6435644 53.7007545,46.1980198 C53.9285413,45.8415842 54.0424348,45.3069307 53.985488,44.7722772 C53.985488,44.2376238 53.8146479,43.7920792 53.5299143,43.4356436 L50.967312,40.049505 Z" id="Path"></path>
            <path d="M51.0242587,47.049505 C49.9992178,45.7128713 48.74639,45 47.4935623,45 C46.1837878,45 44.93096,45.7128713 43.9628658,47.049505 L42.5391979,49.009901 C42.0836241,49.6336634 41.4002635,49.990099 40.6599562,49.990099 C39.9765956,49.990099 39.293235,49.6336634 38.7807145,48.9207921 L37.3570466,47.049505 C36.3889524,45.7128713 35.0791779,45 33.8263501,45 C32.5165756,45 31.3206945,45.7128713 30.2956536,47.049505 L28.815039,49.009901 C28.3594652,49.6336634 27.6761046,49.990099 26.992744,49.990099 C26.2524367,49.990099 25.6260228,49.6336634 25.1135023,48.9207921 L23.6898344,47.049505 C22.6647935,45.7128713 21.4689124,45 20.1591379,45 C18.8493634,45 17.5965357,45.7128713 16.6284415,47.049505 L15.2047735,49.009901 C14.7491998,49.6336634 14.0658392,49.990099 13.3824786,49.990099 C12.6421712,49.990099 12.0157574,49.6336634 11.5032369,48.9207921 L10.079569,47.049505 C9.05452806,45.7128713 7.80170028,45 6.49192578,45 C5.18215128,45 3.9293235,45.7128713 2.9612293,47.049505 L0.398627021,50.5247525 C0.170840152,50.8811881 0,51.3267327 0,51.8613861 C0,52.3960396 0.0569467173,52.9306931 0.284733587,53.2871287 C0.512520456,53.7326733 0.85420076,54 1.25282778,54 C1.53756137,54 1.82229495,53.8217822 2.05008182,53.4653465 L4.6126841,49.990099 C5.12520456,49.2772277 5.80856517,48.9207921 6.49192578,48.9207921 C7.17528639,48.9207921 7.85864699,49.2772277 8.37116745,49.990099 L9.79483538,51.8613861 C10.7629296,53.1089109 11.9588106,53.8217822 13.3255319,53.8217822 C14.6922531,53.8217822 15.8881341,53.1089109 16.8562283,51.8613861 L18.2798963,49.9009901 C18.7924167,49.1881188 19.4757773,48.8316832 20.1591379,48.8316832 C20.8424985,48.8316832 21.5258592,49.1881188 22.0383796,49.990099 L23.4620475,51.8613861 C24.4301417,53.1089109 25.6829695,53.8217822 26.992744,53.8217822 C28.3025185,53.8217822 29.5553463,53.1089109 30.5234405,51.8613861 L31.9471084,49.9009901 C32.4596289,49.1881188 33.1429895,48.8316832 33.8263501,48.8316832 C34.5097107,48.8316832 35.1930713,49.1881188 35.7055918,49.9009901 L37.1292597,51.8613861 C38.0973539,53.1089109 39.3501817,53.8217822 40.6599562,53.8217822 C42.0266774,53.8217822 43.2225585,53.1089109 44.1906527,51.8613861 L45.6143206,49.9009901 C46.126841,49.1881188 46.8102017,48.8316832 47.4935623,48.8316832 C48.1769229,48.8316832 48.8602835,49.1881188 49.3728039,49.9009901 L51.9354062,53.3762376 C52.1631931,53.7326733 52.4479267,53.9108911 52.7326603,53.9108911 C53.0743406,53.9108911 53.4729676,53.6435644 53.7007545,53.1980198 C53.9285413,52.8415842 54.0424348,52.3069307 53.985488,51.7722772 C53.985488,51.2376238 53.8146479,50.7920792 53.5299143,50.4356436 L51.0242587,47.049505 Z" id="Path"></path>
        </g>
    </g>
</svg>