<?xml version="1.0" encoding="UTF-8"?>
<svg width="80px" height="80px" viewBox="0 0 80 80" version="1.1" xmlns="http://www.w3.org/2000/svg" xmlns:xlink="http://www.w3.org/1999/xlink">
    <!-- Generator: Sketch 61.2 (89653) - https://sketch.com -->
    <title>map_icons</title>
    <desc>Created with Sketch.</desc>
    <g id="Page-1" stroke="none" stroke-width="1" fill="none" fill-rule="evenodd">
        <g id="circle-stroked" fill="#000000" fill-rule="nonzero">
            <path d="M40,0 C62.0917333,0 80,17.9082667 80,40 C80,62.0917333 62.0917333,80 40,80 C17.9082667,80 0,62.0917333 0,40 C0,17.9082667 17.9082667,0 40,0 Z M40,8.88853333 C22.8176,8.88853333 8.88906667,22.8176 8.88906667,40 C8.88906667,57.1824 22.8176,71.1114667 40,71.1114667 C57.1824,71.1114667 71.1109333,57.1824 71.1109333,40 C71.1109333,22.8176 57.1824,8.88853333 40,8.88853333 Z" id="path8564-5-6-4"></path>
        </g>
        <g id="circle_rescue_workers" transform="translate(18.000000, 20.000000)" fill="#000000" fill-rule="nonzero">
            <circle id="Oval" cx="3.5" cy="3.5" r="3.5"></circle>
            <path d="M2.4684626,24.7601917 C2.66789321,24.9238345 2.89867245,25 3.12544973,25 C3.47562053,25 3.8204554,24.8175044 4.04056276,24.471366 L7.78772384,18.5877675 C8.04384877,18.1858247 8.07052845,17.6519119 7.85509004,17.2198045 L5.08507224,11.6499175 C4.7795899,11.0368227 4.09325513,10.8188838 3.55099063,11.1635139 C3.00872613,11.5081441 2.81596544,12.2848816 3.12078079,12.8979764 L5.5392938,17.7597502 L2.21233767,22.9834988 C1.84882703,23.5536091 1.96354966,24.3491995 2.4684626,24.7601917 Z" id="Path"></path>
            <path d="M3,36.3974313 C3,37.2821976 3.67186109,38 4.50066785,38 C5.32813891,38 6,37.2821976 6,36.3974313 L6,35.9079558 L3,32 L3,36.3974313 Z" id="Path"></path>
            <path d="M4.68544162,17.1626907 L2.40886976,12.4194225 C2.02507485,11.6177434 2.26805763,10.5987509 2.95116018,10.1487663 C3.16401572,10.008242 3.40503368,9.93452442 3.64736153,9.93452442 C4.16083458,9.93452442 4.63632111,10.2608785 4.88781811,10.7845807 L7,15.186137 L7,13.446094 C7,11.0003583 5.42486901,9 3.49934506,9 C1.57513099,9.00076789 0,11.0018941 0,13.4468619 L0,24 L1.421875,24 C1.19723054,23.4647794 1.21884356,22.8074639 1.53648952,22.2899048 L4.68544162,17.1626907 Z" id="Path"></path>
            <polygon id="Path" points="7 20 4 25 7 25"></polygon>
            <path d="M5.6559566,29.3020074 L5.6559566,24 L4.44517017,24 C4.44517017,24 3.39061425,25.1790961 2,24.7316362 L2,29.9323764 C2,30.3390154 2.1464661,30.7330941 2.41254618,31.0486711 L7.75611773,37.3531457 C8.11821448,37.7794101 8.64305134,38 9.1727704,38 C9.57962068,38 9.98972576,37.8696871 10.3290389,37.6012112 C11.1101914,36.9849725 11.2265506,35.8749579 10.586982,35.1205562 L5.6559566,29.3020074 Z" id="Path"></path>
            <circle id="Oval" cx="38.5" cy="3.5" r="3.5"></circle>
            <path d="M36.4688211,24.7601917 C36.667594,24.9238345 36.898384,25 37.1258389,25 C37.475359,25 37.82021,24.8175044 38.0409947,24.471366 L41.7869966,18.5877675 C42.0438005,18.1858247 42.0704814,17.6519119 41.8557,17.2198045 L39.0848859,11.6499175 C38.7793893,11.0368227 38.0930225,10.8188838 37.5507326,11.1635139 C37.0084428,11.5081441 36.8156732,12.2848816 37.1205027,12.8979764 L39.5397956,17.7597502 L36.2120172,22.9834988 C35.8491566,23.5536091 35.9632176,24.3491995 36.4688211,24.7601917 Z" id="Path"></path>
            <path d="M38,36.3974313 C38,37.2821976 38.6725289,38 39.5006679,38 C40.3288068,38 41,37.2821976 41,36.3974313 L41,35.9079558 L38,32 L38,36.3974313 Z" id="Path"></path>
            <path d="M39.6850033,17.1631086 L37.4092993,12.4195976 C37.0248854,11.6178774 37.2678454,10.5988327 37.9508841,10.1488251 C38.1643746,10.0082937 38.40537,9.93457226 38.6470203,9.93457226 C39.1604453,9.93457226 39.6358874,10.260943 39.8880157,10.7846721 L42,15.1864537 L42,13.4463216 C42,11.0004608 40.4250164,9 38.4990177,9 C36.5749836,9 35,11.0004608 35,13.4463216 L35,24 L36.4210871,24 C36.1971185,23.464752 36.2180747,22.8074029 36.5356909,22.2898172 L39.6850033,17.1631086 Z" id="Path"></path>
            <polygon id="Path" points="42 20 39 25 42 25"></polygon>
            <path d="M44.5869931,35.1205562 L39.6551476,29.3020074 L39.6551476,24 L38.4451733,24 C38.4451733,24 37.3914298,25.1790961 36,24.7316362 L36,29.9323764 C36,30.3390154 36.1464663,30.7330941 36.4133604,31.0486711 L41.7561252,37.3531457 C42.1182224,37.7794101 42.6438737,38 43.1735934,38 C43.5796305,38 43.9897361,37.8696871 44.3298634,37.6012112 C45.1110169,36.9849725 45.2257489,35.8749579 44.5869931,35.1205562 Z" id="Path"></path>
            <rect id="Rectangle" x="16" y="21" width="18" height="2"></rect>
            <polygon id="Path" points="9 23 16 23 16 21.641791 9 20"></polygon>
            <polygon id="Path" points="18.2446563 17 21.7410939 17 21.7410939 11.7955641 27 11.7955641 27 8.20293582 21.7410939 8.20293582 21.7410939 3 18.2446563 3 18.2446563 8.20293582 13 8.20293582 13 11.7955641 18.2446563 11.7955641"></polygon>
        </g>
    </g>
</svg>