<?xml version="1.0" encoding="UTF-8"?>
<svg width="80px" height="80px" viewBox="0 0 80 80" version="1.1" xmlns="http://www.w3.org/2000/svg" xmlns:xlink="http://www.w3.org/1999/xlink">
    <!-- Generator: Sketch 61.2 (89653) - https://sketch.com -->
    <title>map_icons</title>
    <desc>Created with Sketch.</desc>
    <g id="Page-1" stroke="none" stroke-width="1" fill="none" fill-rule="evenodd">
        <g id="whitecircle" fill="#FFFFFF" fill-rule="nonzero">
            <path d="M80,40 C80,62.0916923 62.0916923,80 40,80 C17.9083077,80 0,62.0916923 0,40 C0,17.9083077 17.9083077,0 40,0 C62.0916923,0 80,17.9083077 80,40 Z" id="Path"></path>
        </g>
        <g id="circle-stroked" fill="#000000" fill-rule="nonzero">
            <path d="M40,0 C62.0917333,0 80,17.9082667 80,40 C80,62.0917333 62.0917333,80 40,80 C17.9082667,80 0,62.0917333 0,40 C0,17.9082667 17.9082667,0 40,0 Z M40,8.88853333 C22.8176,8.88853333 8.88906667,22.8176 8.88906667,40 C8.88906667,57.1824 22.8176,71.1114667 40,71.1114667 C57.1824,71.1114667 71.1109333,57.1824 71.1109333,40 C71.1109333,22.8176 57.1824,8.88853333 40,8.88853333 Z" id="path8564-5-6-4"></path>
        </g>
        <g id="circle_flood_rescue" transform="translate(15.000000, 15.000000)" fill="#000000" fill-rule="nonzero">
            <path d="M12.9994944,0 C14.6554863,0 16,1.34131333 16,3.00025289 C16,4.65565203 14.6559919,6 12.9994944,6 C11.3404687,6 10,4.65666358 10,3.00025289 C9.9994945,1.34232488 11.3404687,0 12.9994944,0 Z" id="Path"></path>
            <path d="M23.4995338,7 C24.8805483,7 26,8.11805297 26,9.50046624 C26,10.8805483 24.8805483,12 23.4995338,12 C22.1175867,12 21,10.8814808 21,9.50046624 C21,8.11898545 22.118053,7 23.4995338,7 Z" id="Path"></path>
            <path d="M18.6437238,16.2983859 C18.6629155,16.3050022 18.6810699,16.3111095 18.6997429,16.3182347 C18.9030716,16.3905046 19.1178116,16.467355 19.3418881,16.5487858 C21.9545578,17.5 25.825583,19.0665261 29,21 L28.9974065,16.7050313 C28.9974065,15.291188 27.8324162,14.1460666 26.3956294,14.1460666 L20.9664427,14.1460666 C20.3631997,14.1460666 19.8128637,14.3521885 19.3724911,14.6901265 L19.3698976,10.214992 C19.3698976,8.43929039 17.90562,7 16.101078,7 L9.28074963,7 C7.47465157,7 6.01037391,8.43929039 6.01037391,10.214992 L6,19.7454559 C9.88139912,17.7376763 14.0911326,16.2846445 15.6975328,15.7599244 L15.6975328,14.3043478 L17.0663705,14.3043478 L17.0663705,15.7614512 C17.4559109,15.8886869 17.9937982,16.0693616 18.6437238,16.2983859 Z" id="Path"></path>
            <path d="M39.0108401,18 C39.0054201,18.0441337 39,18.0865196 39,18.1310902 C39,19.1640813 39.8965673,20 41.0009033,20 C42.1038844,20 43,19.1627704 43,18.1310902 C43,18.0860826 42.9914182,18.0441337 42.9900632,18 L39.0108401,18 Z" id="Path"></path>
            <path d="M38.0158081,14 C38.0087217,14.064878 38,14.1292683 38,14.1965854 C38,15.744878 39.3453257,17 41.0008177,17 C42.6568547,17 44,15.7453659 44,14.1965854 C44,14.1292683 43.9890978,14.0639024 43.9852821,14 L38.0158081,14 Z" id="Path"></path>
            <path d="M45.0683974,12.3699155 C44.8851722,10.8974648 43.6804793,9 41.5042436,9 C39.3694458,9 38.1243135,10.9055775 37.9286071,12.3699155 L37,12.3699155 L37,13 L46,13 L46,12.3699155 L45.0683974,12.3699155 L45.0683974,12.3699155 Z" id="Path"></path>
            <g id="Group" transform="translate(1.000000, 17.000000)">
                <path d="M21.6589206,13.2444828 C24.3514921,14.0936552 25.4130794,14.0936552 28.1554286,13.2444828 C29.328254,12.8838621 30.1287619,12.6777241 30.9125079,12.6366897 C31.488,11.4075862 31.8968889,10.3131724 31.8786032,9.71358621 C31.7429841,5.24855172 19.927873,1.31213793 16.8594286,0.364 L16.8594286,12.8669655 C18.5533968,12.4517931 19.5306667,12.5768276 21.6589206,13.2444828 Z" id="Path"></path>
                <path d="M2.92571429,13.2444828 C4.25955556,12.8326897 5.27746032,12.6236552 5.95504762,12.6236552 C6.67479365,12.6236552 7.71453968,12.8331724 9.0448254,13.2444828 C11.7693968,14.0907586 12.8416508,14.0931724 15.5184762,13.2512414 L15.5184762,0.330206897 C12.6374603,1.21365517 0.526222222,5.19255172 0.389587302,9.71406897 C0.366222222,10.4584828 1.00165079,11.9675862 1.80063492,13.5534483 C2.15314286,13.4675172 2.52190476,13.37 2.92571429,13.2444828 Z" id="Path"></path>
            </g>
            <path d="M47.0783085,39.5957565 C44.508436,38.8072825 43.6463302,38.8072825 41.0789492,39.5957565 C38.4358226,40.4110998 37.3858475,40.4110998 34.7073396,39.5957565 C32.0034171,38.7808765 31.2379868,38.8332252 28.7044921,39.5957565 C26.0145227,40.4110998 24.9725208,40.4110998 22.3308892,39.5957565 C19.758525,38.8072825 18.9009041,38.8072825 16.3285399,39.5957565 C13.6864099,40.4110998 12.6369332,40.4110998 9.95593365,39.5957565 C8.65031679,39.2010562 7.63073966,39 6.92461024,39 C6.25984196,39 5.26119456,39.2015195 3.95258774,39.5957565 C2.73467644,39.9672936 1.76244038,40.147503 1,40.1822478 L1,43.8545353 L1.01046487,44 C1.46095252,43.7716112 2.47803802,43.570555 3.78813982,43.176318 C6.54089841,42.3396646 7.52110771,42.3859909 10.1268598,43.176318 C12.6663344,43.9420921 13.4377447,43.9953674 16.1312024,43.176318 C18.8072186,42.3609747 19.8432405,42.3609747 22.5361999,43.176318 C25.2271659,43.9916613 25.9975796,43.9420921 28.5410408,43.176318 C31.1418096,42.3785787 32.116039,42.336885 34.8777675,43.176318 C37.4037873,43.9420921 38.1766925,43.9916613 40.8826084,43.176318 C43.5621129,42.3609747 44.6110913,42.3609747 47.2537197,43.176318 C48.3884103,43.5279348 49.3093187,43.7229686 50,43.7632725 L50,39.9807282 C49.4623051,40.2244047 48.3978786,40.0057445 47.0783085,39.5957565 Z" id="Path"></path>
            <path d="M47.0783085,32.5961645 C44.508436,31.8077636 43.6463302,31.8077636 41.0789492,32.5961645 C38.4358226,33.4118955 37.3858475,33.4118955 34.7073396,32.5961645 C32.0034171,31.7804336 31.2379868,31.8341671 28.7044921,32.5961645 C26.0145227,33.4118955 24.9725208,33.4118955 22.3308892,32.5961645 C19.758525,31.8077636 18.9009041,31.8077636 16.3285399,32.5961645 C13.6864099,33.4118955 12.6369332,33.4118955 9.95593365,32.5961645 C8.65031679,32.2015008 7.63073966,32 6.92461024,32 C6.25984196,32 5.26119456,32.2019641 3.95258774,32.5961645 C2.73467644,32.9681304 1.76244038,33.1473967 1,33.1826014 L1,36.855012 L1.01046487,37 C1.46095252,36.7716324 2.47803802,36.5705948 3.78813982,36.1763943 C6.54089841,35.3393552 7.52110771,35.3861404 10.1268598,36.1763943 C12.6663344,36.9416342 13.4377447,36.9953678 16.1312024,36.1763943 C18.8072186,35.3615898 19.8432405,35.3615898 22.5361999,36.1763943 C25.2271659,36.9911988 25.9975796,36.9416342 28.5410408,36.1763943 C31.1418096,35.3787289 32.116039,35.3370391 34.8777675,36.1763943 C37.4037873,36.9416342 38.1766925,36.9911988 40.8826084,36.1763943 C43.5621129,35.3615898 44.6110913,35.3615898 47.2537197,36.1763943 C48.3884103,36.5279785 49.3093187,36.722531 50,36.7637576 L50,32.9806374 C49.4623051,33.2247545 48.3978786,33.0051881 47.0783085,32.5961645 Z" id="Path"></path>
            <polygon id="Path" points="43.3341716 24.6666667 43.3341716 22 40.6663313 22 40.6663313 24.6666667 38 24.6666667 38 27.3333333 40.6663313 27.3333333 40.6663313 30 43.3341716 30 43.3341716 27.3333333 46 27.3333333 46 24.6666667"></polygon>
            <path d="M37.6727561,18 C37.0732173,18.0931846 36.3868107,18.1130112 35.135512,18.8570012 L31,21.6351921 C31.9650867,22.3890954 32.7780292,23.1801735 33.3333808,24 L36.6218058,21.9415118 C36.6218058,21.9415118 37.8424748,21.1990087 37.9564575,20.2488228 C38.1025762,19.0453532 37.8485003,18.3910781 37.6727561,18 Z" id="Path"></path>
            <path d="M45.678521,22.110618 L46.4247542,22.110618 L46.4247542,29.5734948 C47.5658485,29.9336911 48.4870265,30.116223 49,29.9195753 L49,21.9198113 C49,19.9961687 47.3943632,18.1143866 45.1606056,18 C45.034586,18.3991364 44.9228982,19.1161216 45.0696738,20.2969812 C45.2070598,21.3926593 45.678521,22.110618 45.678521,22.110618 Z" id="Path"></path>
        </g>
    </g>
</svg>