<?xml version="1.0" encoding="UTF-8"?>
<svg width="80px" height="80px" viewBox="0 0 80 80" version="1.1" xmlns="http://www.w3.org/2000/svg" xmlns:xlink="http://www.w3.org/1999/xlink">
    <!-- Generator: Sketch 61.2 (89653) - https://sketch.com -->
    <title>map_icons</title>
    <desc>Created with Sketch.</desc>
    <g id="Page-1" stroke="none" stroke-width="1" fill="none" fill-rule="evenodd">
        <g id="circle" transform="translate(3.000000, 3.000000)" fill="#000000" fill-opacity="0.501720935" fill-rule="nonzero">
            <path d="M75,37.5 C75,58.2109615 58.2109615,75 37.5,75 C16.7890385,75 0,58.2109615 0,37.5 C0,16.7890385 16.7890385,0 37.5,0 C58.2109615,0 75,16.7890385 75,37.5 Z" id="Path"></path>
        </g>
        <g id="whitecircle" transform="translate(5.000000, 5.000000)" fill="#71B0FF" fill-rule="nonzero">
            <path d="M71,35.5 C71,55.1063769 55.1063769,71 35.5,71 C15.8936231,71 0,55.1063769 0,35.5 C0,15.8936231 15.8936231,0 35.5,0 C55.1063769,0 71,15.8936231 71,35.5 Z" id="Path"></path>
        </g>
        <g id="circle_flood_rescue_with_person_colored" transform="translate(17.000000, 17.000000)" fill="#FFFFFF" fill-rule="nonzero">
            <path d="M11.9994944,0 C13.6554863,0 15,1.34131333 15,3.00025289 C15,4.65565203 13.6559919,6 11.9994944,6 C10.3404687,6 9,4.65666358 9,3.00025289 C8.9994945,1.34232488 10.3404687,0 11.9994944,0 Z" id="Path"></path>
            <path d="M22.4995338,6 C23.8805483,6 25,7.11805297 25,8.50046624 C25,9.8805483 23.8805483,11 22.4995338,11 C21.1175867,11 20,9.88148079 20,8.50046624 C20,7.11898545 21.118053,6 22.4995338,6 Z" id="Path"></path>
            <path d="M17.0939967,15.6342155 C17.112354,15.6403592 17.129719,15.6460302 17.1475802,15.6526465 C17.3420685,15.7197543 17.5474719,15.7911153 17.761806,15.8667297 C20.2608813,16.75 23.9636011,18.2046314 27,20 L26.9975193,16.0118147 C26.9975193,14.6989603 25.8831807,13.6356333 24.5088629,13.6356333 L19.3157278,13.6356333 C18.7387127,13.6356333 18.2123044,13.8270321 17.7910784,14.1408318 L17.7885977,9.98534972 C17.7885977,8.33648393 16.3879843,7 14.6619007,7 L8.13810834,7 C6.41053629,7 5.00992287,8.33648393 5.00992287,9.98534972 L5,18.8350662 C8.71264264,16.9706994 12.7393442,15.6214556 14.275901,15.1342155 L14.275901,13.7826087 L15.5852239,13.7826087 L15.5852239,15.1356333 C15.9578278,15.2537807 16.4723287,15.4215501 17.0939967,15.6342155 Z" id="Path"></path>
            <path d="M37.0108401,17 C37.0054201,17.0441337 37,17.0865196 37,17.1310902 C37,18.1640813 37.8965673,19 39.0009033,19 C40.1038844,19 41,18.1627704 41,17.1310902 C41,17.0860826 40.9914182,17.0441337 40.9900632,17 L37.0108401,17 Z" id="Path"></path>
            <path d="M36.0158081,13 C36.0087217,13.064878 36,13.1292683 36,13.1965854 C36,14.744878 37.3453257,16 39.0008177,16 C40.6568547,16 42,14.7453659 42,13.1965854 C42,13.1292683 41.9890978,13.0639024 41.9852821,13 L36.0158081,13 Z" id="Path"></path>
            <path d="M42.1719088,11.3699155 C42.009042,9.89746479 40.9382038,8 39.0037721,8 C37.1061741,8 35.9993898,9.90557746 35.8254285,11.3699155 L35,11.3699155 L35,12 L43,12 L43,11.3699155 L42.1719088,11.3699155 L42.1719088,11.3699155 Z" id="Path"></path>
            <g id="Group" transform="translate(1.000000, 16.000000)">
                <path d="M20.3052381,12.2984483 C22.8295238,13.0869655 23.8247619,13.0869655 26.3957143,12.2984483 C27.4952381,11.9635862 28.2457143,11.7721724 28.9804762,11.734069 C29.52,10.5927586 29.9033333,9.57651724 29.8861905,9.01975862 C29.7590476,4.87365517 18.682381,1.21841379 15.8057143,0.338 L15.8057143,11.9478966 C17.3938095,11.5623793 18.31,11.6784828 20.3052381,12.2984483 Z" id="Path"></path>
                <path d="M2.74285714,12.2984483 C3.99333333,11.916069 4.94761905,11.7219655 5.58285714,11.7219655 C6.25761905,11.7219655 7.23238095,11.9165172 8.47952381,12.2984483 C11.0338095,13.0842759 12.0390476,13.0865172 14.5485714,12.3047241 L14.5485714,0.30662069 C11.847619,1.12696552 0.493333333,4.82165517 0.365238095,9.0202069 C0.343333333,9.71144828 0.939047619,11.1127586 1.68809524,12.5853448 C2.01857143,12.5055517 2.36428571,12.415 2.74285714,12.2984483 Z" id="Path"></path>
            </g>
            <path d="M44.2571876,37.5957565 C41.8446542,36.8072825 41.0353304,36.8072825 38.625136,37.5957565 C36.1438335,38.4110998 35.1581426,38.4110998 32.643625,37.5957565 C30.1052487,36.7808765 29.3866814,36.8332252 27.0082987,37.5957565 C24.4830213,38.4110998 23.5048155,38.4110998 21.0249164,37.5957565 C18.6100438,36.8072825 17.8049304,36.8072825 15.3900579,37.5957565 C12.9096909,38.4110998 11.9244679,38.4110998 9.40761118,37.5957565 C8.18193005,37.2010562 7.22477601,37 6.561879,37 C5.93781082,37 5.0003051,37.2015195 3.77181706,37.5957565 C2.62847176,37.9672936 1.71576036,38.147503 1,38.1822478 L1,41.8545353 L1.00982416,42 C1.43273093,41.7716112 2.38754589,41.570555 3.61743738,41.176318 C6.20165973,40.3396646 7.12185622,40.3859909 9.56807249,41.176318 C11.9520691,41.9420921 12.6762501,41.9953674 15.2048022,41.176318 C17.7169807,40.3609747 18.6895728,40.3609747 21.217657,41.176318 C23.7438701,41.9916613 24.4671155,41.9420921 26.8548546,41.176318 C29.2963927,40.3785787 30.2109754,40.336885 32.8036185,41.176318 C35.174984,41.9420921 35.9005685,41.9916613 38.440816,41.176318 C40.9562693,40.3609747 41.9410245,40.3609747 44.4218593,41.176318 C45.4870791,41.5279348 46.3516053,41.7229686 47,41.7632725 L47,37.9807282 C46.4952252,38.2244047 45.4959676,38.0057445 44.2571876,37.5957565 Z" id="Path"></path>
            <path d="M44.2571876,30.5961645 C41.8446542,29.8077636 41.0353304,29.8077636 38.625136,30.5961645 C36.1438335,31.4118955 35.1581426,31.4118955 32.643625,30.5961645 C30.1052487,29.7804336 29.3866814,29.8341671 27.0082987,30.5961645 C24.4830213,31.4118955 23.5048155,31.4118955 21.0249164,30.5961645 C18.6100438,29.8077636 17.8049304,29.8077636 15.3900579,30.5961645 C12.9096909,31.4118955 11.9244679,31.4118955 9.40761118,30.5961645 C8.18193005,30.2015008 7.22477601,30 6.561879,30 C5.93781082,30 5.0003051,30.2019641 3.77181706,30.5961645 C2.62847176,30.9681304 1.71576036,31.1473967 1,31.1826014 L1,34.855012 L1.00982416,35 C1.43273093,34.7716324 2.38754589,34.5705948 3.61743738,34.1763943 C6.20165973,33.3393552 7.12185622,33.3861404 9.56807249,34.1763943 C11.9520691,34.9416342 12.6762501,34.9953678 15.2048022,34.1763943 C17.7169807,33.3615898 18.6895728,33.3615898 21.217657,34.1763943 C23.7438701,34.9911988 24.4671155,34.9416342 26.8548546,34.1763943 C29.2963927,33.3787289 30.2109754,33.3370391 32.8036185,34.1763943 C35.174984,34.9416342 35.9005685,34.9911988 38.440816,34.1763943 C40.9562693,33.3615898 41.9410245,33.3615898 44.4218593,34.1763943 C45.4870791,34.5279785 46.3516053,34.722531 47,34.7637576 L47,30.9806374 C46.4952252,31.2247545 45.4959676,31.0051881 44.2571876,30.5961645 Z" id="Path"></path>
            <polygon id="Path" points="40.3341716 23.6666667 40.3341716 21 37.6663313 21 37.6663313 23.6666667 35 23.6666667 35 26.3333333 37.6663313 26.3333333 37.6663313 29 40.3341716 29 40.3341716 26.3333333 43 26.3333333 43 23.6666667"></polygon>
            <path d="M35.6727561,17 C35.0732173,17.0931846 34.3868107,17.1130112 33.135512,17.8570012 L29,20.6351921 C29.9650867,21.3890954 30.7780292,22.1801735 31.3333808,23 L34.6218058,20.9415118 C34.6218058,20.9415118 35.8424748,20.1990087 35.9564575,19.2488228 C36.1025762,18.0453532 35.8485003,17.3910781 35.6727561,17 Z" id="Path"></path>
            <path d="M42.678521,20.7680665 L43.4247542,20.7680665 L43.4247542,27.6090369 C44.5658485,27.9392168 45.4870265,28.1065377 46,27.9262774 L46,20.5931604 C46,18.8298213 44.3943632,17.1048544 42.1606056,17 C42.034586,17.365875 41.9228982,18.0231115 42.0696738,19.1055661 C42.2070598,20.1099376 42.678521,20.7680665 42.678521,20.7680665 Z" id="Path"></path>
        </g>
    </g>
</svg>