<?xml version="1.0" encoding="UTF-8"?>
<svg width="80px" height="80px" viewBox="0 0 80 80" version="1.1" xmlns="http://www.w3.org/2000/svg" xmlns:xlink="http://www.w3.org/1999/xlink">
    <!-- Generator: Sketch 61.2 (89653) - https://sketch.com -->
    <title>map_icons</title>
    <desc>Created with Sketch.</desc>
    <g id="Page-1" stroke="none" stroke-width="1" fill="none" fill-rule="evenodd">
        <g id="circle-stroked" fill="#000000" fill-rule="nonzero">
            <path d="M40,0 C62.0917333,0 80,17.9082667 80,40 C80,62.0917333 62.0917333,80 40,80 C17.9082667,80 0,62.0917333 0,40 C0,17.9082667 17.9082667,0 40,0 Z M40,8.88853333 C22.8176,8.88853333 8.88906667,22.8176 8.88906667,40 C8.88906667,57.1824 22.8176,71.1114667 40,71.1114667 C57.1824,71.1114667 71.1109333,57.1824 71.1109333,40 C71.1109333,22.8176 57.1824,8.88853333 40,8.88853333 Z" id="path8564-5-6-4"></path>
        </g>
        <g id="circle_flooding_helpassigned" transform="translate(9.000000, 1.000000)" fill="#000000" fill-rule="nonzero">
            <path d="M6.19714353,63 C6.48217771,63 6.76721188,62.8897039 6.99523922,62.6691116 L9.5605468,60.5183367 C10.0736083,60.0771521 10.7576903,59.8565598 11.4417724,59.8565598 C12.1258544,59.8565598 12.8099364,60.0771521 13.3229979,60.5183367 L14.7481688,61.6764462 C15.717285,62.4485193 16.9144285,62.8897039 18.2825925,62.8897039 C19.6507566,62.8897039 20.8479001,62.4485193 21.8170163,61.6764462 L23.2421872,60.4631886 C23.7552487,60.022004 24.4393307,59.8014117 25.1234127,59.8014117 C25.8074948,59.8014117 26.4915768,60.022004 27.0046383,60.5183367 L28.4298092,61.6764462 C29.3989254,62.4485193 30.6530757,62.8897039 31.9642329,62.8897039 C33.2753901,62.8897039 34.5295405,62.4485193 35.4986567,61.6764462 L36.9238276,60.4631886 C37.4368891,60.022004 38.1209711,59.8014117 38.8050531,59.8014117 C39.4891352,59.8014117 40.1732172,60.022004 40.6862787,60.4631886 L42.1114496,61.6764462 C43.0805658,62.4485193 44.3347161,62.8897039 45.6458733,62.8897039 C47.0140374,62.8897039 48.2111809,62.4485193 49.1802971,61.6764462 L50.605468,60.4631886 C51.1185295,60.022004 51.8026115,59.8014117 52.4866935,59.8014117 C53.1707756,59.8014117 53.8548576,60.022004 54.3679191,60.4631886 L56.9332267,62.6139635 C57.161254,62.8345558 57.4462882,62.9448519 57.7313224,62.9448519 C58.0733634,62.9448519 58.4724112,62.7794077 58.7004385,62.5036673 C58.9284659,62.283075 59.0424796,61.9521866 58.9854727,61.6212982 C58.9854727,61.2904097 58.8144522,61.0146694 58.529418,60.7940771 L56.0781241,58.6984503 C55.1090079,57.8712292 53.8548576,57.4300446 52.5437004,57.4300446 C51.2325432,57.4300446 49.9783928,57.8712292 49.0092766,58.6984503 L47.5841057,59.9117079 C47.128051,60.2977444 46.443969,60.5183367 45.7028802,60.5183367 C45.0187982,60.5183367 44.3347161,60.2977444 43.8216546,59.8565598 L42.3964837,58.6984503 C41.4273675,57.8712292 40.1732172,57.4300446 38.86206,57.4300446 C38.4630121,57.4300446 38.0069574,57.4851927 37.6079096,57.5954888 L37.9499506,53.5696794 C40.2872308,52.521866 40.4582514,49.3784258 40.914306,46.1246895 C41.4843744,42.1540282 42.9095453,31.2898577 42.9095453,31.2898577 C43.0235589,30.2971924 42.3394769,29.4699713 41.3133539,29.3596752 C40.2872308,29.249379 39.4321283,29.9111559 39.3181147,30.9038212 L38.3489985,38.7899957 C38.2919916,39.0657361 38.0639643,39.2863284 37.7789301,39.2863284 L37.7219233,39.2863284 C37.4368891,39.2863284 37.1518549,39.010588 37.2088618,38.7348477 L37.6649164,28.5324541 C37.7219233,27.5397887 36.9238276,26.7125676 35.9547114,26.7125676 C34.9855952,26.6574196 34.1304927,27.4294926 34.0734858,28.3670099 L33.6174312,38.5694034 C33.6174312,38.8451438 33.332397,39.1208842 33.0473628,39.0657361 C32.7623286,39.0657361 32.5343013,38.8451438 32.5343013,38.5694034 L31.6791988,26.6574196 C31.6221919,25.6647543 30.7670894,24.9478293 29.7409664,25.0029774 C28.7148433,25.0581254 27.9737545,25.8853465 28.0307613,26.8780119 L28.7718502,38.238515 C28.7718502,38.5694034 28.5438228,38.8451438 28.2017818,38.7899957 L28.0307613,38.7899957 C27.7457272,38.7899957 27.5747066,38.5694034 27.5176998,38.3488112 L25.8645016,29.0287867 C25.6934811,28.0912695 24.7243649,27.4294926 23.7552487,27.5949368 C22.7861325,27.760381 22.1020505,28.6978983 22.273071,29.6354155 C22.273071,29.6354155 23.6982419,37.2458497 23.9262692,38.8451438 C24.1542966,40.499586 24.2683102,41.3819552 24.3253171,42.8709532 C24.3823239,43.6981743 23.641235,44.1945069 22.8431393,43.4224339 C22.8431393,43.4224339 21.3039548,41.6025475 20.3918454,40.7201783 C19.4797361,39.8378091 18.5106199,39.5069207 17.5985105,40.1135495 C16.6293943,40.7201783 16.3443602,41.988584 17.0284422,42.8709532 C17.0284422,42.8709532 20.9619138,49.1026855 23.3562009,51.6946449 C24.0972897,52.521866 25.0664059,53.3490871 26.0925289,53.7351237 L26.43457,57.5954888 C26.0355221,57.4851927 25.6364743,57.4300446 25.2374264,57.4300446 C23.9262692,57.4300446 22.6721188,57.8712292 21.7030026,58.6984503 L20.2778318,59.9117079 C19.8217771,60.2977444 19.1376951,60.5183367 18.4536131,60.5183367 C17.7125242,60.5183367 17.085449,60.2977444 16.5723875,59.8565598 L15.033203,58.6984503 C14.0640868,57.8712292 12.8099364,57.4300446 11.4987792,57.4300446 C10.187622,57.4300446 8.93347161,57.8712292 7.96435542,58.6984503 L5.39904784,60.8492251 C5.1710205,61.0698174 5,61.3455578 5,61.6764462 C5,62.0073347 5.05700683,62.3382231 5.28503417,62.5588154 C5.51306151,62.8345558 5.85510252,63 6.19714353,63 Z" id="Path"></path>
            <path d="M4.71762777,28.8504424 C4.88422101,28.8504424 5.05082393,28.7866563 5.18411787,28.659165 L6.68364566,27.416094 C6.98355218,27.1611063 7.38339531,27.0335745 7.78321909,27.0335138 C8.18304287,27.0334531 8.5828473,27.1608635 8.88267644,27.4157602 L9.71554108,28.0848571 C10.2818904,28.5309201 10.9815433,28.7857561 11.7811909,28.7856347 C12.5808384,28.7855134 13.2805687,28.5304649 13.8470535,28.08423 L14.6801261,27.3830125 C14.9800326,27.1280247 15.3798757,27.0004929 15.7796995,27.0004322 C16.1795233,27.0003715 16.5793277,27.127782 16.879152,27.4145465 L17.7120167,28.0836434 C18.278366,28.5297063 19.0113375,28.7845373 19.7776664,28.784421 C20.5439953,28.7843046 21.2770443,28.5292512 21.843529,28.0830163 L22.6766016,27.3817987 C22.9765082,27.126811 23.3763513,26.9992792 23.7761751,26.9992185 C24.1759988,26.9991578 24.5758033,27.1265682 24.8756324,27.3814649 L25.7084922,28.0824296 C26.2748415,28.5284926 27.0078131,28.7833235 27.774142,28.7832072 C28.5737896,28.7830858 29.2735199,28.5280374 29.8400046,28.0818025 L30.6730772,27.3805849 C30.9729837,27.1255972 31.3728269,26.9980654 31.7726506,26.9980047 C32.1724744,26.997944 32.5722788,27.1253544 32.872108,27.3802512 L34.3712585,28.622867 C34.5045138,28.7503178 34.6710974,28.8140281 34.8376906,28.8140028 C35.0376025,28.8139725 35.2708475,28.7183337 35.4041463,28.5589746 C35.5374402,28.4314833 35.6041066,28.2402665 35.5708169,28.0490649 C35.5708459,27.8578582 35.4709142,27.6985345 35.3043403,27.5710886 L33.8718222,26.3603305 C33.3054777,25.8823998 32.5725062,25.6275688 31.8061773,25.6276852 C31.0398483,25.6278015 30.3067994,25.882855 29.7403098,26.3609576 L28.9072372,27.0621752 C28.6406542,27.2852901 28.2408111,27.4128219 27.8076686,27.4128877 C27.4078448,27.4129483 27.0080404,27.2855379 26.7082113,27.0306412 L25.8753466,26.3615443 C25.3090022,25.8836136 24.5760306,25.6287826 23.8097017,25.6288989 C23.5764711,25.6289343 23.3099171,25.6608426 23.0766769,25.7246135 L23.2769419,23.3982353 C24.6430983,22.7925402 24.74333,20.9760616 25.0101645,19.0958222 C25.3436992,16.8012916 26.1776182,10.5232127 26.1776182,10.5232127 C26.2443425,9.94958256 25.8445913,9.47162656 25.2448653,9.40798204 C24.6451393,9.34433751 24.1453016,9.72682672 24.0785772,10.3004568 L23.5114686,14.8576352 C23.4781257,15.0169791 23.3448318,15.1444705 23.1782386,15.1444958 L23.1449199,15.1445008 C22.9783267,15.1445261 22.8117576,14.9852125 22.8451004,14.8258686 L23.1125444,8.93028902 C23.1459501,8.35666395 22.6795616,7.87871807 22.1131445,7.87880404 C21.5467324,7.84702224 21.0468849,8.293247 21.0134841,8.8350043 L20.7460401,14.7305838 C20.7460159,14.8899227 20.5793985,15.0492869 20.4128101,15.0174444 C20.2462169,15.0174697 20.1129616,14.8900188 20.1129858,14.7306799 L19.6142508,7.84731556 C19.5810192,7.2737006 19.0813023,6.85949534 18.4815618,6.89145415 C17.8818213,6.92341296 17.4486063,7.40149539 17.4818379,7.97511035 L17.913984,14.539807 C17.913955,14.7310137 17.7806562,14.8903728 17.5807492,14.8585354 L17.4807932,14.8585506 C17.3142,14.8585759 17.2142634,14.7311199 17.1809641,14.6036539 L16.2155407,9.2181459 C16.1156669,8.67640884 15.549308,8.29408146 14.9828764,8.38977078 C14.4164449,8.48546009 14.0165389,9.02727301 14.1164126,9.56901008 C14.1164126,9.56901008 14.9487114,13.9666371 15.0818457,14.8907825 C15.2149752,15.8467956 15.2815352,16.35667 15.3147232,17.2170949 C15.3479693,17.6951066 14.9147834,17.9819823 14.44839,17.5359042 C14.44839,17.5359042 13.5489461,16.4844041 13.0159251,15.9746005 C12.4829041,15.464797 11.9165161,15.2736763 11.3833645,15.6243028 C10.8168943,15.9749343 10.6501898,16.7079185 11.0499362,17.2177423 C11.0499362,17.2177423 13.3483765,20.8184523 14.7475324,22.3160255 C15.1806022,22.7939765 15.7469467,23.2719072 16.3466485,23.4948906 L16.5462219,25.7256048 C16.313001,25.6619046 16.0797753,25.6300722 15.8465448,25.6301076 C15.0802159,25.6302239 14.3471669,25.8852774 13.7806773,26.3633801 L12.9476047,27.0645977 C12.6810217,27.2877126 12.2811786,27.4152444 11.8813548,27.4153051 C11.4482124,27.4153708 11.0817266,27.2879553 10.7818974,27.0330586 L9.88239549,26.3639718 C9.31605102,25.8860411 8.58307945,25.6312101 7.81675054,25.6313264 C7.05042163,25.6314428 6.31737268,25.8864963 5.75088311,26.3645989 L4.25135532,27.6076699 C4.11806138,27.7351612 4.01805222,27.8945153 4.01805222,28.085722 C4.01805222,28.2769286 4.05131285,28.4681302 4.18456809,28.5955811 C4.3178185,28.7548998 4.51771588,28.8504424 4.71762777,28.8504424 Z" id="Path" transform="translate(19.798672, 17.870083) rotate(147.000000) translate(-19.798672, -17.870083) "></path>
            <path d="M51.5289209,64.5940594 C50.7401034,63.5544554 49.7192808,63 48.6520571,63 C47.5848334,63 46.5640108,63.5544554 45.7751933,64.5940594 L44.6151676,66.1188119 C44.2439594,66.6039604 43.687147,66.8811881 43.0839336,66.8811881 C42.5271213,66.8811881 41.9703089,66.6039604 41.5526997,66.049505 L40.392674,64.5940594 C39.6038565,63.5544554 38.5830338,63 37.5158102,63 C36.4485865,63 35.4741649,63.5544554 34.6389464,64.5940594 L33.4325196,66.1188119 C33.0613114,66.6039604 32.504499,66.8811881 31.9476867,66.8811881 C31.3444733,66.8811881 30.834062,66.6039604 30.4164527,66.049505 L29.256427,64.5940594 C28.4212085,63.5544554 27.4467869,63 26.3795632,63 C25.3123396,63 24.2915169,63.5544554 23.5026994,64.5940594 L22.3426737,66.1188119 C21.9714655,66.6039604 21.4146531,66.8811881 20.8578408,66.8811881 C20.2546274,66.8811881 19.7442161,66.6039604 19.3266068,66.049505 L18.1665811,64.5940594 C17.3777636,63.5544554 16.356941,63 15.2897173,63 C14.2224936,63 13.201671,63.5544554 12.4128535,64.5940594 L10.3248072,67.2970297 C10.1392031,67.5742574 10,67.9207921 10,68.3366337 C10,68.7524752 10.046401,69.1683168 10.2320051,69.4455446 C10.4176093,69.7920792 10.6960154,70 11.0208226,70 C11.2528278,70 11.4848329,69.8613861 11.670437,69.5841584 L13.7584833,66.8811881 C14.1760926,66.3267327 14.732905,66.049505 15.2897173,66.049505 C15.8465296,66.049505 16.403342,66.3267327 16.8209513,66.8811881 L17.980977,68.3366337 C18.7697945,69.3069307 19.7442161,69.8613861 20.8578408,69.8613861 C21.9714655,69.8613861 22.9458871,69.3069307 23.7347046,68.3366337 L24.8947303,66.8118812 C25.3123396,66.2574257 25.8691519,65.980198 26.4259642,65.980198 C26.9827766,65.980198 27.5395889,66.2574257 27.9571982,66.8811881 L29.1172239,68.3366337 C29.9060414,69.3069307 30.9268641,69.8613861 31.9940877,69.8613861 C33.0613114,69.8613861 34.082134,69.3069307 34.8709515,68.3366337 L36.0309772,66.8118812 C36.4485865,66.2574257 37.0053988,65.980198 37.5622112,65.980198 C38.1190235,65.980198 38.6758359,66.2574257 39.0934451,66.8118812 L40.2534709,68.3366337 C41.0422884,69.3069307 42.063111,69.8613861 43.1303347,69.8613861 C44.2439594,69.8613861 45.218381,69.3069307 46.0071985,68.3366337 L47.1672242,66.8118812 C47.5848334,66.2574257 48.1416458,65.980198 48.6984581,65.980198 C49.2552705,65.980198 49.8120828,66.2574257 50.2296921,66.8118812 L52.3177384,69.5148515 C52.5033425,69.7920792 52.7353477,69.9306931 52.9673528,69.9306931 C53.245759,69.9306931 53.5705662,69.7227723 53.7561703,69.3762376 C53.9417744,69.0990099 54.0345765,68.6831683 53.9881754,68.2673267 C53.9881754,67.8514851 53.8489724,67.5049505 53.6169672,67.2277228 L51.5289209,64.5940594 Z" id="Path"></path>
        </g>
    </g>
</svg>