<?xml version="1.0" encoding="UTF-8"?>
<svg width="80px" height="80px" viewBox="0 0 80 80" version="1.1" xmlns="http://www.w3.org/2000/svg" xmlns:xlink="http://www.w3.org/1999/xlink">
    <!-- Generator: Sketch 61.2 (89653) - https://sketch.com -->
    <title>map_icons</title>
    <desc>Created with Sketch.</desc>
    <g id="Page-1" stroke="none" stroke-width="1" fill="none" fill-rule="evenodd">
        <g id="circle-stroked" fill="#000000" fill-rule="nonzero">
            <path d="M40,0 C62.0917333,0 80,17.9082667 80,40 C80,62.0917333 62.0917333,80 40,80 C17.9082667,80 0,62.0917333 0,40 C0,17.9082667 17.9082667,0 40,0 Z M40,8.88853333 C22.8176,8.88853333 8.88906667,22.8176 8.88906667,40 C8.88906667,57.1824 22.8176,71.1114667 40,71.1114667 C57.1824,71.1114667 71.1109333,57.1824 71.1109333,40 C71.1109333,22.8176 57.1824,8.88853333 40,8.88853333 Z" id="path8564-5-6-4"></path>
        </g>
        <g id="circle_rescue_vehicle" transform="translate(15.000000, 17.000000)" fill="#000000">
            <path d="M8.24539877,31.2121711 C10.601227,31.2121711 12.4417178,33.2164127 12.4417178,35.6060855 C12.4417178,38.0728445 10.601227,40 8.24539877,40 C5.88957055,40 4.04907975,38.0728445 4.04907975,35.6060855 C4.04907975,33.2164127 5.88957055,31.2121711 8.24539877,31.2121711 Z M13.6196319,3.76947717 C13.0306748,3.53821851 12.6625767,4.38616692 13.2515337,4.69451179 L17.2269939,6.3904086 C17.7423313,6.62166726 18.1104294,5.77371885 17.5214724,5.5424602 L13.6196319,3.76947717 Z M44.2453988,6.93001214 L22.0858896,6.93001214 C21.9386503,5.92789129 21.0552147,5.07994289 20.0245399,5.07994289 C18.9202454,5.07994289 18.1104294,5.92789129 17.9631902,6.93001214 L15.7546012,6.93001214 L13.6196319,9.47385736 L47.7055215,9.47385736 C47.190184,8.0092192 45.8650307,6.93001214 44.2453988,6.93001214 Z M13.398773,9.93637467 L13.398773,12.5573061 C10.5276074,12.5573061 9.42331288,13.0198234 7.36196319,15.5636686 L2.50306748,21.4222213 C1.10429448,23.0410319 0,25.1223598 0,27.2807739 L0,29.0537569 C0,31.1350848 0.809815951,33.9101887 1.76687117,33.9101887 L3.4601227,33.9101887 C4.12269939,31.7517746 6.03680982,30.2100502 8.3190184,30.2100502 C10.5276074,30.2100502 12.4417178,31.7517746 13.1042945,33.9101887 L33.0552147,33.9101887 C33.7177914,31.7517746 35.6319018,30.2100502 37.9141104,30.2100502 C40.1226994,30.2100502 42.0368098,31.7517746 42.6993865,33.9101887 C42.6993865,33.9101887 43.8773006,33.9101887 45.3496933,33.9101887 C46.8220859,33.9101887 48,32.1372057 48,30.0558778 L48,10.8614093 C48,10.5530644 47.9263804,10.1676333 47.8527607,9.93637467 L13.398773,9.93637467 Z M20.7607362,3.84656338 L23.2638037,0.223511101 C23.6319018,-0.31609243 24.3680982,0.223511101 24,0.763114633 L21.4969325,4.38616692 C21.1288344,4.92577045 20.392638,4.3090807 20.7607362,3.84656338 Z M26.4294479,3.76947717 C26.9447853,3.53821851 27.3128834,4.38616692 26.7239264,4.69451179 L22.8220859,6.3904086 C22.2331288,6.62166726 21.8650307,5.77371885 22.4539877,5.5424602 L26.4294479,3.76947717 Z M19.2883436,3.84656338 L16.7852761,0.223511101 C16.4171779,-0.31609243 15.6809816,0.223511101 16.0490798,0.763114633 L18.5521472,4.38616692 C18.8466258,4.92577045 19.6564417,4.3090807 19.2883436,3.84656338 Z M31.4355828,17.799169 L33.5705521,17.799169 C33.8650307,17.799169 34.1595092,18.1075139 34.1595092,18.492945 L34.1595092,20.7284453 C34.1595092,21.1138764 33.8650307,21.4222213 33.5705521,21.4222213 L31.4355828,21.4222213 L31.4355828,23.5806354 C31.4355828,23.8889803 31.1411043,24.1973251 30.7730061,24.1973251 L28.6380368,24.1973251 C28.3435583,24.1973251 28.0490798,23.8889803 28.0490798,23.5806354 L28.0490798,21.4222213 L26.0613497,21.4222213 C25.6932515,21.4222213 25.398773,21.1138764 25.398773,20.7284453 L25.398773,18.492945 C25.398773,18.1075139 25.6932515,17.799169 26.0613497,17.799169 L28.0490798,17.799169 L28.0490798,15.7178411 C28.0490798,15.33241 28.3435583,15.0240651 28.6380368,15.0240651 L30.7730061,15.0240651 C31.1411043,15.0240651 31.4355828,15.33241 31.4355828,15.7178411 L31.4355828,17.799169 Z M30.7730061,15.7178411 L28.6380368,15.7178411 L28.6380368,18.492945 L26.0613497,18.492945 L26.0613497,20.7284453 L28.6380368,20.7284453 L28.6380368,23.5806354 L30.7730061,23.5806354 L30.7730061,20.7284453 L33.5705521,20.7284453 L33.5705521,18.492945 L30.7730061,18.492945 L30.7730061,15.7178411 Z M29.8159509,11.6322715 C34.0122699,11.6322715 37.4723926,15.1782375 37.4723926,19.6492382 C37.4723926,24.0431527 34.0122699,27.666205 29.8159509,27.666205 C25.5460123,27.666205 22.1595092,24.0431527 22.1595092,19.6492382 C22.1595092,15.1782375 25.5460123,11.6322715 29.8159509,11.6322715 Z M23.9263804,19.6492382 C23.9263804,23.0410319 26.5766871,25.7390495 29.8159509,25.7390495 C33.0552147,25.7390495 35.6319018,23.0410319 35.6319018,19.6492382 C35.6319018,11.5551853 23.9263804,11.5551853 23.9263804,19.6492382 Z M13.5460123,20.7284453 C13.5460123,21.7305661 12.7361963,22.6556008 11.7055215,22.6556008 L7.50920245,22.6556008 C6.55214724,22.6556008 5.22699387,21.7305661 5.88957055,20.959704 C10.601227,15.1782375 13.6196319,11.2468404 13.5460123,20.7284453 Z M37.8404908,30.9809124 C40.1226994,30.9809124 42.0368098,32.9080679 42.0368098,35.3748269 C42.0368098,37.7644997 40.1226994,39.7687413 37.8404908,39.7687413 C35.4846626,39.7687413 33.6441718,37.7644997 33.6441718,35.3748269 C33.6441718,32.9080679 35.4846626,30.9809124 37.8404908,30.9809124 Z" id="Shape"></path>
        </g>
    </g>
</svg>