<?xml version="1.0" encoding="UTF-8"?>
<svg width="80px" height="80px" viewBox="0 0 80 80" version="1.1" xmlns="http://www.w3.org/2000/svg" xmlns:xlink="http://www.w3.org/1999/xlink">
    <!-- Generator: Sketch 61.2 (89653) - https://sketch.com -->
    <title>map_icons</title>
    <desc>Created with Sketch.</desc>
    <g id="Page-1" stroke="none" stroke-width="1" fill="none" fill-rule="evenodd">
        <g id="circle" transform="translate(3.000000, 3.000000)" fill="#000000" fill-opacity="0.501720935" fill-rule="nonzero">
            <path d="M75,37.5 C75,58.2109615 58.2109615,75 37.5,75 C16.7890385,75 0,58.2109615 0,37.5 C0,16.7890385 16.7890385,0 37.5,0 C58.2109615,0 75,16.7890385 75,37.5 Z" id="Path"></path>
        </g>
        <g id="whitecircle" transform="translate(5.000000, 5.000000)" fill="#B6D0FF" fill-rule="nonzero">
            <path d="M71,35.5 C71,55.1063769 55.1063769,71 35.5,71 C15.8936231,71 0,55.1063769 0,35.5 C0,15.8936231 15.8936231,0 35.5,0 C55.1063769,0 71,15.8936231 71,35.5 Z" id="Path"></path>
        </g>
        <g id="circle-flood-rescue-colored" transform="translate(11.000000, 8.000000)" fill="#0003FF" fill-rule="nonzero">
            <path d="M26.0164968,6 C26.0092188,6.10855406 26,6.21638443 26,6.32855695 C26,8.90924881 27.344493,11 29.0009704,11 C30.6574478,11 32,8.90924881 32,6.32855695 C32,6.21638443 31.9888404,6.10710667 31.9849588,6 L26.0164968,6 Z" id="Path"></path>
            <path d="M33.6539772,4.21213641 C33.3888807,2.37161484 31.6487434,0 28.505456,0 C25.4218634,0 23.6252407,2.38164493 23.3421715,4.21213641 L22,4.21213641 L22,5 L35,5 L35,4.21213641 L33.6539772,4.21213641 Z" id="Path"></path>
            <path d="M33.8928006,17.205079 L34.8747304,17.205079 L34.8747304,24.7156014 C35.8688186,25.101305 36.9254353,25.5314496 38,26 L38,16.9636713 C38,14.5276482 36.1501971,12.1448446 33.2113552,12 C33.0469283,12.5053102 32.8975545,13.4133323 33.0920878,14.9089627 C33.2733048,16.2965082 33.8928006,17.205079 33.8928006,17.205079 Z" id="Path"></path>
            <path d="M50.138298,53.5962955 C47.6213244,52.807734 46.776055,52.807734 44.2619351,53.5962955 C41.6724771,54.4113951 40.6434287,54.4113951 38.0191555,53.5962955 C35.3703404,52.7817374 34.6209558,52.8348137 32.1393681,53.5962955 C29.5036801,54.4113951 28.4831928,54.4113951 25.8960179,53.5962955 C23.3761905,52.807734 22.5360578,52.807734 20.0162305,53.5962955 C17.4279141,54.4113951 16.4000071,54.4113951 13.773451,53.5962955 C12.4944174,53.2014731 11.4956184,53 10.8033079,53 C10.1520909,53 9.17440934,53.2014731 7.89195134,53.5962955 C6.69909989,53.9678293 5.74653096,54.1476386 5,54.1823007 L5,57.8548527 L5.01027336,58 C5.45145718,57.7719887 6.44797327,57.5710572 7.73100201,57.1762348 C10.4277595,56.340013 11.3877481,56.3860485 13.9401077,57.1762348 C16.4274028,57.9415078 17.1830656,57.9951256 19.8221781,57.1762348 C22.4430268,56.3605936 23.4583774,56.3605936 26.0963484,57.1762348 C28.7326072,57.9913345 29.4871286,57.9415078 31.9789895,57.1762348 C34.5267833,56.3784662 35.4804937,56.3367634 38.1858123,57.1762348 C40.660551,57.9415078 41.4179261,57.9913345 44.0678827,57.1762348 C46.6927266,56.3605936 47.7206335,56.3605936 50.3095207,57.1762348 C51.420756,57.527188 52.3230996,57.722162 53,57.7627816 L53,53.9808276 C52.4743463,54.2245451 51.4316001,54.0062825 50.138298,53.5962955 Z" id="Path"></path>
            <path d="M50.138298,46.5962955 C47.6213244,45.807734 46.776055,45.807734 44.2619351,46.5962955 C41.6724771,47.4113951 40.6434287,47.4113951 38.0191555,46.5962955 C35.3703404,45.7806542 34.6209558,45.8342721 32.1393681,46.5962955 C29.5036801,47.4113951 28.4831928,47.4113951 25.8960179,46.5962955 C23.3761905,45.807734 22.5360578,45.807734 20.0162305,46.5962955 C17.4279141,47.4113951 16.4000071,47.4113951 13.773451,46.5962955 C12.4944174,46.2014731 11.4956184,46 10.8033079,46 C10.1520909,46 9.17440934,46.2014731 7.89195134,46.5962955 C6.69909989,46.9678293 5.74653096,47.1476386 5,47.1823007 L5,50.8548527 L5.01027336,51 C5.45145718,50.7714471 6.44797327,50.5705156 7.73100201,50.1762348 C10.4277595,49.340013 11.3877481,49.3865901 13.9401077,50.1762348 C16.4274028,50.9420494 17.1830656,50.9956672 19.8221781,50.1762348 C22.4430268,49.3616768 23.4583774,49.3616768 26.0963484,50.1762348 C28.7326072,50.9913345 29.4871286,50.9420494 31.9789895,50.1762348 C34.5267833,49.3790078 35.4804937,49.3367634 38.1858123,50.1762348 C40.660551,50.9420494 41.4179261,50.9913345 44.0678827,50.1762348 C46.6927266,49.3616768 47.7206335,49.3616768 50.3095207,50.1762348 C51.420756,50.5277296 52.3230996,50.7227036 53,50.7633232 L53,46.9813692 C52.4743463,47.2245451 51.4316001,47.0051993 50.138298,46.5962955 Z" id="Path"></path>
            <g id="Group" transform="translate(9.000000, 24.000000)">
                <path d="M20.4744179,0.345294118 L20.4744179,19.5917647 C21.1758358,19.5052941 21.937791,19.3011765 22.9203582,18.9770588 C25.4512836,18.1494118 26.2155672,18.0917647 28.9170448,18.9770588 C31.5934925,19.8623529 32.6424179,19.8623529 35.2839403,18.9770588 C35.7862836,18.8094118 36.2216866,18.6758824 36.6192537,18.5735294 C37.8276716,16.1435294 38.9010448,13.6394118 38.8684478,12.5029412 C38.7025522,6.68058824 24.1444925,1.54823529 20.4744179,0.345294118 Z" id="Path"></path>
                <path d="M18.9615672,0.294705882 C15.5877761,1.38941176 0.580343284,6.58882353 0.412701493,12.5029412 C0.378940299,13.6341176 1.443,16.1205882 2.64501493,18.5411765 C3.10602985,18.6482353 3.61535821,18.7882353 4.18929851,18.9770588 C6.86749254,19.8623529 7.91583582,19.8623529 10.556194,18.9770588 C13.1261194,18.1205882 13.9829552,18.1205882 16.5528806,18.9770588 C17.5168209,19.3005882 18.2671343,19.5041176 18.9621493,19.5911765 L18.9621493,0.294705882 L18.9615672,0.294705882 Z" id="Path"></path>
            </g>
            <polygon id="Path" points="29.6670035 18.3335017 29.6670035 16 27.3329965 16 27.3329965 18.3335017 25 18.3335017 25 20.6664983 27.3329965 20.6664983 27.3329965 23 29.6670035 23 29.6670035 20.6664983 32 20.6664983 32 18.3335017"></polygon>
            <path d="M26.0137939,13 C26.0077966,13.0654292 26,13.1308585 26,13.1962877 C26,14.7464037 27.1209068,16 28.5008996,16 C29.8802927,16 31,14.7450116 31,13.1962877 C31,13.1301624 30.9904042,13.0654292 30.9874055,13 L26.0137939,13 Z" id="Path"></path>
            <path d="M22.1260094,24.7143973 L22.1260094,17.1877978 L23.1079898,17.1877978 C23.1079898,17.1877978 23.7269385,16.2822436 23.9081648,14.8993047 C24.1021291,13.40864 23.9533266,12.5041794 23.7888912,12 C20.8493191,12.1443637 19,14.5192563 19,16.9471916 L19,26 C20.073462,25.5313647 21.1289751,25.1004609 22.1260094,24.7143973 Z" id="Path"></path>
        </g>
    </g>
</svg>