<?xml version="1.0" encoding="UTF-8"?>
<svg width="80px" height="80px" viewBox="0 0 80 80" version="1.1" xmlns="http://www.w3.org/2000/svg" xmlns:xlink="http://www.w3.org/1999/xlink">
    <!-- Generator: Sketch 61.2 (89653) - https://sketch.com -->
    <title>map_icons</title>
    <desc>Created with Sketch.</desc>
    <g id="Page-1" stroke="none" stroke-width="1" fill="none" fill-rule="evenodd">
        <g id="circle-stroked" fill="#000000" fill-rule="nonzero">
            <path d="M40,0 C62.0917333,0 80,17.9082667 80,40 C80,62.0917333 62.0917333,80 40,80 C17.9082667,80 0,62.0917333 0,40 C0,17.9082667 17.9082667,0 40,0 Z M40,8.88853333 C22.8176,8.88853333 8.88906667,22.8176 8.88906667,40 C8.88906667,57.1824 22.8176,71.1114667 40,71.1114667 C57.1824,71.1114667 71.1109333,57.1824 71.1109333,40 C71.1109333,22.8176 57.1824,8.88853333 40,8.88853333 Z" id="path8564-5-6-4"></path>
        </g>
        <g id="circle_rescue_with_person" transform="translate(19.000000, 16.000000)" fill="#000000">
            <circle id="Oval" fill-rule="nonzero" cx="3.5" cy="3.5" r="3.5"></circle>
            <path d="M2.4684626,24.7601917 C2.66789321,24.9238345 2.89867245,25 3.12544973,25 C3.47562053,25 3.8204554,24.8175044 4.04056276,24.471366 L7.78772384,18.5877675 C8.04384877,18.1858247 8.07052845,17.6519119 7.85509004,17.2198045 L5.08507224,11.6499175 C4.7795899,11.0368227 4.09325513,10.8188838 3.55099063,11.1635139 C3.00872613,11.5081441 2.81596544,12.2848816 3.12078079,12.8979764 L5.5392938,17.7597502 L2.21233767,22.9834988 C1.84882703,23.5536091 1.96354966,24.3491995 2.4684626,24.7601917 Z" id="Path" fill-rule="nonzero"></path>
            <path d="M3,35.3974313 C3,36.2821976 3.67186109,37 4.50066785,37 C5.32813891,37 6,36.2821976 6,35.3974313 L6,34.9079558 L3,31 L3,35.3974313 Z" id="Path" fill-rule="nonzero"></path>
            <path d="M4.68544162,17.1626907 L2.40886976,12.4194225 C2.02507485,11.6177434 2.26805763,10.5987509 2.95116018,10.1487663 C3.16401572,10.008242 3.40503368,9.93452442 3.64736153,9.93452442 C4.16083458,9.93452442 4.63632111,10.2608785 4.88781811,10.7845807 L7,15.186137 L7,13.446094 C7,11.0003583 5.42486901,9 3.49934506,9 C1.57513099,9.00076789 0,11.0018941 0,13.4468619 L0,24 L1.421875,24 C1.19723054,23.4647794 1.21884356,22.8074639 1.53648952,22.2899048 L4.68544162,17.1626907 Z" id="Path" fill-rule="nonzero"></path>
            <polygon id="Path" fill-rule="nonzero" points="7 20 4 25 7 25"></polygon>
            <path d="M5.6559566,28.3020074 L5.6559566,23 L4.44517017,23 C4.44517017,23 3.39061425,24.1790961 2,23.7316362 L2,28.9323764 C2,29.3390154 2.1464661,29.7330941 2.41254618,30.0486711 L7.75611773,36.3531457 C8.11821448,36.7794101 8.64305134,37 9.1727704,37 C9.57962068,37 9.98972576,36.8696871 10.3290389,36.6012112 C11.1101914,35.9849725 11.2265506,34.8749579 10.586982,34.1205562 L5.6559566,28.3020074 Z" id="Path" fill-rule="nonzero"></path>
            <circle id="Oval" fill-rule="nonzero" cx="37.5" cy="3.5" r="3.5"></circle>
            <path d="M35.4688211,24.7601917 C35.667594,24.9238345 35.898384,25 36.1258389,25 C36.475359,25 36.82021,24.8175044 37.0409947,24.471366 L40.7869966,18.5877675 C41.0438005,18.1858247 41.0704814,17.6519119 40.8557,17.2198045 L38.0848859,11.6499175 C37.7793893,11.0368227 37.0930225,10.8188838 36.5507326,11.1635139 C36.0084428,11.5081441 35.8156732,12.2848816 36.1205027,12.8979764 L38.5397956,17.7597502 L35.2120172,22.9834988 C34.8491566,23.5536091 34.9632176,24.3491995 35.4688211,24.7601917 Z" id="Path" fill-rule="nonzero"></path>
            <path d="M37,35.3974313 C37,36.2821976 37.6725289,37 38.5006679,37 C39.3288068,37 40,36.2821976 40,35.3974313 L40,34.9079558 L37,31 L37,35.3974313 Z" id="Path" fill-rule="nonzero"></path>
            <path d="M38.6850033,17.1631086 L36.4092993,12.4195976 C36.0248854,11.6178774 36.2678454,10.5988327 36.9508841,10.1488251 C37.1643746,10.0082937 37.40537,9.93457226 37.6470203,9.93457226 C38.1604453,9.93457226 38.6358874,10.260943 38.8880157,10.7846721 L41,15.1864537 L41,13.4463216 C41,11.0004608 39.4250164,9 37.4990177,9 C35.5749836,9 34,11.0004608 34,13.4463216 L34,24 L35.4210871,24 C35.1971185,23.464752 35.2180747,22.8074029 35.5356909,22.2898172 L38.6850033,17.1631086 Z" id="Path" fill-rule="nonzero"></path>
            <polygon id="Path" fill-rule="nonzero" points="41 20 38 25 41 25"></polygon>
            <path d="M43.5869931,34.1205562 L38.6551476,28.3020074 L38.6551476,23 L37.4451733,23 C37.4451733,23 36.3914298,24.1790961 35,23.7316362 L35,28.9323764 C35,29.3390154 35.1464663,29.7330941 35.4133604,30.0486711 L40.7561252,36.3531457 C41.1182224,36.7794101 41.6438737,37 42.1735934,37 C42.5796305,37 42.9897361,36.8696871 43.3298634,36.6012112 C44.1110169,35.9849725 44.2257489,34.8749579 43.5869931,34.1205562 Z" id="Path" fill-rule="nonzero"></path>
            <rect id="Rectangle" fill-rule="nonzero" x="15" y="21" width="18" height="2"></rect>
            <polygon id="Path" fill-rule="nonzero" points="9 23 16 23 16 21.641791 9 20"></polygon>
            <polygon id="Path" fill-rule="nonzero" points="20.2446563 17 23.7410939 17 23.7410939 11.7955641 29 11.7955641 29 8.20293582 23.7410939 8.20293582 23.7410939 3 20.2446563 3 20.2446563 8.20293582 15 8.20293582 15 11.7955641 20.2446563 11.7955641"></polygon>
            <g id="circle_rescue_vehicle" transform="translate(8.000000, 29.000000)">
                <path d="M4.63803681,17.9469984 C5.96319018,17.9469984 6.99846626,19.0994373 6.99846626,20.4734992 C6.99846626,21.8918856 5.96319018,23 4.63803681,23 C3.31288344,23 2.27760736,21.8918856 2.27760736,20.4734992 C2.27760736,19.0994373 3.31288344,17.9469984 4.63803681,17.9469984 Z M7.66104294,2.16744937 C7.3297546,2.03447564 7.12269939,2.52204598 7.45398773,2.69934428 L9.69018405,3.67448495 C9.98006135,3.80745868 10.1871166,3.31988834 9.85582822,3.18691461 L7.66104294,2.16744937 Z M24.8880368,3.98475698 L12.4233129,3.98475698 C12.3404908,3.40853749 11.8435583,2.92096716 11.2638037,2.92096716 C10.642638,2.92096716 10.1871166,3.40853749 10.1042945,3.98475698 L8.86196319,3.98475698 L7.66104294,5.44746798 L26.8343558,5.44746798 C26.5444785,4.60530104 25.7990798,3.98475698 24.8880368,3.98475698 Z M7.53680982,5.71341543 L7.53680982,7.22045101 C5.92177914,7.22045101 5.3006135,7.48639847 4.14110429,8.94910947 L1.40797546,12.3177772 C0.621165644,13.2485933 0,14.4453569 0,15.686445 L0,16.7059102 C0,17.9026738 0.455521472,19.4983585 0.993865031,19.4983585 L1.94631902,19.4983585 C2.3190184,18.2572704 3.39570552,17.3707789 4.67944785,17.3707789 C5.92177914,17.3707789 6.99846626,18.2572704 7.37116564,19.4983585 L18.5935583,19.4983585 C18.9662577,18.2572704 20.0429448,17.3707789 21.3266871,17.3707789 C22.5690184,17.3707789 23.6457055,18.2572704 24.0184049,19.4983585 C24.0184049,19.4983585 24.6809816,19.4983585 25.5092025,19.4983585 C26.3374233,19.4983585 27,18.4788933 27,17.2821297 L27,6.24531034 C27,6.06801204 26.958589,5.84638916 26.9171779,5.71341543 L7.53680982,5.71341543 Z M11.6779141,2.21177395 L13.0858896,0.128518883 C13.2929448,-0.181753148 13.7070552,0.128518883 13.5,0.438790914 L12.0920245,2.52204598 C11.8849693,2.83231801 11.4708589,2.4777214 11.6779141,2.21177395 Z M14.8665644,2.16744937 C15.1564417,2.03447564 15.3634969,2.52204598 15.0322086,2.69934428 L12.8374233,3.67448495 C12.506135,3.80745868 12.2990798,3.31988834 12.6303681,3.18691461 L14.8665644,2.16744937 Z M10.8496933,2.21177395 L9.44171779,0.128518883 C9.23466258,-0.181753148 8.82055215,0.128518883 9.02760736,0.438790914 L10.4355828,2.52204598 C10.601227,2.83231801 11.0567485,2.4777214 10.8496933,2.21177395 Z M17.6825153,10.2345222 L18.8834356,10.2345222 C19.0490798,10.2345222 19.2147239,10.4118205 19.2147239,10.6334433 L19.2147239,11.918856 C19.2147239,12.1404789 19.0490798,12.3177772 18.8834356,12.3177772 L17.6825153,12.3177772 L17.6825153,13.5588654 C17.6825153,13.7361637 17.5168712,13.913462 17.309816,13.913462 L16.1088957,13.913462 C15.9432515,13.913462 15.7776074,13.7361637 15.7776074,13.5588654 L15.7776074,12.3177772 L14.6595092,12.3177772 C14.452454,12.3177772 14.2868098,12.1404789 14.2868098,11.918856 L14.2868098,10.6334433 C14.2868098,10.4118205 14.452454,10.2345222 14.6595092,10.2345222 L15.7776074,10.2345222 L15.7776074,9.03775862 C15.7776074,8.81613574 15.9432515,8.63883744 16.1088957,8.63883744 L17.309816,8.63883744 C17.5168712,8.63883744 17.6825153,8.81613574 17.6825153,9.03775862 L17.6825153,10.2345222 Z M17.309816,9.03775862 L16.1088957,9.03775862 L16.1088957,10.6334433 L14.6595092,10.6334433 L14.6595092,11.918856 L16.1088957,11.918856 L16.1088957,13.5588654 L17.309816,13.5588654 L17.309816,11.918856 L18.8834356,11.918856 L18.8834356,10.6334433 L17.309816,10.6334433 L17.309816,9.03775862 Z M16.7714724,6.6885561 C19.1319018,6.6885561 21.0782209,8.72748659 21.0782209,11.298312 C21.0782209,13.8248128 19.1319018,15.9080679 16.7714724,15.9080679 C14.3696319,15.9080679 12.4647239,13.8248128 12.4647239,11.298312 C12.4647239,8.72748659 14.3696319,6.6885561 16.7714724,6.6885561 Z M13.458589,11.298312 C13.458589,13.2485933 14.9493865,14.7999535 16.7714724,14.7999535 C18.5935583,14.7999535 20.0429448,13.2485933 20.0429448,11.298312 C20.0429448,6.64423153 13.458589,6.64423153 13.458589,11.298312 Z M7.6196319,11.918856 C7.6196319,12.4950755 7.16411043,13.0269704 6.58435583,13.0269704 L4.22392638,13.0269704 C3.68558282,13.0269704 2.94018405,12.4950755 3.31288344,12.0518298 C5.96319018,8.72748659 7.66104294,6.46693322 7.6196319,11.918856 Z M21.2852761,17.8140246 C22.5690184,17.8140246 23.6457055,18.922139 23.6457055,20.3405255 C23.6457055,21.7145873 22.5690184,22.8670263 21.2852761,22.8670263 C19.9601227,22.8670263 18.9248466,21.7145873 18.9248466,20.3405255 C18.9248466,18.922139 19.9601227,17.8140246 21.2852761,17.8140246 Z" id="Shape"></path>
            </g>
        </g>
    </g>
</svg>