<svg id="SvgjsSvg1001" width="288" height="288" xmlns="http://www.w3.org/2000/svg" version="1.1" xmlns:xlink="http://www.w3.org/1999/xlink" xmlns:svgjs="http://svgjs.com/svgjs"><defs id="SvgjsDefs1002"></defs><g id="SvgjsG1008" transform="matrix(0.9167,0,0,0.9167,12.011306835937518,12.743618774414074)"><!--?xml version="1.0" encoding="UTF-8" standalone="no"?--><svg xmlns:dc="http://purl.org/dc/elements/1.1/" xmlns:cc="http://creativecommons.org/ns#" xmlns:rdf="http://www.w3.org/1999/02/22-rdf-syntax-ns#" xmlns:svg="http://www.w3.org/2000/svg" xmlns="http://www.w3.org/2000/svg" xmlns:sodipodi="http://sodipodi.sourceforge.net/DTD/sodipodi-0.dtd" xmlns:inkscape="http://www.inkscape.org/namespaces/inkscape" width="288" height="288" viewBox="0 0 16 16" id="svg5604" version="1.1" inkscape:version="0.91 r13725" sodipodi:docname="12 Compass  find direction way search.svg">
  <defs id="defs5606"></defs>
  <sodipodi:namedview id="base" pagecolor="#ffffff" bordercolor="#666666" borderopacity="1.0" inkscape:pageopacity="0.0" inkscape:pageshadow="2" inkscape:zoom="22.4" inkscape:cx="9.1178864" inkscape:cy="4.0671266" inkscape:document-units="px" inkscape:current-layer="layer1" showgrid="true" units="px" inkscape:snap-bbox="true" inkscape:bbox-nodes="true" inkscape:snap-nodes="true" inkscape:window-width="1366" inkscape:window-height="705" inkscape:window-x="-8" inkscape:window-y="-8" inkscape:window-maximized="1" inkscape:snap-bbox-edge-midpoints="true" inkscape:snap-bbox-midpoints="true" inkscape:bbox-paths="true">
    <inkscape:grid type="xygrid" id="grid5612"></inkscape:grid>
  </sodipodi:namedview>
  
  <g inkscape:label="Layer 1" inkscape:groupmode="layer" id="layer1" transform="translate(0,-1036.3622)" fill="#000000" class="color000 svgShape">
    <g id="g6852" fill="#000000" class="color000 svgShape">
      <path id="circle7001" d="m 13.511111,1046.3622 a 5.5000548,5.5000548 0 0 1 -5.5000551,5.5 5.5000548,5.5000548 0 0 1 -5.5000548,-5.5 5.5000548,5.5000548 0 0 1 5.5000548,-5.5001 5.5000548,5.5000548 0 0 1 5.5000551,5.5001 z" style="fill-opacity: 1; stroke: none; stroke-width: 0.264583; stroke-linecap: round; stroke-linejoin: round; stroke-miterlimit: 4; stroke-dasharray: none; stroke-dashoffset: 4; stroke-opacity: 1;" fill="#e5e5e5" class="colorrgb229229229 svgShape"></path>
      <path sodipodi:nodetypes="ccccc" inkscape:connector-curvature="0" id="path7004" d="m 12.607303,1041.766 -5.5926042,3.4712 -3.5998865,5.7213 5.7212596,-3.5999 z" style="fill-opacity: 1; stroke: none;" fill="#20a8d8" class="colorrgb0182227 svgShape"></path>
      <path inkscape:connector-curvature="0" id="circle5439" d="m 8.0117188,1040.3613 c -3.3078356,0 -6.0000272,2.6922 -6,6 3.29e-5,3.3078 2.6922067,6 6,6 3.3077932,0 5.9999672,-2.6922 6.0000002,-6 2.7e-5,-3.3078 -2.692165,-6 -6.0000002,-6 z m 0,1 c 2.7673922,0 5.0000222,2.2326 5.0000002,5 -2.8e-5,2.7674 -2.232643,5 -5.0000002,5 -2.7673568,0 -4.9999725,-2.2326 -5,-5 -2.28e-5,-2.7674 2.2326074,-5 5,-5 z" style="color: rgb(0, 0, 0); font: medium sans-serif; text-indent: 0px; text-align: start; text-decoration: none solid rgb(0, 0, 0); letter-spacing: normal; word-spacing: normal; text-transform: none; direction: ltr; writing-mode: lr-tb; baseline-shift: baseline; text-anchor: start; white-space: normal; clip-rule: nonzero; display: inline; overflow: visible; visibility: visible; opacity: 1; isolation: auto; mix-blend-mode: normal; color-interpolation: sRGB; color-interpolation-filters: linearRGB; fill-opacity: 1; fill-rule: nonzero; stroke: none; stroke-width: 1; stroke-linecap: round; stroke-linejoin: round; stroke-miterlimit: 4; stroke-dasharray: none; stroke-dashoffset: 4; stroke-opacity: 1; color-rendering: auto; image-rendering: auto; shape-rendering: auto; text-rendering: auto;" fill="#000000" class="colorrgb000 svgShape"></path>
      <path inkscape:connector-curvature="0" id="path5441" d="m 8.0039062,1039.3633 a 0.50004994,0.50004994 0 0 0 -0.4921874,0.5058 l 0,0.4922 a 0.50004994,0.50004994 0 1 0 1,0 l 0,-0.4922 a 0.50004994,0.50004994 0 0 0 -0.5078126,-0.5058 z" style="color: rgb(0, 0, 0); font: medium sans-serif; text-indent: 0px; text-align: start; text-decoration: none solid rgb(0, 0, 0); letter-spacing: normal; word-spacing: normal; text-transform: none; direction: ltr; writing-mode: lr-tb; baseline-shift: baseline; text-anchor: start; white-space: normal; clip-rule: nonzero; display: inline; overflow: visible; visibility: visible; opacity: 1; isolation: auto; mix-blend-mode: normal; color-interpolation: sRGB; color-interpolation-filters: linearRGB; fill-opacity: 1; fill-rule: evenodd; stroke: none; stroke-width: 1px; stroke-linecap: round; stroke-linejoin: round; stroke-miterlimit: 4; stroke-dasharray: none; stroke-dashoffset: 0; stroke-opacity: 1; color-rendering: auto; image-rendering: auto; shape-rendering: auto; text-rendering: auto;" fill="#000000" class="colorrgb000 svgShape"></path>
      <path inkscape:connector-curvature="0" id="circle5443" d="m 8.0117188,1037.3613 c -1.0986471,0 -2.0000001,0.9014 -2,2 -10e-8,1.0987 0.9013529,2 2,2 1.0986471,0 2.0000002,-0.9013 2.0000002,-2 0,-1.0986 -0.9013531,-2 -2.0000002,-2 z m 0,1 c 0.558207,0 1,0.4418 1,1 0,0.5582 -0.441793,1 -1,1 -0.5582071,0 -1.0000001,-0.4418 -1,-1 -10e-8,-0.5582 0.4417929,-1 1,-1 z" style="color: rgb(0, 0, 0); font: medium sans-serif; text-indent: 0px; text-align: start; text-decoration: none solid rgb(0, 0, 0); letter-spacing: normal; word-spacing: normal; text-transform: none; direction: ltr; writing-mode: lr-tb; baseline-shift: baseline; text-anchor: start; white-space: normal; clip-rule: nonzero; display: inline; overflow: visible; visibility: visible; opacity: 1; isolation: auto; mix-blend-mode: normal; color-interpolation: sRGB; color-interpolation-filters: linearRGB; fill-opacity: 1; fill-rule: nonzero; stroke: none; stroke-width: 1; stroke-linecap: round; stroke-linejoin: round; stroke-miterlimit: 4; stroke-dasharray: none; stroke-dashoffset: 4; stroke-opacity: 1; color-rendering: auto; image-rendering: auto; shape-rendering: auto; text-rendering: auto;" fill="#000000" class="colorrgb000 svgShape"></path>
      <path style="fill-opacity: 1; stroke: none;" d="m 12.607303,1041.766 -5.5926042,3.4712 2.1213731,2.1214 z" id="path7006" inkscape:connector-curvature="0" sodipodi:nodetypes="cccc" fill="#f86c6b" class="colorrgb2308080 svgShape"></path>
      <path inkscape:connector-curvature="0" id="path5445" d="m 12.619141,1041.2656 a 0.50004991,0.50004991 0 0 0 -0.275391,0.076 l -5.5917969,3.4707 a 0.50004991,0.50004991 0 0 0 -0.1601562,0.1582 l -3.5996094,5.7207 a 0.50004991,0.50004991 0 0 0 0.6894531,0.6895 l 5.7207032,-3.5997 a 0.50004991,0.50004991 0 0 0 0.1582031,-0.1582 l 3.4707031,-5.5937 a 0.50004991,0.50004991 0 0 0 -0.412109,-0.7637 z m -1.566407,2.0547 -2.2812496,3.6758 -3.7636719,2.3691 2.3691406,-3.7636 3.6757809,-2.2813 z" style="color: rgb(0, 0, 0); font: medium sans-serif; text-indent: 0px; text-align: start; text-decoration: none solid rgb(0, 0, 0); letter-spacing: normal; word-spacing: normal; text-transform: none; direction: ltr; writing-mode: lr-tb; baseline-shift: baseline; text-anchor: start; white-space: normal; clip-rule: nonzero; display: inline; overflow: visible; visibility: visible; opacity: 1; isolation: auto; mix-blend-mode: normal; color-interpolation: sRGB; color-interpolation-filters: linearRGB; fill-opacity: 1; fill-rule: nonzero; stroke: none; stroke-width: 1px; stroke-linecap: round; stroke-linejoin: round; stroke-miterlimit: 4; stroke-dasharray: none; stroke-dashoffset: 0; stroke-opacity: 1; color-rendering: auto; image-rendering: auto; shape-rendering: auto; text-rendering: auto;" fill="#000000" class="colorrgb000 svgShape"></path>
      <path id="circle5447" d="m 8.5110559,1046.3622 a 0.49999994,0.49999994 0 0 1 -0.5,0.5 0.49999994,0.49999994 0 0 1 -0.4999999,-0.5 0.49999994,0.49999994 0 0 1 0.4999999,-0.5 0.49999994,0.49999994 0 0 1 0.5,0.5 z" style="fill-opacity: 1; stroke: none; stroke-width: 0.264583; stroke-linecap: round; stroke-linejoin: round; stroke-miterlimit: 4; stroke-dasharray: none; stroke-dashoffset: 4; stroke-opacity: 1;" fill="#000000" class="colorrgb000 svgShape"></path>
      <path inkscape:connector-curvature="0" id="path5449" d="m 2.5078125,1045.8418 a 0.50004994,0.50004994 0 1 0 0,1 l 1,0 a 0.50004994,0.50004994 0 1 0 0,-1 l -1,0 z" style="color: rgb(0, 0, 0); font: medium sans-serif; text-indent: 0px; text-align: start; text-decoration: none solid rgb(0, 0, 0); letter-spacing: normal; word-spacing: normal; text-transform: none; direction: ltr; writing-mode: lr-tb; baseline-shift: baseline; text-anchor: start; white-space: normal; clip-rule: nonzero; display: inline; overflow: visible; visibility: visible; opacity: 1; isolation: auto; mix-blend-mode: normal; color-interpolation: sRGB; color-interpolation-filters: linearRGB; fill-opacity: 1; fill-rule: nonzero; stroke: none; stroke-width: 1px; stroke-linecap: round; stroke-linejoin: round; stroke-miterlimit: 4; stroke-dasharray: none; stroke-dashoffset: 0; stroke-opacity: 1; color-rendering: auto; image-rendering: auto; shape-rendering: auto; text-rendering: auto;" fill="#000000" class="colorrgb000 svgShape"></path>
      <path inkscape:connector-curvature="0" id="path5451" d="m 12.513672,1045.8418 a 0.50004994,0.50004994 0 1 0 0,1 l 1,0 a 0.50004994,0.50004994 0 1 0 0,-1 l -1,0 z" style="color: rgb(0, 0, 0); font: medium sans-serif; text-indent: 0px; text-align: start; text-decoration: none solid rgb(0, 0, 0); letter-spacing: normal; word-spacing: normal; text-transform: none; direction: ltr; writing-mode: lr-tb; baseline-shift: baseline; text-anchor: start; white-space: normal; clip-rule: nonzero; display: inline; overflow: visible; visibility: visible; opacity: 1; isolation: auto; mix-blend-mode: normal; color-interpolation: sRGB; color-interpolation-filters: linearRGB; fill-opacity: 1; fill-rule: nonzero; stroke: none; stroke-width: 1px; stroke-linecap: round; stroke-linejoin: round; stroke-miterlimit: 4; stroke-dasharray: none; stroke-dashoffset: 0; stroke-opacity: 1; color-rendering: auto; image-rendering: auto; shape-rendering: auto; text-rendering: auto;" fill="#000000" class="colorrgb000 svgShape"></path>
      <path inkscape:connector-curvature="0" id="path5453" d="m 8.0039062,1040.3301 a 0.50004994,0.50004994 0 0 0 -0.4941406,0.5078 l 0,1 a 0.50004994,0.50004994 0 1 0 1,0 l 0,-1 a 0.50004994,0.50004994 0 0 0 -0.5058594,-0.5078 z" style="color: rgb(0, 0, 0); font: medium sans-serif; text-indent: 0px; text-align: start; text-decoration: none solid rgb(0, 0, 0); letter-spacing: normal; word-spacing: normal; text-transform: none; direction: ltr; writing-mode: lr-tb; baseline-shift: baseline; text-anchor: start; white-space: normal; clip-rule: nonzero; display: inline; overflow: visible; visibility: visible; opacity: 1; isolation: auto; mix-blend-mode: normal; color-interpolation: sRGB; color-interpolation-filters: linearRGB; fill-opacity: 1; fill-rule: nonzero; stroke: none; stroke-width: 1px; stroke-linecap: round; stroke-linejoin: round; stroke-miterlimit: 4; stroke-dasharray: none; stroke-dashoffset: 0; stroke-opacity: 1; color-rendering: auto; image-rendering: auto; shape-rendering: auto; text-rendering: auto;" fill="#000000" class="colorrgb000 svgShape"></path>
      <path inkscape:connector-curvature="0" id="path5455" d="m 8.0039062,1050.3379 a 0.50004994,0.50004994 0 0 0 -0.4941406,0.5078 l 0,1 a 0.50004994,0.50004994 0 1 0 1,0 l 0,-1 a 0.50004994,0.50004994 0 0 0 -0.5058594,-0.5078 z" style="color: rgb(0, 0, 0); font: medium sans-serif; text-indent: 0px; text-align: start; text-decoration: none solid rgb(0, 0, 0); letter-spacing: normal; word-spacing: normal; text-transform: none; direction: ltr; writing-mode: lr-tb; baseline-shift: baseline; text-anchor: start; white-space: normal; clip-rule: nonzero; display: inline; overflow: visible; visibility: visible; opacity: 1; isolation: auto; mix-blend-mode: normal; color-interpolation: sRGB; color-interpolation-filters: linearRGB; fill-opacity: 1; fill-rule: nonzero; stroke: none; stroke-width: 1px; stroke-linecap: round; stroke-linejoin: round; stroke-miterlimit: 4; stroke-dasharray: none; stroke-dashoffset: 0; stroke-opacity: 1; color-rendering: auto; image-rendering: auto; shape-rendering: auto; text-rendering: auto;" fill="#000000" class="colorrgb000 svgShape"></path>
    </g>
  </g>

	<metadata>
		<rdf:rdf xmlns:rdf="http://www.w3.org/1999/02/22-rdf-syntax-ns#" xmlns:rdfs="http://www.w3.org/2000/01/rdf-schema#" xmlns:dc="http://purl.org/dc/elements/1.1/">
			<rdf:description about="https://iconscout.com/legal#licenses" dc:title="12 Compass  find direction way search" dc:description="12 Compass  find direction way search" dc:publisher="Iconscout" dc:date="2017-02-19" dc:format="image/svg+xml" dc:language="en">
				<dc:creator>
					<rdf:bag>
						<rdf:li>Jemis Mali</rdf:li>
					</rdf:bag>
				</dc:creator>
			</rdf:description>
		</rdf:rdf>
    </metadata></svg>
</g></svg>