<?xml version="1.0" encoding="UTF-8"?>
<svg width="80px" height="80px" viewBox="0 0 80 80" version="1.1" xmlns="http://www.w3.org/2000/svg" xmlns:xlink="http://www.w3.org/1999/xlink">
    <!-- Generator: Sketch 61.2 (89653) - https://sketch.com -->
    <title>map_icons</title>
    <desc>Created with Sketch.</desc>
    <g id="Page-1" stroke="none" stroke-width="1" fill="none" fill-rule="evenodd">
        <g id="marker-stroked-15" transform="translate(12.000000, -5.000000)" fill="#000000" fill-rule="nonzero">
            <path d="M27.5829097,80 L25.5785781,77.5160731 C20.7030415,71.5496306 1.02551612,44.6178417 1.02551612,31.550881 C0.402852908,17.5249091 11.2520525,5.64911683 25.257885,5.02555281 C25.9994877,4.99209925 26.7427607,4.99209925 27.4877039,5.02555281 C41.4935367,4.40199427 53.3522772,15.266794 53.9749459,29.2927656 C54.0083514,30.0454707 54.0083514,30.7981758 53.9749459,31.550881 C53.9749459,42.6557904 40.6010433,62.2160872 30.5342879,75.9655006 L27.5829097,80 Z M27.4877039,9.97333442 C21.6789919,9.64541758 16.0062171,11.8132529 11.8923166,15.9330689 C7.77841598,20.0528849 5.61369334,25.7338166 5.94113934,31.550881 C5.94113934,40.7439194 19.7660165,61.8497707 27.4175523,71.8657668 C33.6810885,63.2849285 49.0392793,41.8127607 49.0392793,31.550881 C49.3667253,25.7338166 47.2020027,20.0528849 43.0881021,15.9330689 C38.9742015,11.8132529 33.3014267,9.64541758 27.4927147,9.97333442 L27.4877039,9.97333442 Z" id="Layer_7"></path>
        </g>
        <g id="noun_flooding_helpme" transform="translate(21.000000, 9.000000)" fill="#000000" fill-rule="nonzero">
            <path d="M0.820265014,27 C1.01556621,27 1.2108674,26.9216317 1.36710836,26.7648951 L3.1248191,25.2367129 C3.47636125,24.9232397 3.94508412,24.766503 4.41380698,24.766503 C4.88252985,24.766503 5.35125271,24.9232397 5.70279486,25.2367129 L6.67930083,26.0595802 C7.34332489,26.6081584 8.1635899,26.9216317 9.10103564,26.9216317 C10.0384814,26.9216317 10.8587464,26.6081584 11.5227704,26.0595802 L12.4992764,25.1975288 C12.8508186,24.8840555 13.3195414,24.7273189 13.7882643,24.7273189 C14.2569872,24.7273189 14.72571,24.8840555 15.0772522,25.2367129 L16.0537581,26.0595802 C16.7177822,26.6081584 17.5771075,26.9216317 18.4754929,26.9216317 C19.3738784,26.9216317 20.2332037,26.6081584 20.8972277,26.0595802 L21.8737337,25.1975288 C22.2252759,24.8840555 22.6939987,24.7273189 23.1627216,24.7273189 C23.6314445,24.7273189 24.1001673,24.8840555 24.4517095,25.1975288 L25.4282154,26.0595802 C26.0922395,26.6081584 26.9515648,26.9216317 27.8499502,26.9216317 C28.787396,26.9216317 29.607661,26.6081584 30.2716851,26.0595802 L31.248191,25.1975288 C31.5997332,24.8840555 32.068456,24.7273189 32.5371789,24.7273189 C33.0059018,24.7273189 33.4746246,24.8840555 33.8261668,25.1975288 L35.5838775,26.7257109 C35.7401185,26.8824475 35.9354197,26.9608158 36.1307209,26.9608158 C36.3650823,26.9608158 36.638504,26.8432634 36.7947449,26.6473426 C36.9509859,26.490606 37.0291064,26.255501 36.9900461,26.0203961 C36.9900461,25.7852911 36.8728654,25.5893703 36.6775642,25.4326337 L34.9979739,23.9436357 C34.3339499,23.3558734 33.4746246,23.0424001 32.5762391,23.0424001 C31.6778536,23.0424001 30.8185284,23.3558734 30.1545043,23.9436357 L29.1779984,24.8056872 C28.8655165,25.0799763 28.3967936,25.2367129 27.8890105,25.2367129 C27.4202876,25.2367129 26.9515648,25.0799763 26.6000226,24.766503 L25.6235166,23.9436357 C24.9594926,23.3558734 24.1001673,23.0424001 23.2017818,23.0424001 C22.9283602,23.0424001 22.6158783,23.0815843 22.3424566,23.1599526 L22.576818,20.2995091 C24.1782878,19.5550101 24.2954685,17.3215131 24.6079504,15.0096478 C24.9985528,12.1883885 25.9750588,4.46910945 25.9750588,4.46910945 C26.0531793,3.76379462 25.5844564,3.17603225 24.8813721,3.09766394 C24.1782878,3.01929562 23.5923842,3.48950551 23.5142637,4.19482035 L22.8502397,9.79815487 C22.8111794,9.99407566 22.6549385,10.1508123 22.4596373,10.1508123 L22.4205771,10.1508123 C22.2252759,10.1508123 22.0299747,9.9548915 22.0690349,9.75897071 L22.3815168,2.50990158 C22.4205771,1.80458674 21.8737337,1.21682438 21.2097097,1.21682438 C20.5456856,1.17764022 19.959782,1.72621843 19.9207218,2.39234911 L19.6082399,9.64141824 C19.6082399,9.83733903 19.4129387,10.0332598 19.2176375,9.99407566 C19.0223363,9.99407566 18.8660953,9.83733903 18.8660953,9.64141824 L18.2801917,1.17764022 C18.2411315,0.472325389 17.6552279,-0.0370686581 16.9521436,0.00211549938 C16.2490593,0.0412996569 15.7412762,0.629062019 15.7803365,1.33437685 L16.2881196,9.40631329 C16.2881196,9.64141824 16.1318786,9.83733903 15.8975172,9.79815487 L15.7803365,9.79815487 C15.5850353,9.79815487 15.4678546,9.64141824 15.4287943,9.48468161 L14.2960474,2.862559 C14.1788667,2.19642832 13.5148426,1.72621843 12.8508186,1.8437709 C12.1867945,1.96132337 11.7180716,2.62745405 11.8352523,3.29358473 C11.8352523,3.29358473 12.8117583,8.70099846 12.9679993,9.83733903 C13.1242402,11.0128637 13.2023607,11.6398103 13.2414209,12.6977825 C13.2804812,13.2855449 12.7726981,13.6382023 12.2258547,13.0896241 C12.2258547,13.0896241 11.1712283,11.7965469 10.5462645,11.1696004 C9.92130065,10.5426539 9.25727659,10.3075489 8.63231277,10.7385746 C7.96828871,11.1696004 7.77298752,12.070836 8.24171038,12.6977825 C8.24171038,12.6977825 10.9368669,17.1255923 12.5773969,18.9672477 C13.08518,19.5550101 13.7492041,20.1427724 14.4522883,20.4170615 L14.6866498,23.1599526 C14.4132281,23.0815843 14.1398064,23.0424001 13.8663848,23.0424001 C12.9679993,23.0424001 12.108674,23.3558734 11.44465,23.9436357 L10.468144,24.8056872 C10.1556621,25.0799763 9.68693922,25.2367129 9.21821635,25.2367129 C8.71043325,25.2367129 8.28077062,25.0799763 7.92922847,24.766503 L6.87460203,23.9436357 C6.21057797,23.3558734 5.35125271,23.0424001 4.45286722,23.0424001 C3.55448173,23.0424001 2.69515648,23.3558734 2.03113242,23.9436357 L0.273421671,25.4718179 C0.117180716,25.6285545 0,25.8244753 0,26.0595802 C0,26.2946852 0.0390602388,26.5297901 0.195301194,26.6865267 C0.351542149,26.8824475 0.585903582,27 0.820265014,27 Z" id="Path"></path>
            <path d="M34.9220471,27.3663366 C34.2587233,26.4752475 33.4003043,26 32.5028662,26 C31.6054281,26 30.7470091,26.4752475 30.0836853,27.3663366 L29.1082091,28.6732673 C28.7960567,29.0891089 28.3278282,29.3267327 27.8205806,29.3267327 C27.352352,29.3267327 26.8841234,29.0891089 26.532952,28.6138614 L25.5574758,27.3663366 C24.894152,26.4752475 24.035733,26 23.1382949,26 C22.2408568,26 21.4214568,26.4752475 20.719114,27.3663366 L19.7046188,28.6732673 C19.3924664,29.0891089 18.9242378,29.3267327 18.4560093,29.3267327 C17.9487617,29.3267327 17.5195521,29.0891089 17.1683807,28.6138614 L16.1929045,27.3663366 C15.4905617,26.4752475 14.6711617,26 13.7737236,26 C12.8762855,26 12.0178665,26.4752475 11.3545427,27.3663366 L10.3790665,28.6732673 C10.0669141,29.0891089 9.59868558,29.3267327 9.13045701,29.3267327 C8.6232094,29.3267327 8.19399988,29.0891089 7.84282846,28.6138614 L6.86735228,27.3663366 C6.20402848,26.4752475 5.34560945,26 4.44817137,26 C3.55073328,26 2.69231425,26.4752475 2.02899045,27.3663366 L0.273133329,29.6831683 C0.117057141,29.9207921 0,30.2178218 0,30.5742574 C0,30.9306931 0.0390190471,31.2871287 0.195095235,31.5247525 C0.351171424,31.8217822 0.585285706,32 0.858419035,32 C1.05351427,32 1.24860951,31.8811881 1.40468569,31.6435644 L3.16054281,29.3267327 C3.51171424,28.8514851 3.9799428,28.6138614 4.44817137,28.6138614 C4.91639993,28.6138614 5.3846285,28.8514851 5.73579992,29.3267327 L6.7112761,30.5742574 C7.3745999,31.4059406 8.19399988,31.8811881 9.13045701,31.8811881 C10.0669141,31.8811881 10.8863141,31.4059406 11.5496379,30.5742574 L12.5251141,29.2673267 C12.8762855,28.7920792 13.3445141,28.5544554 13.8127427,28.5544554 C14.2809712,28.5544554 14.7491998,28.7920792 15.1003712,29.3267327 L16.0758474,30.5742574 C16.7391712,31.4059406 17.5975902,31.8811881 18.4950283,31.8811881 C19.3924664,31.8811881 20.2508854,31.4059406 20.9142092,30.5742574 L21.8896854,29.2673267 C22.2408568,28.7920792 22.7090854,28.5544554 23.177314,28.5544554 C23.6455425,28.5544554 24.1137711,28.7920792 24.4649425,29.2673267 L25.4404187,30.5742574 C26.1037425,31.4059406 26.9621615,31.8811881 27.8595996,31.8811881 C28.7960567,31.8811881 29.6154567,31.4059406 30.2787805,30.5742574 L31.2542567,29.2673267 C31.6054281,28.7920792 32.0736567,28.5544554 32.5418853,28.5544554 C33.0101138,28.5544554 33.4783424,28.7920792 33.8295138,29.2673267 L35.5853709,31.5841584 C35.7414471,31.8217822 35.9365423,31.9405941 36.1316376,31.9405941 C36.3657519,31.9405941 36.6388852,31.7623762 36.7949614,31.4653465 C36.9510376,31.2277228 37.0290757,30.8712871 36.9900566,30.5148515 C36.9900566,30.1584158 36.8729995,29.8613861 36.6779042,29.6237624 L34.9220471,27.3663366 Z" id="Path"></path>
            <path d="M34.9610662,32.3663366 C34.2587233,31.4752475 33.4003043,31 32.5418853,31 C31.6444472,31 30.7860281,31.4752475 30.1227043,32.3663366 L29.1472282,33.6732673 C28.8350758,34.0891089 28.3668472,34.3267327 27.8595996,34.3267327 C27.391371,34.3267327 26.9231425,34.0891089 26.5719711,33.6138614 L25.5964949,32.3663366 C24.9331711,31.4752475 24.035733,31 23.177314,31 C22.2798759,31 21.4604759,31.4752475 20.758133,32.3663366 L19.7436378,33.6732673 C19.4314854,34.0891089 18.9632569,34.3267327 18.4950283,34.3267327 C17.9877807,34.3267327 17.5585712,34.0891089 17.2073998,33.6138614 L16.2319236,32.3663366 C15.5295807,31.4752475 14.7101807,31 13.8127427,31 C12.9153046,31 12.0568855,31.4752475 11.3935617,32.3663366 L10.4180856,33.6732673 C10.1059332,34.0891089 9.63770463,34.3267327 9.16947606,34.3267327 C8.66222845,34.3267327 8.23301893,34.0891089 7.88184751,33.6138614 L6.90637133,32.3663366 C6.20402848,31.4752475 5.34560945,31 4.44817137,31 C3.55073328,31 2.69231425,31.4752475 2.02899045,32.3663366 L0.273133329,34.6831683 C0.117057141,34.9207921 0,35.2178218 0,35.5742574 C0,35.9306931 0.0390190471,36.2871287 0.195095235,36.5247525 C0.351171424,36.8217822 0.585285706,37 0.858419035,37 C1.05351427,37 1.24860951,36.8811881 1.40468569,36.6435644 L3.16054281,34.3267327 C3.51171424,33.8514851 3.9799428,33.6138614 4.44817137,33.6138614 C4.91639993,33.6138614 5.3846285,33.8514851 5.73579992,34.3267327 L6.7112761,35.5742574 C7.3745999,36.4059406 8.19399988,36.8811881 9.13045701,36.8811881 C10.0669141,36.8811881 10.8863141,36.4059406 11.5496379,35.5742574 L12.5251141,34.2673267 C12.8762855,33.7920792 13.3445141,33.5544554 13.8127427,33.5544554 C14.2809712,33.5544554 14.7491998,33.7920792 15.1003712,34.3267327 L16.0758474,35.5742574 C16.7391712,36.4059406 17.5975902,36.8811881 18.4950283,36.8811881 C19.3924664,36.8811881 20.2508854,36.4059406 20.9142092,35.5742574 L21.8896854,34.2673267 C22.2408568,33.7920792 22.7090854,33.5544554 23.177314,33.5544554 C23.6455425,33.5544554 24.1137711,33.7920792 24.4649425,34.2673267 L25.4404187,35.5742574 C26.1037425,36.4059406 26.9621615,36.8811881 27.8595996,36.8811881 C28.7960567,36.8811881 29.6154567,36.4059406 30.2787805,35.5742574 L31.2542567,34.2673267 C31.6054281,33.7920792 32.0736567,33.5544554 32.5418853,33.5544554 C33.0101138,33.5544554 33.4783424,33.7920792 33.8295138,34.2673267 L35.5853709,36.5841584 C35.7414471,36.8217822 35.9365423,36.9405941 36.1316376,36.9405941 C36.3657519,36.9405941 36.6388852,36.7623762 36.7949614,36.4653465 C36.9510376,36.2277228 37.0290757,35.8712871 36.9900566,35.5148515 C36.9900566,35.1584158 36.8729995,34.8613861 36.6779042,34.6237624 L34.9610662,32.3663366 Z" id="Path"></path>
        </g>
    </g>
</svg>