<?xml version="1.0" encoding="UTF-8"?>
<svg width="80px" height="80px" viewBox="0 0 80 80" version="1.1" xmlns="http://www.w3.org/2000/svg" xmlns:xlink="http://www.w3.org/1999/xlink">
    <!-- Generator: Sketch 61.2 (89653) - https://sketch.com -->
    <title>map_icons</title>
    <desc>Created with Sketch.</desc>
    <g id="Page-1" stroke="none" stroke-width="1" fill="none" fill-rule="evenodd">
        <g id="marker-stroked-15" transform="translate(12.000000, -5.000000)" fill="#000000" fill-rule="nonzero">
            <path d="M27.5829097,80 L25.5785781,77.5160731 C20.7030415,71.5496306 1.02551612,44.6178417 1.02551612,31.550881 C0.402852908,17.5249091 11.2520525,5.64911683 25.257885,5.02555281 C25.9994877,4.99209925 26.7427607,4.99209925 27.4877039,5.02555281 C41.4935367,4.40199427 53.3522772,15.266794 53.9749459,29.2927656 C54.0083514,30.0454707 54.0083514,30.7981758 53.9749459,31.550881 C53.9749459,42.6557904 40.6010433,62.2160872 30.5342879,75.9655006 L27.5829097,80 Z M27.4877039,9.97333442 C21.6789919,9.64541758 16.0062171,11.8132529 11.8923166,15.9330689 C7.77841598,20.0528849 5.61369334,25.7338166 5.94113934,31.550881 C5.94113934,40.7439194 19.7660165,61.8497707 27.4175523,71.8657668 C33.6810885,63.2849285 49.0392793,41.8127607 49.0392793,31.550881 C49.3667253,25.7338166 47.2020027,20.0528849 43.0881021,15.9330689 C38.9742015,11.8132529 33.3014267,9.64541758 27.4927147,9.97333442 L27.4877039,9.97333442 Z" id="Layer_7"></path>
        </g>
        <g id="noun_flooding_helpassigned" transform="translate(16.000000, 1.000000)" fill="#000000" fill-rule="nonzero">
            <path d="M4.86460366,46 C5.07046168,46 5.27631969,45.9187292 5.44100611,45.7561875 L7.29372824,44.171406 C7.66427267,43.8463226 8.15833191,43.6837809 8.65239114,43.6837809 C9.14645038,43.6837809 9.64050962,43.8463226 10.011054,44.171406 L11.0403441,45.0247499 C11.7402614,45.5936458 12.604865,45.9187292 13.5929835,45.9187292 C14.581102,45.9187292 15.4457056,45.5936458 16.1456229,45.0247499 L17.174913,44.1307706 C17.5454574,43.8056872 18.0395166,43.6431455 18.5335759,43.6431455 C19.0276351,43.6431455 19.5216943,43.8056872 19.8922388,44.171406 L20.9215288,45.0247499 C21.6214461,45.5936458 22.5272214,45.9187292 23.4741682,45.9187292 C24.4211151,45.9187292 25.3268904,45.5936458 26.0268076,45.0247499 L27.0560977,44.1307706 C27.4266421,43.8056872 27.9207014,43.6431455 28.4147606,43.6431455 C28.9088198,43.6431455 29.4028791,43.8056872 29.7734235,44.1307706 L30.8027136,45.0247499 C31.5026308,45.5936458 32.4084061,45.9187292 33.355353,45.9187292 C34.3434714,45.9187292 35.2080751,45.5936458 35.9079924,45.0247499 L36.9372824,44.1307706 C37.3078269,43.8056872 37.8018861,43.6431455 38.2959453,43.6431455 C38.7900046,43.6431455 39.2840638,43.8056872 39.6546082,44.1307706 L41.5073304,45.715552 C41.6720168,45.8780937 41.8778748,45.9593646 42.0837328,45.9593646 C42.3307624,45.9593646 42.6189636,45.8374583 42.7836501,45.6342812 C42.9483365,45.4717395 43.0306797,45.227927 42.9895081,44.9841144 C42.9895081,44.7403019 42.8659933,44.5371248 42.6601353,44.3745831 L40.8897563,42.830437 C40.1898391,42.2209057 39.2840638,41.8958223 38.3371169,41.8958223 C37.3901701,41.8958223 36.4843948,42.2209057 35.7844775,42.830437 L34.7551875,43.7244163 C34.4258146,44.0088643 33.9317554,44.171406 33.3965246,44.171406 C32.9024653,44.171406 32.4084061,44.0088643 32.0378617,43.6837809 L31.0085716,42.830437 C30.3086543,42.2209057 29.4028791,41.8958223 28.4559322,41.8958223 C28.167731,41.8958223 27.8383582,41.9364577 27.5501569,42.0177286 L27.7971866,39.0513427 C29.4852223,38.2792697 29.6087371,35.9630506 29.9381099,33.5655607 C30.3498259,30.6398103 31.379116,22.634632 31.379116,22.634632 C31.4614592,21.9031944 30.9674,21.2936631 30.2263111,21.2123922 C29.4852223,21.1311214 28.8676482,21.6187465 28.785305,22.3501841 L28.0853878,28.1610495 C28.0442162,28.3642266 27.8795298,28.5267683 27.6736717,28.5267683 L27.6325001,28.5267683 C27.4266421,28.5267683 27.2207841,28.3235912 27.2619557,28.1204141 L27.5913285,20.6028609 C27.6325001,19.8714233 27.0560977,19.261892 26.3561804,19.261892 C25.6562632,19.2212565 25.0386892,19.7901524 24.9975175,20.4809546 L24.6681447,27.9985078 C24.6681447,28.2016849 24.4622867,28.404862 24.2564287,28.3642266 C24.0505707,28.3642266 23.8858843,28.2016849 23.8858843,27.9985078 L23.2683102,19.2212565 C23.2271386,18.4898189 22.6095646,17.9615584 21.8684757,18.0021939 C21.1273869,18.0428293 20.592156,18.6523606 20.6333276,19.3837982 L21.1685585,27.7546953 C21.1685585,27.9985078 21.0038721,28.2016849 20.7568424,28.1610495 L20.6333276,28.1610495 C20.4274696,28.1610495 20.3039548,27.9985078 20.2627832,27.8359661 L19.0688067,20.9685797 C18.9452919,20.2777775 18.2453747,19.7901524 17.5454574,19.9120587 C16.8455401,20.033965 16.3514809,20.7247672 16.4749957,21.4155693 C16.4749957,21.4155693 17.5042858,27.0232577 17.6689722,28.2016849 C17.8336586,29.4207476 17.9160018,30.0709144 17.9571734,31.1680708 C17.998345,31.7776021 17.4631142,32.1433209 16.8867118,31.574425 C16.8867118,31.574425 15.7750785,30.233456 15.1163328,29.5832893 C14.4575872,28.9331225 13.7576699,28.68931 13.0989243,29.1362996 C12.399007,29.5832893 12.193149,30.517904 12.6872082,31.1680708 C12.6872082,31.1680708 15.5280489,35.7598735 17.2572562,37.6697384 C17.792487,38.2792697 18.4924043,38.8888011 19.2334931,39.173249 L19.4805227,42.0177286 C19.1923215,41.9364577 18.9041203,41.8958223 18.6159191,41.8958223 C17.6689722,41.8958223 16.7631969,42.2209057 16.0632797,42.830437 L15.0339896,43.7244163 C14.7046168,44.0088643 14.2105576,44.171406 13.7164983,44.171406 C13.1812675,44.171406 12.7283798,44.0088643 12.3578354,43.6837809 L11.2462021,42.830437 C10.5462849,42.2209057 9.64050962,41.8958223 8.69356275,41.8958223 C7.74661588,41.8958223 6.84084061,42.2209057 6.14092336,42.830437 L4.28820122,44.4152185 C4.12351481,44.5777602 4,44.7809373 4,45.0247499 C4,45.2685624 4.0411716,45.5123749 4.20585802,45.6749166 C4.37054443,45.8780937 4.61757405,46 4.86460366,46 Z" id="Path"></path>
            <path d="M3.43897696,21.0210067 C3.56038041,21.0210067 3.68178385,20.9745662 3.77890661,20.8816853 L4.87153761,19.9760959 C5.09006381,19.7903339 5.38143208,19.697453 5.67280035,19.697453 C5.96416861,19.697453 6.25553688,19.7903339 6.47406308,19.9760959 L7.08108031,20.4637209 C7.49385202,20.7888043 8.00374649,20.9745662 8.58648302,20.9745662 C9.16921956,20.9745662 9.67911403,20.7888043 10.0918857,20.4637209 L10.698903,19.9528756 C10.9174292,19.7671137 11.2087974,19.6742327 11.5001657,19.6742327 C11.791534,19.6742327 12.0829022,19.7671137 12.3014284,19.9760959 L12.9084457,20.4637209 C13.3212174,20.7888043 13.8553925,20.9745662 14.4138484,20.9745662 C14.9723042,20.9745662 15.5064794,20.7888043 15.9192511,20.4637209 L16.5262683,19.9528756 C16.7447945,19.7671137 17.0361628,19.6742327 17.3275311,19.6742327 C17.6188993,19.6742327 17.9102676,19.7671137 18.1287938,19.9528756 L18.735811,20.4637209 C19.1485827,20.7888043 19.6827579,20.9745662 20.2412137,20.9745662 C20.8239503,20.9745662 21.3338447,20.7888043 21.7466164,20.4637209 L22.3536337,19.9528756 C22.5721599,19.7671137 22.8635281,19.6742327 23.1548964,19.6742327 C23.4462647,19.6742327 23.7376329,19.7671137 23.9561591,19.9528756 L25.0487901,20.858465 C25.1459129,20.951346 25.2673163,20.9977865 25.3887198,20.9977865 C25.5344039,20.9977865 25.7043687,20.9281258 25.8014915,20.8120245 C25.8986143,20.7191436 25.9471756,20.5798221 25.9228949,20.4405007 C25.9228949,20.3011792 25.8500529,20.185078 25.7286494,20.0921971 L24.6845798,19.2098279 C24.2718081,18.8615243 23.7376329,18.6757623 23.1791771,18.6757623 C22.6207212,18.6757623 22.0865461,18.8615243 21.6737744,19.2098279 L21.0667572,19.7206732 C20.8725116,19.8832149 20.5811434,19.9760959 20.2654944,19.9760959 C19.9741262,19.9760959 19.6827579,19.8832149 19.4642317,19.697453 L18.8572145,19.2098279 C18.4444427,18.8615243 17.9102676,18.6757623 17.3518117,18.6757623 C17.1818469,18.6757623 16.9876014,18.6989826 16.8176366,18.7454231 L16.9633207,17.0503454 C17.958829,16.6091608 18.031671,15.2856071 18.2259165,13.9156128 C18.4687234,12.2437554 19.0757407,7.66936788 19.0757407,7.66936788 C19.124302,7.25140353 18.8329338,6.90309991 18.3958814,6.85665943 C17.958829,6.81021894 17.5946186,7.08886184 17.5460573,7.50682619 L17.1332855,10.8273207 C17.1090049,10.9434219 17.0118821,11.0363029 16.8904787,11.0363029 L16.866198,11.0363029 C16.7447945,11.0363029 16.6233911,10.9202017 16.6476718,10.8041005 L16.8419173,6.50835581 C16.866198,6.09039146 16.5262683,5.74208784 16.1134966,5.74208784 C15.7007249,5.7188676 15.3365146,6.04395098 15.3122339,6.43869508 L15.1179884,10.7344398 C15.1179884,10.850541 14.9965849,10.9666422 14.8751815,10.9434219 C14.753778,10.9434219 14.6566553,10.850541 14.6566553,10.7344398 L14.2924449,5.7188676 C14.2681642,5.30090325 13.9039539,4.99904011 13.4669015,5.02226035 C13.0298491,5.04548059 12.7142001,5.39378422 12.7384808,5.81174856 L13.0541298,10.5951183 C13.0541298,10.7344398 12.957007,10.850541 12.8113229,10.8273207 L12.7384808,10.8273207 C12.6170774,10.8273207 12.5442353,10.7344398 12.5199546,10.6415588 L11.8158147,6.71733798 C11.7429726,6.32259387 11.3302009,6.04395098 10.9174292,6.1136117 C10.5046575,6.18327243 10.2132892,6.57801653 10.2861313,6.97276064 C10.2861313,6.97276064 10.8931485,10.177154 10.9902712,10.850541 C11.087394,11.5471482 11.1359554,11.9186721 11.1602361,12.5456186 C11.1845167,12.8939222 10.8688678,13.1029044 10.5289381,12.777821 C10.5289381,12.777821 9.87335954,12.011553 9.48486852,11.6400292 C9.09637749,11.2685053 8.68360578,11.1291839 8.29511476,11.3846065 C7.88234304,11.6400292 7.7609396,12.1740947 8.05230787,12.5456186 C8.05230787,12.5456186 9.7276754,15.1695059 10.7474643,16.2608572 C11.0631133,16.6091608 11.475885,16.9574645 11.9129374,17.1200062 L12.0586215,18.7454231 C11.8886567,18.6989826 11.7186919,18.6757623 11.5487271,18.6757623 C10.9902712,18.6757623 10.4560961,18.8615243 10.0433244,19.2098279 L9.43630714,19.7206732 C9.24206163,19.8832149 8.95069336,19.9760959 8.65932509,19.9760959 C8.34367613,19.9760959 8.07658855,19.8832149 7.85806235,19.697453 L7.20248375,19.2098279 C6.78971204,18.8615243 6.25553688,18.6757623 5.69708104,18.6757623 C5.13862519,18.6757623 4.60445003,18.8615243 4.19167832,19.2098279 L3.09904732,20.1154173 C3.00192456,20.2082983 2.92908249,20.3243995 2.92908249,20.4637209 C2.92908249,20.6030424 2.95336318,20.7423638 3.05048594,20.8352448 C3.14760869,20.951346 3.29329283,21.0210067 3.43897696,21.0210067 Z" id="Path" transform="translate(14.429082, 13.021007) rotate(147.000000) translate(-14.429082, -13.021007) "></path>
            <path d="M37.2028516,47.1386139 C36.6291661,46.3960396 35.8867497,46 35.110587,46 C34.3344243,46 33.5920079,46.3960396 33.0183224,47.1386139 L32.1746673,48.2277228 C31.9046977,48.5742574 31.4997433,48.7722772 31.0610426,48.7722772 C30.6560882,48.7722772 30.2511338,48.5742574 29.947418,48.1782178 L29.1037629,47.1386139 C28.5300774,46.3960396 27.787661,46 27.0114983,46 C26.2353356,46 25.5266654,46.3960396 24.9192337,47.1386139 L24.0418324,48.2277228 C23.7718628,48.5742574 23.3669084,48.7722772 22.961954,48.7722772 C22.5232533,48.7722772 22.1520451,48.5742574 21.8483293,48.1782178 L21.0046742,47.1386139 C20.3972425,46.3960396 19.6885723,46 18.9124096,46 C18.1362469,46 17.3938305,46.3960396 16.820145,47.1386139 L15.97649,48.2277228 C15.7065203,48.5742574 15.3015659,48.7722772 14.8966115,48.7722772 C14.4579108,48.7722772 14.0867026,48.5742574 13.7829868,48.1782178 L12.9393317,47.1386139 C12.3656463,46.3960396 11.6232298,46 10.8470671,46 C10.0709045,46 9.328488,46.3960396 8.75480255,47.1386139 L7.23622342,49.0693069 C7.10123861,49.2673267 7,49.5148515 7,49.8118812 C7,50.1089109 7.0337462,50.4059406 7.16873101,50.6039604 C7.30371583,50.8514851 7.50619304,51 7.74241646,51 C7.91114748,51 8.07987849,50.9009901 8.2148633,50.7029703 L9.73344243,48.7722772 C10.0371583,48.3762376 10.4421127,48.1782178 10.8470671,48.1782178 C11.2520216,48.1782178 11.656976,48.3762376 11.9606918,48.7722772 L12.8043469,49.8118812 C13.3780323,50.5049505 14.0867026,50.9009901 14.8966115,50.9009901 C15.7065203,50.9009901 16.4151906,50.5049505 16.988876,49.8118812 L17.8325311,48.7227723 C18.1362469,48.3267327 18.5412014,48.1287129 18.9461558,48.1287129 C19.3511103,48.1287129 19.7560647,48.3267327 20.0597805,48.7722772 L20.9034356,49.8118812 C21.477121,50.5049505 22.2195375,50.9009901 22.9957002,50.9009901 C23.7718628,50.9009901 24.5142793,50.5049505 25.0879647,49.8118812 L25.9316198,48.7227723 C26.2353356,48.3267327 26.6402901,48.1287129 27.0452445,48.1287129 C27.4501989,48.1287129 27.8551534,48.3267327 28.1588692,48.7227723 L29.0025243,49.8118812 C29.5762097,50.5049505 30.3186262,50.9009901 31.0947888,50.9009901 C31.9046977,50.9009901 32.613368,50.5049505 33.1870534,49.8118812 L34.0307085,48.7227723 C34.3344243,48.3267327 34.7393788,48.1287129 35.1443332,48.1287129 C35.5492876,48.1287129 35.9542421,48.3267327 36.2579579,48.7227723 L37.776537,50.6534653 C37.9115218,50.8514851 38.0802528,50.950495 38.2489839,50.950495 C38.4514611,50.950495 38.6876845,50.8019802 38.8226693,50.5544554 C38.9576541,50.3564356 39.0251465,50.0594059 38.9914003,49.7623762 C38.9914003,49.4653465 38.8901617,49.2178218 38.7214307,49.019802 L37.2028516,47.1386139 Z" id="Path"></path>
        </g>
    </g>
</svg>