<?xml version="1.0" encoding="UTF-8"?>
<svg width="80px" height="80px" viewBox="0 0 80 80" version="1.1" xmlns="http://www.w3.org/2000/svg" xmlns:xlink="http://www.w3.org/1999/xlink">
    <!-- Generator: Sketch 61.2 (89653) - https://sketch.com -->
    <title>map_icons</title>
    <desc>Created with Sketch.</desc>
    <g id="Page-1" stroke="none" stroke-width="1" fill="none" fill-rule="evenodd">
        <g id="marker" transform="translate(12.000000, 0.000000)" fill="#7C5C5C" fill-rule="nonzero">
            <path d="M27.5,0 C14.8079331,0 0,7.928 0,28.1082667 C0,41.8016 21.1539666,72.072 27.5,80 C33.1410925,72.072 55,42.5226667 55,28.1082667 C55,7.928 40.1920669,0 27.5,0 Z" id="path4133"></path>
        </g>
        <path d="M54.2959453,46.6431455 C54.7900046,46.6431455 55.2840638,46.8056872 55.6546082,47.1307706 L55.6546082,47.1307706 L57.5073304,48.715552 L57.6107534,48.8033246 C57.6399235,48.824455 57.6699633,48.8434393 57.7006963,48.8602776 C51.3458007,60.5707337 42.6668587,72.5002033 39.5,77 C36.4734374,73.1772602 29.814576,63.813615 24.060424,53.8733598 C24.115487,53.8302926 24.1672725,53.772785 24.2148633,53.7029703 L24.2148633,53.7029703 L25.7334424,51.7722772 L25.8382917,51.6475981 C26.1271481,51.3346779 26.4871076,51.1782178 26.8470671,51.1782178 C27.2520216,51.1782178 27.656976,51.3762376 27.9606918,51.7722772 L27.9606918,51.7722772 L28.8043469,52.8118812 L28.9391167,52.9665025 C29.4876576,53.5635362 30.1490033,53.9009901 30.8966115,53.9009901 C31.7065203,53.9009901 32.4151906,53.5049505 32.988876,52.8118812 L32.988876,52.8118812 L33.8325311,51.7227723 L33.9373804,51.5980931 C34.2262368,51.285173 34.5861963,51.1287129 34.9461558,51.1287129 C35.3511103,51.1287129 35.7560647,51.3267327 36.0597805,51.7722772 L36.0597805,51.7722772 L36.9034356,52.8118812 L37.0387583,52.9665025 C37.5915386,53.5635362 38.2792423,53.9009901 38.9957002,53.9009901 C39.7718628,53.9009901 40.5142793,53.5049505 41.0879647,52.8118812 L41.0879647,52.8118812 L41.9316198,51.7227723 L42.0364691,51.5980931 C42.3253255,51.285173 42.685285,51.1287129 43.0452445,51.1287129 C43.4501989,51.1287129 43.8551534,51.3267327 44.1588692,51.7227723 L44.1588692,51.7227723 L45.0025243,52.8118812 L45.137847,52.9665025 C45.6906273,53.5635362 46.378331,53.9009901 47.0947888,53.9009901 C47.9046977,53.9009901 48.613368,53.5049505 49.1870534,52.8118812 L49.1870534,52.8118812 L50.0307085,51.7227723 L50.1355578,51.5980931 C50.4244142,51.285173 50.7843737,51.1287129 51.1443332,51.1287129 C51.5492876,51.1287129 51.9542421,51.3267327 52.2579579,51.7227723 L52.2579579,51.7227723 L53.776537,53.6534653 L53.8466854,53.7442244 C53.9677655,53.8817382 54.1083747,53.950495 54.2489839,53.950495 C54.4514611,53.950495 54.6876845,53.8019802 54.8226693,53.5544554 C54.9576541,53.3564356 55.0251465,53.0594059 54.9914003,52.7623762 C54.9914003,52.4653465 54.8901617,52.2178218 54.7214307,52.019802 L54.7214307,52.019802 L53.2028516,50.1386139 L53.0675288,49.9734246 C52.5147485,49.3374539 51.8270448,49 51.110587,49 C50.3344243,49 49.5920079,49.3960396 49.0183224,50.1386139 L49.0183224,50.1386139 L48.1746673,51.2277228 L48.0798169,51.3376659 C47.8142912,51.6158171 47.4509988,51.7722772 47.0610426,51.7722772 C46.6560882,51.7722772 46.2511338,51.5742574 45.947418,51.1782178 L45.947418,51.1782178 L45.1037629,50.1386139 L44.9684401,49.9734246 C44.4156598,49.3374539 43.7279561,49 43.0114983,49 C42.2353356,49 41.5266654,49.3960396 40.9192337,50.1386139 L40.9192337,50.1386139 L40.0418324,51.2277228 L39.9470283,51.3376659 C39.681873,51.6158171 39.3219135,51.7722772 38.961954,51.7722772 C38.5232533,51.7722772 38.1520451,51.5742574 37.8483293,51.1782178 L37.8483293,51.1782178 L37.0046742,50.1386139 L36.8627159,49.9734246 C36.287817,49.3374539 35.6288675,49 34.9124096,49 C34.1362469,49 33.3938305,49.3960396 32.820145,50.1386139 L32.820145,50.1386139 L31.97649,51.2277228 L31.8816858,51.3376659 C31.6165305,51.6158171 31.256571,51.7722772 30.8966115,51.7722772 C30.4579108,51.7722772 30.0867026,51.5742574 29.7829868,51.1782178 L29.7829868,51.1782178 L28.9393317,50.1386139 L28.804009,49.9734246 C28.2512287,49.3374539 27.563525,49 26.8470671,49 C26.0709045,49 25.328488,49.3960396 24.7548025,50.1386139 L24.7548025,50.1386139 L23.2362234,52.0693069 L23.1718557,52.1724422 C23.1577666,52.1972443 23.144279,52.222708 23.1314971,52.2488335 C22.4977458,51.1273898 21.8784953,50.0016199 21.2801971,48.8790121 L21.337583,48.84396 L21.337583,48.84396 L21.4410061,48.7561875 L23.2937282,47.171406 L23.4382309,47.0571189 C23.7877875,46.8082269 24.2200893,46.6837809 24.6523911,46.6837809 C25.1464504,46.6837809 25.6405096,46.8463226 26.011054,47.171406 L26.011054,47.171406 L27.0403441,48.0247499 L27.2187306,48.1618474 C27.8852197,48.6455688 28.6872082,48.9187292 29.5929835,48.9187292 C30.581102,48.9187292 31.4457056,48.5936458 32.1456229,48.0247499 L32.1456229,48.0247499 L33.174913,47.1307706 L33.3194156,47.0164834 C33.6689722,46.7675915 34.101274,46.6431455 34.5335759,46.6431455 C35.0276351,46.6431455 35.5216943,46.8056872 35.8922388,47.171406 L35.8922388,47.171406 L36.9215288,48.0247499 L37.1007016,48.1618474 C37.7726946,48.6455688 38.6061336,48.9187292 39.4741682,48.9187292 C40.4211151,48.9187292 41.3268904,48.5936458 42.0268076,48.0247499 L42.0268076,48.0247499 L43.0560977,47.1307706 L43.2006004,47.0164834 C43.5501569,46.7675915 43.9824588,46.6431455 44.4147606,46.6431455 C44.9088198,46.6431455 45.4028791,46.8056872 45.7734235,47.1307706 L45.7734235,47.1307706 L46.8027136,48.0247499 L46.9818863,48.1618474 C47.6538793,48.6455688 48.4873183,48.9187292 49.355353,48.9187292 C50.3434714,48.9187292 51.2080751,48.5936458 51.9079924,48.0247499 L51.9079924,48.0247499 L52.9372824,47.1307706 L53.0817851,47.0164834 C53.4313417,46.7675915 53.8636435,46.6431455 54.2959453,46.6431455 Z M39.5,2 C51.2690075,2 65,9.4325 65,28.3515 C65,33.314555 62.2660006,40.1914881 58.5470861,47.2752486 L56.8897563,45.830437 L56.7105836,45.6840037 C56.0385906,45.1689827 55.2051516,44.8958223 54.3371169,44.8958223 C53.3901701,44.8958223 52.4843948,45.2209057 51.7844775,45.830437 L51.7844775,45.830437 L50.7551875,46.7244163 L50.6241942,46.8252906 C50.3016565,47.04696 49.8648516,47.171406 49.3965246,47.171406 C48.9024653,47.171406 48.4084061,47.0088643 48.0378617,46.6837809 L48.0378617,46.6837809 L47.0085716,45.830437 L46.8293989,45.6840037 C46.1574059,45.1689827 45.3239668,44.8958223 44.4559322,44.8958223 C44.167731,44.8958223 43.8383582,44.9364577 43.5501569,45.0177286 L43.5501569,45.0177286 L43.7971866,42.0513427 L43.9721415,41.9627785 C45.4943073,41.1137218 45.6205004,38.877426 45.9381099,36.5655607 C46.3498259,33.6398103 47.379116,25.634632 47.379116,25.634632 C47.4614592,24.9031944 46.9674,24.2936631 46.2263111,24.2123922 C45.4852223,24.1311214 44.8676482,24.6187465 44.785305,25.3501841 L44.785305,25.3501841 L44.0853878,31.1610495 L44.0643195,31.235098 C44.0024013,31.4023223 43.8537975,31.5267683 43.6736717,31.5267683 L43.6736717,31.5267683 L43.6325001,31.5267683 L43.5642197,31.5195219 C43.3839457,31.4816178 43.2253587,31.3010159 43.2619557,31.1204141 L43.2619557,31.1204141 L43.5913285,23.6028609 L43.5922839,23.4751484 C43.5642607,22.8018228 43.0149261,22.261892 42.3561804,22.261892 C41.6562632,22.2212565 41.0386892,22.7901524 40.9975175,23.4809546 L40.9975175,23.4809546 L40.6681447,30.9985078 L40.6608027,31.0658991 C40.6223985,31.2438254 40.4394136,31.400347 40.2564287,31.3642266 C40.0505707,31.3642266 39.8858843,31.2016849 39.8858843,30.9985078 L39.8858843,30.9985078 L39.2683102,22.2212565 L39.2539464,22.0865822 C39.1494594,21.4260086 38.5632465,20.9640981 37.8684757,21.0021939 C37.1273869,21.0428293 36.592156,21.6523606 36.6333276,22.3837982 L36.6333276,22.3837982 L37.1685585,30.7546953 L37.1625719,30.8341824 C37.1309449,31.0406482 36.9764243,31.1971699 36.7568424,31.1610495 L36.7568424,31.1610495 L36.6333276,31.1610495 L36.5501442,31.1515718 C36.3938601,31.114609 36.2980731,30.9752876 36.2627832,30.8359661 L36.2627832,30.8359661 L35.0688067,23.9685797 L35.0390337,23.8415345 C34.8578022,23.2192054 34.2016298,22.7977716 33.5454574,22.9120587 C32.8455401,23.033965 32.3514809,23.7247672 32.4749957,24.4155693 C32.4749957,24.4155693 33.5042858,30.0232577 33.6689722,31.2016849 C33.8336586,32.4207476 33.9160018,33.0709144 33.9571734,34.1680708 C33.998345,34.7776021 33.4631142,35.1433209 32.8867118,34.574425 C32.8867118,34.574425 31.7750785,33.233456 31.1163328,32.5832893 C30.4575872,31.9331225 29.7576699,31.68931 29.0989243,32.1362996 C28.399007,32.5832893 28.193149,33.517904 28.6872082,34.1680708 C28.6872082,34.1680708 31.5280489,38.7598735 33.2572562,40.6697384 C33.792487,41.2792697 34.4924043,41.8888011 35.2334931,42.173249 L35.2334931,42.173249 L35.4805227,45.0177286 L35.2643718,44.9643946 C35.0482209,44.9186797 34.83207,44.8958223 34.6159191,44.8958223 C33.6689722,44.8958223 32.7631969,45.2209057 32.0632797,45.830437 L32.0632797,45.830437 L31.0339896,46.7244163 L30.9030768,46.8252906 C30.581102,47.04696 30.1488001,47.171406 29.7164983,47.171406 C29.1812675,47.171406 28.7283798,47.0088643 28.3578354,46.6837809 L28.3578354,46.6837809 L27.2462021,45.830437 L27.0670294,45.6840037 C26.3950364,45.1689827 25.5615974,44.8958223 24.6935627,44.8958223 C23.7466159,44.8958223 22.8408406,45.2209057 22.1409234,45.830437 L22.1409234,45.830437 L20.4431661,47.2834942 C16.7224644,40.0736117 14,33.1340764 14,28.3515 C14,9.4325 27.7309925,2 39.5,2 Z M35.7160374,3.2702074 C35.5713502,3.22573357 35.4112293,3.24665644 35.2890483,3.32600171 C35.1872308,3.39212276 35.1107066,3.49719208 35.0798392,3.62798546 L35.0798392,3.62798546 L34.6567011,4.98256615 L34.6066283,5.11660263 C34.5086058,5.33407567 34.3401004,5.5204126 34.1364654,5.65265471 C33.8921034,5.81134524 33.5971548,5.89213924 33.3127101,5.85536407 L33.3127101,5.85536407 L32.538043,5.77701255 L32.3416586,5.76708458 C31.883235,5.76271927 31.4249132,5.89077428 30.9972797,6.16848271 C30.5085557,6.48586377 30.1820955,6.91936527 30.0129691,7.41681472 L30.0129691,7.41681472 L29.7821079,8.17585092 L29.7320351,8.30988741 C29.6340126,8.52736045 29.4655072,8.71369737 29.2618722,8.84593948 C29.0175102,9.00463001 28.7225616,9.08542401 28.4254703,9.02917472 L28.4254703,9.02917472 L27.6508032,8.9508232 L27.4535836,8.94143762 C26.9915407,8.93942271 26.5198553,9.0761561 26.1100399,9.34229335 C25.6416794,9.6464502 25.2948557,10.0931759 25.1257293,10.5906254 L25.1257293,10.5906254 L24.8948681,11.3496616 L24.8447953,11.4836981 C24.7467728,11.7011711 24.5782674,11.887508 24.3746324,12.0197501 C24.1302704,12.1784407 23.8353218,12.2592347 23.5508771,12.2224595 L23.5508771,12.2224595 L22.7635634,12.1246338 L22.5663438,12.1152483 C22.1043009,12.1132334 21.6326155,12.2499667 21.2228001,12.516104 C20.7340761,12.8334851 20.4076158,13.2669866 20.2384895,13.764436 L20.2384895,13.764436 L20.0076283,14.5234722 L19.9575555,14.6575087 C19.859533,14.8749817 19.6910276,15.0613187 19.4873926,15.1935608 C19.2430306,15.3522513 18.948082,15.4330453 18.6636373,15.3962701 L18.6636373,15.3962701 L17.2540605,15.2318684 L17.1562726,15.2226944 C17.0600454,15.2228894 16.9694547,15.2505718 16.8930916,15.3001626 C16.7709106,15.3795079 16.6663061,15.5304997 16.6480853,15.6807672 C16.6172179,15.8115606 16.6523708,15.9548538 16.7486142,16.0584744 C16.8244941,16.1753192 16.9488179,16.2330173 17.101222,16.2447927 L17.101222,16.2447927 L18.4574251,16.4161687 L18.6364147,16.4311503 C19.1143445,16.4513515 19.5945146,16.3145343 20.010835,16.0441727 C20.4791955,15.7400158 20.8260193,15.2932901 20.982499,14.7763666 L20.982499,14.7763666 L21.2133602,14.0173304 L21.2602762,13.8970083 C21.3543043,13.6981518 21.525638,13.5099782 21.7462426,13.3667159 C21.9906045,13.2080254 22.2855531,13.1272314 22.5699978,13.1640066 L22.5699978,13.1640066 L23.344665,13.2423581 L23.5236545,13.2573396 C24.0015844,13.2775408 24.4817544,13.1407237 24.8980749,12.8703621 C25.0406193,12.7777926 25.1908807,12.6525248 25.3081319,12.521007 L25.3081319,12.521007 L26.1091563,14.021964 L26.0292053,14.1605589 C25.5803248,15.0493977 26.20347,16.1466018 26.7575521,17.3386309 C27.4644759,18.8730106 29.4467785,23.0400201 29.4467785,23.0400201 C29.6336912,23.4170029 30.0677529,23.5504244 30.4595892,23.3513369 C30.8514255,23.1522493 31.0051182,22.7201966 30.8182055,22.3432138 L30.8182055,22.3432138 L29.355914,19.3336011 L29.3390183,19.2654994 C29.3282292,19.1732758 29.3642752,19.0789887 29.4457292,19.0260918 L29.4457292,19.0260918 L29.4660927,19.0128676 L29.5214124,18.9878379 C29.6195332,18.9593671 29.7401059,18.9964287 29.7758306,19.0885911 L29.7758306,19.0885911 L31.9525529,22.7970994 L32.0097159,22.8826459 C32.2380674,23.1763828 32.6634661,23.2490967 32.9807973,23.0430194 C33.3396234,22.837682 33.4680228,22.366681 33.2733933,22.0223965 L33.2733933,22.0223965 L31.096671,18.3138882 L31.0734191,18.2605398 C31.048407,18.1652659 31.0910994,18.0452513 31.1864862,18.0063789 C31.2883037,17.9402578 31.4203443,17.9652575 31.4835775,18.0626282 L31.4835775,18.0626282 L34.5207064,22.0706777 L34.5935904,22.1556447 C34.8531801,22.4153706 35.2707409,22.4393785 35.5924649,22.2052786 C35.9463612,21.9477686 36.0213869,21.4837419 35.7733838,21.1464317 L35.7733838,21.1464317 L32.9034484,17.306675 L32.8767553,17.2549134 C32.8351541,17.1487415 32.8650503,17.0310097 32.9806169,16.9796916 L32.9806169,16.9796916 L33.0417074,16.940019 L33.1035763,16.9122445 C33.1865666,16.8902454 33.269392,16.9250563 33.3261521,16.9767941 L33.3261521,16.9767941 L36.0539774,19.8844205 L36.1344642,19.9568783 C36.4190276,20.1750082 36.856022,20.1589376 37.1362397,19.9014521 C37.4444793,19.6182182 37.4738482,19.1284674 37.1977647,18.8370797 C37.1977647,18.8370797 34.9434395,16.4802546 34.4952327,15.9684016 C34.0343792,15.4370745 33.7913058,15.1519368 33.4294827,14.6393594 C33.2194195,14.3604716 33.3703251,14.0132897 33.8324672,14.1007886 C33.8324672,14.1007886 34.7996211,14.3863813 35.3277835,14.48638 C35.8559459,14.5863788 36.2780053,14.478412 36.4647081,14.0526091 C36.6717745,13.6135821 36.482719,13.099556 36.0360106,12.9466604 C36.0360106,12.9466604 33.2018577,11.6585539 31.7521982,11.2986865 C31.297773,11.1784893 30.7618938,11.1111888 30.3068242,11.2129057 L30.3068242,11.2129057 L29.2993777,9.92906166 L29.463,9.86894907 C29.5692711,9.82454643 29.6699215,9.77148861 29.7649512,9.70977563 C30.2333116,9.40561877 30.5801354,8.95889307 30.7366152,8.44196948 L30.7366152,8.44196948 L30.9674764,7.68293328 L31.014298,7.56267248 C31.1078548,7.3641221 31.2763602,7.17778517 31.4799952,7.04554306 C31.7447207,6.87362832 32.0193058,6.80605853 32.3037504,6.8428337 L32.3037504,6.8428337 L33.1191446,6.8947368 L33.2981342,6.90971834 C33.776064,6.92991955 34.256234,6.79310242 34.6725545,6.52274077 C35.140915,6.21858392 35.4877387,5.77185821 35.6442185,5.25493463 L35.6442185,5.25493463 L36.0673566,3.90035394 L36.08159,3.82133952 C36.0944174,3.71555119 36.0809053,3.60914831 36.0202013,3.51567247 C35.9443214,3.39882767 35.848078,3.29520708 35.7160374,3.2702074 Z" id="marker-inv_flooding_helpassigned-colored" fill="#F6C344" fill-rule="nonzero"></path>
    </g>
</svg>