<?xml version="1.0" encoding="UTF-8"?>
<svg width="80px" height="80px" viewBox="0 0 80 80" version="1.1" xmlns="http://www.w3.org/2000/svg" xmlns:xlink="http://www.w3.org/1999/xlink">
    <!-- Generator: Sketch 61.2 (89653) - https://sketch.com -->
    <title>map_icons</title>
    <desc>Created with Sketch.</desc>
    <g id="Page-1" stroke="none" stroke-width="1" fill="none" fill-rule="evenodd">
        <g id="marker-stroked" transform="translate(12.000000, -5.000000)" fill="#000000" fill-rule="nonzero">
            <path d="M27.5829097,80 L25.5785781,77.5160731 C20.7030415,71.5496306 1.02551612,44.6178417 1.02551612,31.550881 C0.402852908,17.5249091 11.2520525,5.64911683 25.257885,5.02555281 C25.9994877,4.99209925 26.7427607,4.99209925 27.4877039,5.02555281 C41.4935367,4.40199427 53.3522772,15.266794 53.9749459,29.2927656 C54.0083514,30.0454707 54.0083514,30.7981758 53.9749459,31.550881 C53.9749459,42.6557904 40.6010433,62.2160872 30.5342879,75.9655006 L27.5829097,80 Z M27.4877039,9.97333442 C21.6789919,9.64541758 16.0062171,11.8132529 11.8923166,15.9330689 C7.77841598,20.0528849 5.61369334,25.7338166 5.94113934,31.550881 C5.94113934,40.7439194 19.7660165,61.8497707 27.4175523,71.8657668 C33.6810885,63.2849285 49.0392793,41.8127607 49.0392793,31.550881 C49.3667253,25.7338166 47.2020027,20.0528849 43.0881021,15.9330689 C38.9742015,11.8132529 33.3014267,9.64541758 27.4927147,9.97333442 L27.4877039,9.97333442 Z" id="Layer_7"></path>
        </g>
        <g id="marker_rescue_workers" transform="translate(24.000000, 10.000000)" fill="#000000">
            <circle id="Oval" fill-rule="nonzero" cx="2.5" cy="2.5" r="2.5"></circle>
            <path d="M1.3123084,17.8287084 C1.44526214,17.9455961 1.59911497,18 1.75029982,18 C1.98374702,18 2.21363693,17.869646 2.36037517,17.6224043 L4.85848256,13.419834 C5.02923252,13.1327319 5.04701897,12.7513656 4.90339336,12.4427175 L3.05671483,8.46422681 C2.85305993,8.02630196 2.39550342,7.87063126 2.03399375,8.11679566 C1.67248409,8.36296005 1.54397696,8.91777259 1.74718719,9.35569744 L3.3595292,12.828393 L1.14155845,16.559642 C0.899218021,16.9668636 0.975699771,17.5351425 1.3123084,17.8287084 Z" id="Path" fill-rule="nonzero"></path>
            <path d="M2,24.9316209 C2,25.5214651 2.44790739,26 3.00044524,26 C3.55209261,26 4,25.5214651 4,24.9316209 L4,24.6053038 L2,22 L2,24.9316209 Z" id="Path" fill-rule="nonzero"></path>
            <path d="M3.34674401,11.9859732 L1.72062126,8.50757653 C1.44648204,7.91967851 1.62004117,7.17241732 2.10797156,6.84242859 C2.26001123,6.7393775 2.43216692,6.68531791 2.60525823,6.68531791 C2.9720247,6.68531791 3.31165793,6.92464421 3.49129865,7.30869254 L5,10.5365005 L5,9.26046893 C5,7.46692946 3.87490644,6 2.49953219,6 C1.12509356,6.00056312 0,7.4680557 0,9.26103205 L0,17 L1.015625,17 C0.855164671,16.6075049 0.870602545,16.1254735 1.09749251,15.7459302 L3.34674401,11.9859732 Z" id="Path" fill-rule="nonzero"></path>
            <polygon id="Path" fill-rule="nonzero" points="5 15 3 18 5 18"></polygon>
            <path d="M3.4373044,20.7871481 L3.4373044,17 L2.63011345,17 C2.63011345,17 1.92707617,17.8422115 1,17.5225973 L1,21.2374117 C1,21.5278681 1.09764407,21.8093529 1.27503079,22.0347651 L4.83741182,26.5379612 C5.07880965,26.8424358 5.42870089,27 5.78184693,27 C6.05308045,27 6.32648384,26.9069194 6.55269259,26.7151508 C7.07346095,26.2749804 7.15103374,25.4821128 6.72465464,24.9432545 L3.4373044,20.7871481 Z" id="Path" fill-rule="nonzero"></path>
            <circle id="Oval" fill-rule="nonzero" cx="27.5" cy="2.5" r="2.5"></circle>
            <path d="M26.3125474,17.8287084 C26.4450627,17.9455961 26.5989227,18 26.7505593,18 C26.9835727,18 27.2134733,17.869646 27.3606631,17.6224043 L29.8579977,13.419834 C30.0292003,13.1327319 30.0469876,12.7513656 29.9038,12.4427175 L28.0565906,8.46422681 C27.8529262,8.02630196 27.3953483,7.87063126 27.0338218,8.11679566 C26.6722952,8.36296005 26.5437821,8.91777259 26.7470018,9.35569744 L28.3598638,12.828393 L26.1413448,16.559642 C25.8994378,16.9668636 25.9754784,17.5351425 26.3125474,17.8287084 Z" id="Path" fill-rule="nonzero"></path>
            <path d="M27,24.9316209 C27,25.5214651 27.4483526,26 28.0004452,26 C28.5525378,26 29,25.5214651 29,24.9316209 L29,24.6053038 L27,22 L27,24.9316209 Z" id="Path" fill-rule="nonzero"></path>
            <path d="M28.3464309,11.9862796 L26.7209281,8.50770491 C26.4463467,7.91977679 26.6198896,7.17247735 27.1077743,6.84247171 C27.2602676,6.73941535 27.4324071,6.68535299 27.6050145,6.68535299 C27.9717467,6.68535299 28.3113481,6.92469155 28.4914398,7.30875954 L30,10.5367327 L30,9.26063585 C30,7.46700456 28.8750117,6 27.4992983,6 C26.1249883,6 25,7.46700456 25,9.26063585 L25,17 L26.0150622,17 C25.8550847,16.6074848 25.8700533,16.1254288 26.0969221,15.745866 L28.3464309,11.9862796 Z" id="Path" fill-rule="nonzero"></path>
            <polygon id="Path" fill-rule="nonzero" points="30 15 28 18 30 18"></polygon>
            <path d="M31.7246621,24.9432545 L28.4367651,20.7871481 L28.4367651,17 L27.6301156,17 C27.6301156,17 26.9276198,17.8422115 26,17.5225973 L26,21.2374117 C26,21.5278681 26.0976442,21.8093529 26.2755736,22.0347651 L29.8374168,26.5379612 C30.0788149,26.8424358 30.4292491,27 30.7823956,27 C31.053087,27 31.3264907,26.9069194 31.5532423,26.7151508 C32.0740113,26.2749804 32.1504992,25.4821128 31.7246621,24.9432545 Z" id="Path" fill-rule="nonzero"></path>
            <rect id="Rectangle" fill-rule="nonzero" x="11" y="15" width="13" height="1"></rect>
            <polygon id="Path" fill-rule="nonzero" points="7 16 12 16 12 15.0945274 7 14"></polygon>
            <polygon id="Path" fill-rule="nonzero" points="15.1208014 12 17.8680024 12 17.8680024 8.28254581 22 8.28254581 22 5.71638273 17.8680024 5.71638273 17.8680024 2 15.1208014 2 15.1208014 5.71638273 11 5.71638273 11 8.28254581 15.1208014 8.28254581"></polygon>
            <g id="circle_rescue_vehicle" transform="translate(7.000000, 21.000000)">
                <path d="M3.26380368,12.4848684 C4.19631902,12.4848684 4.92484663,13.2865651 4.92484663,14.2424342 C4.92484663,15.2291378 4.19631902,16 3.26380368,16 C2.33128834,16 1.60276074,15.2291378 1.60276074,14.2424342 C1.60276074,13.2865651 2.33128834,12.4848684 3.26380368,12.4848684 Z M5.39110429,1.50779087 C5.15797546,1.4152874 5.01226994,1.75446677 5.24539877,1.87780472 L6.8190184,2.55616344 C7.02300613,2.6486669 7.16871166,2.30948754 6.93558282,2.21698408 L5.39110429,1.50779087 Z M17.5138037,2.77200485 L8.74233129,2.77200485 C8.68404908,2.37115652 8.33435583,2.03197715 7.92638037,2.03197715 C7.4892638,2.03197715 7.16871166,2.37115652 7.11042945,2.77200485 L6.23619632,2.77200485 L5.39110429,3.78954294 L18.8834356,3.78954294 C18.6794479,3.20368768 18.154908,2.77200485 17.5138037,2.77200485 Z M5.30368098,3.97454987 L5.30368098,5.02292244 C4.16717791,5.02292244 3.73006135,5.20792937 2.91411043,6.22546746 L0.990797546,8.56888851 C0.437116564,9.21641275 0,10.0489439 0,10.9123096 L0,11.6215028 C0,12.4540339 0.320552147,13.5640755 0.699386503,13.5640755 L1.3696319,13.5640755 C1.63190184,12.7007098 2.38957055,12.0840201 3.29294479,12.0840201 C4.16717791,12.0840201 4.92484663,12.7007098 5.18711656,13.5640755 L13.0843558,13.5640755 C13.3466258,12.7007098 14.1042945,12.0840201 15.0076687,12.0840201 C15.8819018,12.0840201 16.6395706,12.7007098 16.9018405,13.5640755 C16.9018405,13.5640755 17.3680982,13.5640755 17.9509202,13.5640755 C18.5337423,13.5640755 19,12.8548823 19,12.0223511 L19,4.34456372 C19,4.22122577 18.9708589,4.06705333 18.9417178,3.97454987 L5.30368098,3.97454987 Z M8.21779141,1.53862535 L9.20858896,0.0894044404 C9.35429448,-0.126436972 9.64570552,0.0894044404 9.5,0.305245853 L8.50920245,1.75446677 C8.36349693,1.97030818 8.07208589,1.72363228 8.21779141,1.53862535 Z M10.4616564,1.50779087 C10.6656442,1.4152874 10.8113497,1.75446677 10.5782209,1.87780472 L9.03374233,2.55616344 C8.8006135,2.6486669 8.65490798,2.30948754 8.88803681,2.21698408 L10.4616564,1.50779087 Z M7.63496933,1.53862535 L6.64417178,0.0894044404 C6.49846626,-0.126436972 6.20705521,0.0894044404 6.35276074,0.305245853 L7.34355828,1.75446677 C7.4601227,1.97030818 7.78067485,1.72363228 7.63496933,1.53862535 Z M12.4432515,7.11966759 L13.2883436,7.11966759 C13.404908,7.11966759 13.5214724,7.24300554 13.5214724,7.39717798 L13.5214724,8.29137812 C13.5214724,8.44555056 13.404908,8.56888851 13.2883436,8.56888851 L12.4432515,8.56888851 L12.4432515,9.43225416 C12.4432515,9.55559211 12.3266871,9.67893006 12.1809816,9.67893006 L11.3358896,9.67893006 C11.2193252,9.67893006 11.1027607,9.55559211 11.1027607,9.43225416 L11.1027607,8.56888851 L10.3159509,8.56888851 C10.1702454,8.56888851 10.053681,8.44555056 10.053681,8.29137812 L10.053681,7.39717798 C10.053681,7.24300554 10.1702454,7.11966759 10.3159509,7.11966759 L11.1027607,7.11966759 L11.1027607,6.28713643 C11.1027607,6.13296399 11.2193252,6.00962604 11.3358896,6.00962604 L12.1809816,6.00962604 C12.3266871,6.00962604 12.4432515,6.13296399 12.4432515,6.28713643 L12.4432515,7.11966759 Z M12.1809816,6.28713643 L11.3358896,6.28713643 L11.3358896,7.39717798 L10.3159509,7.39717798 L10.3159509,8.29137812 L11.3358896,8.29137812 L11.3358896,9.43225416 L12.1809816,9.43225416 L12.1809816,8.29137812 L13.2883436,8.29137812 L13.2883436,7.39717798 L12.1809816,7.39717798 L12.1809816,6.28713643 Z M11.8021472,4.65290859 C13.4631902,4.65290859 14.8328221,6.07129502 14.8328221,7.8596953 C14.8328221,9.61726108 13.4631902,11.066482 11.8021472,11.066482 C10.1119632,11.066482 8.77147239,9.61726108 8.77147239,7.8596953 C8.77147239,6.07129502 10.1119632,4.65290859 11.8021472,4.65290859 Z M9.4708589,7.8596953 C9.4708589,9.21641275 10.5199387,10.2956198 11.8021472,10.2956198 C13.0843558,10.2956198 14.1042945,9.21641275 14.1042945,7.8596953 C14.1042945,4.62207411 9.4708589,4.62207411 9.4708589,7.8596953 Z M5.36196319,8.29137812 C5.36196319,8.69222646 5.04141104,9.06224031 4.63343558,9.06224031 L2.97239264,9.06224031 C2.59355828,9.06224031 2.0690184,8.69222646 2.33128834,8.38388158 C4.19631902,6.07129502 5.39110429,4.49873616 5.36196319,8.29137812 Z M14.9785276,12.392365 C15.8819018,12.392365 16.6395706,13.1632271 16.6395706,14.1499307 C16.6395706,15.1057999 15.8819018,15.9074965 14.9785276,15.9074965 C14.0460123,15.9074965 13.3174847,15.1057999 13.3174847,14.1499307 C13.3174847,13.1632271 14.0460123,12.392365 14.9785276,12.392365 Z" id="Shape"></path>
            </g>
        </g>
    </g>
</svg>