<?xml version="1.0" encoding="UTF-8"?>
<svg width="55px" height="80px" viewBox="0 0 55 80" version="1.1" xmlns="http://www.w3.org/2000/svg" xmlns:xlink="http://www.w3.org/1999/xlink">
    <!-- Generator: Sketch 61.2 (89653) - https://sketch.com -->
    <title>map_icons</title>
    <desc>Created with Sketch.</desc>
    <g id="Page-1" stroke="none" stroke-width="1" fill="none" fill-rule="evenodd">
        <g id="marker-stroked-15" fill="#000000" fill-rule="nonzero">
            <path d="M27.5829097,80 L25.5785781,77.5160731 C20.7030415,71.5496306 1.02551612,44.6178417 1.02551612,31.550881 C0.402852908,17.5249091 11.2520525,5.64911683 25.257885,5.02555281 C25.9994877,4.99209925 26.7427607,4.99209925 27.4877039,5.02555281 C41.4935367,4.40199427 53.3522772,15.266794 53.9749459,29.2927656 C54.0083514,30.0454707 54.0083514,30.7981758 53.9749459,31.550881 C53.9749459,42.6557904 40.6010433,62.2160872 30.5342879,75.9655006 L27.5829097,80 Z M27.4877039,9.97333442 C21.6789919,9.64541758 16.0062171,11.8132529 11.8923166,15.9330689 C7.77841598,20.0528849 5.61369334,25.7338166 5.94113934,31.550881 C5.94113934,40.7439194 19.7660165,61.8497707 27.4175523,71.8657668 C33.6810885,63.2849285 49.0392793,41.8127607 49.0392793,31.550881 C49.3667253,25.7338166 47.2020027,20.0528849 43.0881021,15.9330689 C38.9742015,11.8132529 33.3014267,9.64541758 27.4927147,9.97333442 L27.4877039,9.97333442 Z" id="Layer_7"></path>
        </g>
        <g id="noun_rescue_funny" transform="translate(13.000000, 15.000000)" fill="#000000" fill-rule="nonzero">
            <path d="M27.4969355,30.5 C27.0362903,30.5 26.8287097,30.251 26.5412903,29.90675 C26.2040323,29.5025 25.785,29 24.9933871,29 C24.2027419,29 23.7837097,29.5025 23.4469355,29.90675 C23.1595161,30.251 22.9524194,30.5 22.4922581,30.5 C22.0330645,30.5 21.8259677,30.251 21.5390323,29.90675 C21.2022581,29.5025 20.7832258,29 19.9930645,29 C19.2024194,29 18.7833871,29.5025 18.4466129,29.90675 C18.1596774,30.251 17.9520968,30.5 17.4924194,30.5 C17.0327419,30.5 16.8256452,30.251 16.5387097,29.90675 C16.2014516,29.5025 15.7829032,29 14.9922581,29 C14.2020968,29 13.7825806,29.5025 13.4462903,29.90675 C13.1593548,30.251 12.9517742,30.5 12.4920968,30.5 C12.0324194,30.5 11.8253226,30.251 11.5383871,29.90675 C11.2020968,29.5025 10.7830645,29 9.99241935,29 C9.20225806,29 8.78322581,29.5025 8.44693548,29.90675 C8.16,30.251 7.95290323,30.5 7.49370968,30.5 C7.035,30.5 6.82790323,30.251 6.54096774,29.90675 C6.20467742,29.50325 5.78612903,29 4.99596774,29 C4.20580645,29 3.78677419,29.5025 3.45048387,29.90675 C3.16354839,30.251 2.95596774,30.5 2.49677419,30.5 C2.03806452,30.5 1.83145161,30.251 1.545,29.90675 C1.20870968,29.50325 0.789677419,29 0,29 L0,30.5 C0.458709677,30.5 0.665322581,30.749 0.951774194,31.09325 C1.28854839,31.49675 1.70709677,32 2.49677419,32 C3.28693548,32 3.70596774,31.4975 4.04274194,31.09325 C4.32967742,30.749 4.53629032,30.5 4.99596774,30.5 C5.45467742,30.5 5.66177419,30.749 5.94870968,31.09325 C6.285,31.49675 6.70354839,32 7.49370968,32 C8.28387097,32 8.70290323,31.4975 9.03919355,31.09325 C9.32612903,30.749 9.53322581,30.5 9.99241935,30.5 C10.4520968,30.5 10.6591935,30.749 10.946129,31.09325 C11.2829032,31.4975 11.7019355,32 12.4920968,32 C13.2827419,32 13.7017742,31.4975 14.0385484,31.09325 C14.3254839,30.749 14.5325806,30.5 14.9922581,30.5 C15.4519355,30.5 15.6590323,30.749 15.9459677,31.09325 C16.2827419,31.4975 16.7017742,32 17.4924194,32 C18.2830645,32 18.7020968,31.4975 19.038871,31.09325 C19.3258065,30.749 19.5333871,30.5 19.9930645,30.5 C20.4522581,30.5 20.6593548,30.749 20.9462903,31.09325 C21.2830645,31.4975 21.7020968,32 22.4922581,32 C23.2829032,32 23.7024194,31.4975 24.0391935,31.09325 C24.326129,30.749 24.5337097,30.5 24.9933871,30.5 C25.4540323,30.5 25.6616129,30.749 25.9490323,31.09325 C26.2862903,31.4975 26.7058065,32 27.4969355,32 C28.2880645,32 28.7075806,31.4975 29.0448387,31.09325 C29.3317742,30.749 29.5393548,30.5 30,30.5 L30,29 C29.208871,29 28.7898387,29.5025 28.4525806,29.90675 C28.1651613,30.251 27.9575806,30.5 27.4969355,30.5 Z" id="Path"></path>
            <path d="M27.4969355,25.5 C27.0362903,25.5 26.8287097,25.251 26.5412903,24.90675 C26.2040323,24.5025 25.785,24 24.9933871,24 C24.2027419,24 23.7837097,24.5025 23.4469355,24.90675 C23.1595161,25.251 22.9524194,25.5 22.4922581,25.5 C22.0330645,25.5 21.8259677,25.251 21.5390323,24.90675 C21.2022581,24.5025 20.7832258,24 19.9930645,24 C19.2024194,24 18.7833871,24.5025 18.4466129,24.90675 C18.1596774,25.251 17.9520968,25.5 17.4924194,25.5 C17.0327419,25.5 16.8256452,25.251 16.5387097,24.90675 C16.2014516,24.5025 15.7829032,24 14.9922581,24 C14.2020968,24 13.7825806,24.5025 13.4462903,24.90675 C13.1593548,25.251 12.9517742,25.5 12.4920968,25.5 C12.0324194,25.5 11.8253226,25.251 11.5383871,24.90675 C11.2020968,24.5025 10.7830645,24 9.99241935,24 C9.20225806,24 8.78322581,24.5025 8.44693548,24.90675 C8.16,25.251 7.95290323,25.5 7.49370968,25.5 C7.035,25.5 6.82790323,25.251 6.54096774,24.90675 C6.20467742,24.50325 5.78612903,24 4.99596774,24 C4.20580645,24 3.78677419,24.5025 3.45048387,24.90675 C3.16354839,25.251 2.95596774,25.5 2.49677419,25.5 C2.03806452,25.5 1.83145161,25.251 1.545,24.90675 C1.20870968,24.50325 0.789677419,24 0,24 L0,25.5 C0.458709677,25.5 0.665322581,25.749 0.951774194,26.09325 C1.28854839,26.49675 1.70709677,27 2.49677419,27 C3.28693548,27 3.70596774,26.4975 4.04274194,26.09325 C4.32967742,25.749 4.53629032,25.5 4.99596774,25.5 C5.45467742,25.5 5.66177419,25.749 5.94870968,26.09325 C6.285,26.49675 6.70354839,27 7.49370968,27 C8.28387097,27 8.70290323,26.4975 9.03919355,26.09325 C9.32612903,25.749 9.53322581,25.5 9.99241935,25.5 C10.4520968,25.5 10.6591935,25.749 10.946129,26.09325 C11.2829032,26.4975 11.7019355,27 12.4920968,27 C13.2827419,27 13.7017742,26.4975 14.0385484,26.09325 C14.3254839,25.749 14.5325806,25.5 14.9922581,25.5 C15.4519355,25.5 15.6590323,25.749 15.9459677,26.09325 C16.2827419,26.4975 16.7017742,27 17.4924194,27 C18.2830645,27 18.7020968,26.4975 19.038871,26.09325 C19.3258065,25.749 19.5333871,25.5 19.9930645,25.5 C20.4522581,25.5 20.6593548,25.749 20.9462903,26.09325 C21.2830645,26.4975 21.7020968,27 22.4922581,27 C23.2829032,27 23.7024194,26.4975 24.0391935,26.09325 C24.326129,25.749 24.5337097,25.5 24.9933871,25.5 C25.4540323,25.5 25.6616129,25.749 25.9490323,26.09325 C26.2862903,26.4975 26.7058065,27 27.4969355,27 C28.2880645,27 28.7075806,26.4975 29.0448387,26.09325 C29.3317742,25.749 29.5393548,25.5 30,25.5 L30,24 C29.208871,24 28.7898387,24.5025 28.4525806,24.90675 C28.1651613,25.251 27.9575806,25.5 27.4969355,25.5 Z" id="Path"></path>
            <path d="M2.49677419,23.4693878 C3.28693548,23.4693878 3.70596774,23.127551 4.04274194,22.852551 C4.32967742,22.6183673 4.53629032,22.4489796 4.99596774,22.4489796 C5.45467742,22.4489796 5.66177419,22.6183673 5.94870968,22.852551 C6.285,23.1270408 6.70354839,23.4693878 7.49370968,23.4693878 C8.28387097,23.4693878 8.70290323,23.127551 9.03919355,22.852551 C9.32612903,22.6183673 9.53322581,22.4489796 9.99241935,22.4489796 C10.4520968,22.4489796 10.6591935,22.6183673 10.946129,22.852551 C11.2829032,23.127551 11.7019355,23.4693878 12.4920968,23.4693878 C13.2827419,23.4693878 13.7017742,23.127551 14.0385484,22.852551 C14.3254839,22.6183673 14.5325806,22.4489796 14.9922581,22.4489796 C15.4519355,22.4489796 15.6590323,22.6183673 15.9459677,22.852551 C16.2827419,23.127551 16.7017742,23.4693878 17.4924194,23.4693878 C18.2830645,23.4693878 18.7020968,23.127551 19.038871,22.852551 C19.3258065,22.6183673 19.5333871,22.4489796 19.9930645,22.4489796 C20.4522581,22.4489796 20.6593548,22.6183673 20.9462903,22.852551 C21.2830645,23.127551 21.7020968,23.4693878 22.4922581,23.4693878 C23.2829032,23.4693878 23.7019355,23.127551 24.0387097,22.852551 C24.1190323,22.7872449 24.1935484,22.7295918 24.2680645,22.6765306 L25.4003226,24.3045918 C25.7032258,24.7403061 26.1890323,25 26.7009677,25 C27.0658065,25 27.423871,24.8678571 27.7083871,24.627551 L29.5737097,23.0545918 C29.8446774,22.8255102 30,22.4841837 30,22.1178571 C30,21.4566327 29.4895161,20.9183673 28.8624194,20.9183673 L27.3416129,20.9183673 L22.8546774,14.4668367 C22.1970968,13.5214286 21.0145161,13.0683673 19.9296774,13.3530612 L12.5206452,15.3061224 L11.0332258,15.3061224 L10.9064516,14.7056122 C10.7666129,14.0413265 10.5929032,13.3887755 10.3925806,12.747449 L17.3235484,5.89642857 C17.6917742,5.53214286 17.9032258,5.01734694 17.9032258,4.48520408 C17.9032258,3.41887755 17.0801613,2.55102041 16.068871,2.55102041 L16.0141935,2.55102041 C15.5496774,2.55102041 15.1064516,2.73469388 14.7658065,3.06785714 L8.76677419,8.94183673 C8.60419355,8.64744898 8.43532258,8.35612245 8.25822581,8.06938776 C8.83596774,7.42857143 9.19354839,6.56428571 9.19354839,5.6122449 L9.19354839,3.57142857 C9.19354839,1.60204082 7.67419355,0 5.80645161,0 C3.93870968,0 2.41935484,1.60204082 2.41935484,3.57142857 L2.41935484,5.6122449 C2.41935484,6.77244898 2.94919355,7.80204082 3.76451613,8.45459184 C3.24967742,8.79234694 2.90322581,9.38928571 2.90322581,10.0739796 C2.90322581,10.1918367 2.9133871,10.3096939 2.93419355,10.4260204 L3.98370968,16.3265306 L3.38709677,16.3265306 C1.51935484,16.3265306 0,17.9285714 0,19.8979592 C0,20.4535714 0.12,20.9816327 0.335322581,21.4535714 C0.230806452,21.4387755 0.120967742,21.4285714 0,21.4285714 L0,22.4489796 C0.458709677,22.4489796 0.665322581,22.6183673 0.951774194,22.852551 C1.28854839,23.1270408 1.70709677,23.4693878 2.49677419,23.4693878 Z M4.99596774,21.4285714 C4.74774194,21.4285714 4.53919355,21.4647959 4.35483871,21.519898 L4.35483871,18.0433673 C4.59822581,18.5428571 5.08693548,18.877551 5.64193548,18.877551 L6.29032258,18.877551 L6.29032258,21.8494898 C5.99032258,21.6311224 5.60322581,21.4285714 4.99596774,21.4285714 Z M8.44693548,22.0454082 C8.16,22.2795918 7.95290323,22.4489796 7.49370968,22.4489796 C7.40419355,22.4489796 7.33112903,22.4377551 7.25806452,22.4255102 L7.25806452,18.877551 L10.6451613,18.877551 L10.6451613,21.5229592 C10.4583871,21.4663265 10.2459677,21.4285714 9.99241935,21.4285714 C9.20225806,21.4285714 8.78322581,21.7704082 8.44693548,22.0454082 Z M12.4920968,22.4489796 C12.0740323,22.4489796 11.8630645,22.3056122 11.6129032,22.1040816 L11.6129032,18.877551 L13.3064516,18.877551 C13.3891935,18.877551 13.4685484,18.8637755 13.5483871,18.8515306 L13.5483871,21.9627551 C13.5135484,21.9908163 13.4791935,22.0183673 13.4462903,22.0454082 C13.1593548,22.2795918 12.9517742,22.4489796 12.4920968,22.4489796 Z M16.5387097,22.0454082 C16.2014516,21.7704082 15.7829032,21.4285714 14.9922581,21.4285714 C14.8151613,21.4285714 14.6593548,21.4479592 14.516129,21.477551 L14.516129,18.3377551 C14.7604839,18.0734694 14.9230645,17.7290816 14.9753226,17.3469388 L17.9032258,17.3469388 L17.9032258,22.3811224 C17.7870968,22.4204082 17.6593548,22.4489796 17.4924194,22.4489796 C17.0327419,22.4489796 16.8251613,22.2795918 16.5387097,22.0454082 Z M18.8709677,21.7326531 L18.8709677,17.3469388 L20.561129,17.3469388 L20.8064516,17.6994898 L20.8064516,21.5790816 C20.5848387,21.4897959 20.3225806,21.4285714 19.9930645,21.4285714 C19.496129,21.4285714 19.1462903,21.5637755 18.8709677,21.7326531 Z M23.4469355,22.0454082 C23.1595161,22.2795918 22.9524194,22.4489796 22.4922581,22.4489796 C22.1646774,22.4489796 21.9658065,22.3602041 21.7741935,22.2260204 L21.7741935,19.0908163 L23.6946774,21.8515306 C23.6051613,21.9173469 23.5229032,21.9831633 23.4469355,22.0454082 Z M20.1643548,14.3428571 C20.8712903,14.1571429 21.6454839,14.452551 22.0741935,15.069898 L26.561129,21.5219388 C26.7435484,21.7826531 27.0353226,21.9387755 27.3420968,21.9387755 L28.8629032,21.9387755 C28.9562903,21.9387755 29.0322581,22.0188776 29.0322581,22.1178571 C29.0322581,22.172449 29.0090323,22.2239796 28.968871,22.2576531 L27.1035484,23.8306122 C26.8306452,24.0612245 26.3879032,23.9994898 26.1812903,23.7020408 L21.7741935,17.3653061 L21.7741935,17.3469388 L21.7616129,17.3469388 L21.3416129,16.7433673 C21.1596774,16.4826531 20.8679032,16.3265306 20.561129,16.3265306 L14.8301613,16.3265306 C14.7474194,16.1443878 14.6404839,15.9760204 14.5069355,15.8346939 L20.1643548,14.3428571 Z M7.49419355,8.70408163 C8.66080645,10.6137755 9.49354839,12.7045918 9.96193548,14.9265306 L10.0422581,15.3061224 L7.64951613,15.3061224 L6.50467742,9.67346939 C6.46548387,9.48163265 6.39532258,9.30459184 6.30677419,9.14030612 C6.73354839,9.07295918 7.13467742,8.92346939 7.49419355,8.70408163 Z M15.4243548,3.81581633 C15.585,3.65816327 15.795,3.57142857 16.0141935,3.57142857 L16.068871,3.57142857 C16.5469355,3.57142857 16.9354839,3.98112245 16.9354839,4.48520408 C16.9354839,4.73673469 16.8353226,4.97959184 16.6616129,5.15204082 L10.0335484,11.7035714 C9.80032258,11.077551 9.53758065,10.4642857 9.24580645,9.86530612 L15.4243548,3.81581633 Z M3.38709677,5.6122449 L3.38709677,3.57142857 C3.38709677,2.16479592 4.47241935,1.02040816 5.80645161,1.02040816 C7.14048387,1.02040816 8.22580645,2.16479592 8.22580645,3.57142857 L8.22580645,5.6122449 C8.22580645,7.01887755 7.14048387,8.16326531 5.80645161,8.16326531 C4.47241935,8.16326531 3.38709677,7.01887755 3.38709677,5.6122449 Z M3.87096774,10.0739796 C3.87096774,9.58316327 4.24983871,9.18367347 4.73274194,9.18367347 C5.12806452,9.18367347 5.47548387,9.47959184 5.55822581,9.8872449 L6.8666129,16.3265306 L13.3064516,16.3265306 C13.7066129,16.3265306 14.0322581,16.669898 14.0322581,17.0918367 C14.0322581,17.5137755 13.7066129,17.8571429 13.3064516,17.8571429 L5.64193548,17.8571429 C5.40967742,17.8571429 5.20935484,17.6821429 5.16677419,17.4413265 L3.88548387,10.2382653 C3.87580645,10.1841837 3.87096774,10.1290816 3.87096774,10.0739796 Z M3.38709677,17.3469388 L3.38709677,22.0954082 C3.22693548,22.225 3.07741935,22.327551 2.88870968,22.3877551 C1.77096774,22.1408163 0.967741935,21.1147959 0.967741935,19.8979592 C0.967741935,18.4913265 2.05306452,17.3469388 3.38709677,17.3469388 Z" id="Shape"></path>
        </g>
    </g>
</svg>