<?xml version="1.0" encoding="UTF-8"?>
<svg width="55px" height="80px" viewBox="0 0 55 80" version="1.1" xmlns="http://www.w3.org/2000/svg" xmlns:xlink="http://www.w3.org/1999/xlink">
    <!-- Generator: Sketch 61.2 (89653) - https://sketch.com -->
    <title>map_icons</title>
    <desc>Created with Sketch.</desc>
    <g id="Page-1" stroke="none" stroke-width="1" fill="none" fill-rule="evenodd">
        <g id="marker-stroked-15" fill="#000000" fill-rule="nonzero">
            <path d="M27.5829097,80 L25.5785781,77.5160731 C20.7030415,71.5496306 1.02551612,44.6178417 1.02551612,31.550881 C0.402852908,17.5249091 11.2520525,5.64911683 25.257885,5.02555281 C25.9994877,4.99209925 26.7427607,4.99209925 27.4877039,5.02555281 C41.4935367,4.40199427 53.3522772,15.266794 53.9749459,29.2927656 C54.0083514,30.0454707 54.0083514,30.7981758 53.9749459,31.550881 C53.9749459,42.6557904 40.6010433,62.2160872 30.5342879,75.9655006 L27.5829097,80 Z M27.4877039,9.97333442 C21.6789919,9.64541758 16.0062171,11.8132529 11.8923166,15.9330689 C7.77841598,20.0528849 5.61369334,25.7338166 5.94113934,31.550881 C5.94113934,40.7439194 19.7660165,61.8497707 27.4175523,71.8657668 C33.6810885,63.2849285 49.0392793,41.8127607 49.0392793,31.550881 C49.3667253,25.7338166 47.2020027,20.0528849 43.0881021,15.9330689 C38.9742015,11.8132529 33.3014267,9.64541758 27.4927147,9.97333442 L27.4877039,9.97333442 Z" id="Layer_7"></path>
        </g>
        <g id="noun_hospital_circle" transform="translate(10.000000, 15.000000)" fill="#000000" fill-rule="nonzero">
            <path d="M17.5,35 C27.1519231,35 35,27.1519231 35,17.5 C35,7.84807692 27.1519231,0 17.5,0 C7.84807692,0 0,7.84807692 0,17.5 C0,27.1519231 7.84807692,35 17.5,35 Z M7.47115385,15.1173077 C7.47115385,14.9288462 7.61923077,14.7807692 7.80769231,14.7807692 L14.7807692,14.7807692 L14.7807692,7.80769231 C14.7807692,7.61923077 14.9288462,7.47115385 15.1173077,7.47115385 L19.8759615,7.47115385 C20.0644231,7.47115385 20.2125,7.61923077 20.2125,7.80769231 L20.2125,14.7807692 L27.1923077,14.7807692 C27.3807692,14.7807692 27.5288462,14.9288462 27.5288462,15.1173077 L27.5288462,19.8759615 C27.5288462,20.0644231 27.3807692,20.2125 27.1923077,20.2125 L20.2192308,20.2125 L20.2192308,27.1923077 C20.2192308,27.3807692 20.0711538,27.5288462 19.8826923,27.5288462 L15.1240385,27.5288462 C14.9355769,27.5288462 14.7875,27.3807692 14.7875,27.1923077 L14.7875,20.2192308 L7.80769231,20.2192308 C7.61923077,20.2192308 7.47115385,20.0711538 7.47115385,19.8826923 L7.47115385,15.1173077 Z" id="Shape"></path>
        </g>
    </g>
</svg>