<?xml version="1.0" encoding="UTF-8"?>
<svg width="55px" height="80px" viewBox="0 0 55 80" version="1.1" xmlns="http://www.w3.org/2000/svg" xmlns:xlink="http://www.w3.org/1999/xlink">
    <!-- Generator: Sketch 61.2 (89653) - https://sketch.com -->
    <title>map_icons</title>
    <desc>Created with Sketch.</desc>
    <g id="Page-1" stroke="none" stroke-width="1" fill="none" fill-rule="evenodd">
        <g id="marker-stroked-15" fill="#000000" fill-rule="nonzero">
            <path d="M27.5829097,80 L25.5785781,77.5160731 C20.7030415,71.5496306 1.02551612,44.6178417 1.02551612,31.550881 C0.402852908,17.5249091 11.2520525,5.64911683 25.257885,5.02555281 C25.9994877,4.99209925 26.7427607,4.99209925 27.4877039,5.02555281 C41.4935367,4.40199427 53.3522772,15.266794 53.9749459,29.2927656 C54.0083514,30.0454707 54.0083514,30.7981758 53.9749459,31.550881 C53.9749459,42.6557904 40.6010433,62.2160872 30.5342879,75.9655006 L27.5829097,80 Z M27.4877039,9.97333442 C21.6789919,9.64541758 16.0062171,11.8132529 11.8923166,15.9330689 C7.77841598,20.0528849 5.61369334,25.7338166 5.94113934,31.550881 C5.94113934,40.7439194 19.7660165,61.8497707 27.4175523,71.8657668 C33.6810885,63.2849285 49.0392793,41.8127607 49.0392793,31.550881 C49.3667253,25.7338166 47.2020027,20.0528849 43.0881021,15.9330689 C38.9742015,11.8132529 33.3014267,9.64541758 27.4927147,9.97333442 L27.4877039,9.97333442 Z" id="Layer_7"></path>
        </g>
        <g id="noun_rescue_vehicle" transform="translate(13.000000, 20.000000)" fill="#000000">
            <path d="M5.15337423,19.5076069 C6.62576687,19.5076069 7.77607362,20.760258 7.77607362,22.2538035 C7.77607362,23.7955278 6.62576687,25 5.15337423,25 C3.6809816,25 2.53067485,23.7955278 2.53067485,22.2538035 C2.53067485,20.760258 3.6809816,19.5076069 5.15337423,19.5076069 Z M8.51226994,2.35592323 C8.14417178,2.21138657 7.91411043,2.74135432 8.28220859,2.93406987 L10.7668712,3.99400538 C11.0889571,4.13854204 11.3190184,3.60857428 10.9509202,3.46403762 L8.51226994,2.35592323 Z M27.6533742,4.33125759 L13.803681,4.33125759 C13.7116564,3.70493206 13.1595092,3.1749643 12.5153374,3.1749643 C11.8251534,3.1749643 11.3190184,3.70493206 11.2269939,4.33125759 L9.84662577,4.33125759 L8.51226994,5.92116085 L29.8159509,5.92116085 C29.493865,5.005762 28.6656442,4.33125759 27.6533742,4.33125759 Z M8.37423313,6.21023417 L8.37423313,7.84831632 C6.5797546,7.84831632 5.88957055,8.13738964 4.60122699,9.7272929 L1.56441718,13.3888883 C0.690184049,14.4006449 0,15.7014749 0,17.0504837 L0,18.1585981 C0,19.459428 0.506134969,21.1938679 1.10429448,21.1938679 L2.16257669,21.1938679 C2.57668712,19.8448591 3.77300613,18.8812814 5.1993865,18.8812814 C6.5797546,18.8812814 7.77607362,19.8448591 8.19018405,21.1938679 L20.6595092,21.1938679 C21.0736196,19.8448591 22.2699387,18.8812814 23.696319,18.8812814 C25.0766871,18.8812814 26.2730061,19.8448591 26.6871166,21.1938679 C26.6871166,21.1938679 27.4233129,21.1938679 28.3435583,21.1938679 C29.2638037,21.1938679 30,20.0857536 30,18.7849236 L30,6.78838081 C30,6.59566526 29.9539877,6.35477083 29.9079755,6.21023417 L8.37423313,6.21023417 Z M12.9754601,2.40410212 L14.5398773,0.139694438 C14.7699387,-0.197557769 15.2300613,0.139694438 15,0.476946645 L13.4355828,2.74135432 C13.2055215,3.07860653 12.7453988,2.69317544 12.9754601,2.40410212 Z M16.5184049,2.35592323 C16.8404908,2.21138657 17.0705521,2.74135432 16.702454,2.93406987 L14.2638037,3.99400538 C13.8957055,4.13854204 13.6656442,3.60857428 14.0337423,3.46403762 L16.5184049,2.35592323 Z M12.0552147,2.40410212 L10.4907975,0.139694438 C10.2607362,-0.197557769 9.8006135,0.139694438 10.0306748,0.476946645 L11.595092,2.74135432 C11.7791411,3.07860653 12.2852761,2.69317544 12.0552147,2.40410212 Z M19.6472393,11.1244806 L20.9815951,11.1244806 C21.1656442,11.1244806 21.3496933,11.3171962 21.3496933,11.5580906 L21.3496933,12.9552783 C21.3496933,13.1961727 21.1656442,13.3888883 20.9815951,13.3888883 L19.6472393,13.3888883 L19.6472393,14.7378971 C19.6472393,14.9306127 19.4631902,15.1233282 19.2331288,15.1233282 L17.898773,15.1233282 C17.7147239,15.1233282 17.5306748,14.9306127 17.5306748,14.7378971 L17.5306748,13.3888883 L16.2883436,13.3888883 C16.0582822,13.3888883 15.8742331,13.1961727 15.8742331,12.9552783 L15.8742331,11.5580906 C15.8742331,11.3171962 16.0582822,11.1244806 16.2883436,11.1244806 L17.5306748,11.1244806 L17.5306748,9.82365067 C17.5306748,9.58275624 17.7147239,9.39004069 17.898773,9.39004069 L19.2331288,9.39004069 C19.4631902,9.39004069 19.6472393,9.58275624 19.6472393,9.82365067 L19.6472393,11.1244806 Z M19.2331288,9.82365067 L17.898773,9.82365067 L17.898773,11.5580906 L16.2883436,11.5580906 L16.2883436,12.9552783 L17.898773,12.9552783 L17.898773,14.7378971 L19.2331288,14.7378971 L19.2331288,12.9552783 L20.9815951,12.9552783 L20.9815951,11.5580906 L19.2331288,11.5580906 L19.2331288,9.82365067 Z M18.6349693,7.27016968 C21.2576687,7.27016968 23.4202454,9.48639847 23.4202454,12.2807739 C23.4202454,15.0269704 21.2576687,17.2913781 18.6349693,17.2913781 C15.9662577,17.2913781 13.8496933,15.0269704 13.8496933,12.2807739 C13.8496933,9.48639847 15.9662577,7.27016968 18.6349693,7.27016968 Z M14.9539877,12.2807739 C14.9539877,14.4006449 16.6104294,16.086906 18.6349693,16.086906 C20.6595092,16.086906 22.2699387,14.4006449 22.2699387,12.2807739 C22.2699387,7.22199079 14.9539877,7.22199079 14.9539877,12.2807739 Z M8.46625767,12.9552783 C8.46625767,13.5816038 7.9601227,14.1597505 7.31595092,14.1597505 L4.69325153,14.1597505 C4.09509202,14.1597505 3.26687117,13.5816038 3.6809816,13.099815 C6.62576687,9.48639847 8.51226994,7.02927524 8.46625767,12.9552783 Z M23.6503067,19.3630703 C25.0766871,19.3630703 26.2730061,20.5675424 26.2730061,22.1092668 C26.2730061,23.6028123 25.0766871,24.8554633 23.6503067,24.8554633 C22.1779141,24.8554633 21.0276074,23.6028123 21.0276074,22.1092668 C21.0276074,20.5675424 22.1779141,19.3630703 23.6503067,19.3630703 Z" id="Shape"></path>
        </g>
    </g>
</svg>