<?xml version="1.0" encoding="UTF-8"?>
<svg width="55px" height="80px" viewBox="0 0 55 80" version="1.1" xmlns="http://www.w3.org/2000/svg" xmlns:xlink="http://www.w3.org/1999/xlink">
    <!-- Generator: Sketch 61.2 (89653) - https://sketch.com -->
    <title>map_icons</title>
    <desc>Created with Sketch.</desc>
    <g id="Page-1" stroke="none" stroke-width="1" fill="none" fill-rule="evenodd">
        <g id="marker-stroked-15" fill="#000000" fill-rule="nonzero">
            <path d="M27.5829097,80 L25.5785781,77.5160731 C20.7030415,71.5496306 1.02551612,44.6178417 1.02551612,31.550881 C0.402852908,17.5249091 11.2520525,5.64911683 25.257885,5.02555281 C25.9994877,4.99209925 26.7427607,4.99209925 27.4877039,5.02555281 C41.4935367,4.40199427 53.3522772,15.266794 53.9749459,29.2927656 C54.0083514,30.0454707 54.0083514,30.7981758 53.9749459,31.550881 C53.9749459,42.6557904 40.6010433,62.2160872 30.5342879,75.9655006 L27.5829097,80 Z M27.4877039,9.97333442 C21.6789919,9.64541758 16.0062171,11.8132529 11.8923166,15.9330689 C7.77841598,20.0528849 5.61369334,25.7338166 5.94113934,31.550881 C5.94113934,40.7439194 19.7660165,61.8497707 27.4175523,71.8657668 C33.6810885,63.2849285 49.0392793,41.8127607 49.0392793,31.550881 C49.3667253,25.7338166 47.2020027,20.0528849 43.0881021,15.9330689 C38.9742015,11.8132529 33.3014267,9.64541758 27.4927147,9.97333442 L27.4877039,9.97333442 Z" id="Layer_7"></path>
        </g>
        <g id="noun_rescue_workers" transform="translate(13.000000, 19.000000)" fill="#000000" fill-rule="nonzero">
            <circle id="Oval" cx="2.5" cy="2.5" r="2.5"></circle>
            <path d="M1.3123084,15.8458375 C1.44526214,15.9510364 1.59911497,16 1.75029982,16 C1.98374702,16 2.21363693,15.8826814 2.36037517,15.6601639 L4.85848256,11.8778506 C5.02923252,11.6194587 5.04701897,11.2762291 4.90339336,10.9984458 L3.05671483,7.41780413 C2.85305993,7.02367176 2.39550342,6.88356813 2.03399375,7.10511609 C1.67248409,7.32666405 1.54397696,7.82599533 1.74718719,8.2201277 L3.3595292,11.3455537 L1.14155845,14.7036778 C0.899218021,15.0701773 0.975699771,15.5816283 1.3123084,15.8458375 Z" id="Path"></path>
            <path d="M2,23.9316209 C2,24.5214651 2.44790739,25 3.00044524,25 C3.55209261,25 4,24.5214651 4,23.9316209 L4,23.6053038 L2,21 L2,23.9316209 Z" id="Path"></path>
            <path d="M3.34674401,11.4417938 L1.72062126,8.27961503 C1.44648204,7.74516228 1.62004117,7.06583393 2.10797156,6.76584417 C2.26001123,6.67216136 2.43216692,6.62301628 2.60525823,6.62301628 C2.9720247,6.62301628 3.31165793,6.84058565 3.49129865,7.18972049 L5,10.1240913 L5,8.96406266 C5,7.33357223 3.87490644,6 2.49953219,6 C1.12509356,6.00051193 0,7.33459609 0,8.96457459 L0,16 L1.015625,16 C0.855164671,15.6431862 0.870602545,15.2049759 1.09749251,14.8599365 L3.34674401,11.4417938 Z" id="Path"></path>
            <polygon id="Path" points="5 13 3 16 5 16"></polygon>
            <path d="M3.4373044,19.4084333 L3.4373044,16 L2.63011345,16 C2.63011345,16 1.92707617,16.7579904 1,16.4703376 L1,19.8136705 C1,20.0750813 1.09764407,20.3284176 1.27503079,20.5312885 L4.83741182,24.5841651 C5.07880965,24.8581922 5.42870089,25 5.78184693,25 C6.05308045,25 6.32648384,24.9162274 6.55269259,24.7436358 C7.07346095,24.3474823 7.15103374,23.6339015 6.72465464,23.148929 L3.4373044,19.4084333 Z" id="Path"></path>
            <circle id="Oval" cx="25.5" cy="2.5" r="2.5"></circle>
            <path d="M24.3125474,15.8458375 C24.4450627,15.9510364 24.5989227,16 24.7505593,16 C24.9835727,16 25.2134733,15.8826814 25.3606631,15.6601639 L27.8579977,11.8778506 C28.0292003,11.6194587 28.0469876,11.2762291 27.9038,10.9984458 L26.0565906,7.41780413 C25.8529262,7.02367176 25.3953483,6.88356813 25.0338218,7.10511609 C24.6722952,7.32666405 24.5437821,7.82599533 24.7470018,8.2201277 L26.3598638,11.3455537 L24.1413448,14.7036778 C23.8994378,15.0701773 23.9754784,15.5816283 24.3125474,15.8458375 Z" id="Path"></path>
            <path d="M25,23.9316209 C25,24.5214651 25.4483526,25 26.0004452,25 C26.5525378,25 27,24.5214651 27,23.9316209 L27,23.6053038 L25,21 L25,23.9316209 Z" id="Path"></path>
            <path d="M26.3464309,11.4420724 L24.7209281,8.27973174 C24.4463467,7.74525163 24.6198896,7.0658885 25.1077743,6.76588338 C25.2602676,6.67219577 25.4324071,6.62304817 25.6050145,6.62304817 C25.9717467,6.62304817 26.3113481,6.84062868 26.4914398,7.1897814 L28,10.1243025 L28,8.96421441 C28,7.33364051 26.8750117,6 25.4992983,6 C24.1249883,6 23,7.33364051 23,8.96421441 L23,16 L24.0150622,16 C23.8550847,15.643168 23.8700533,15.2049352 24.0969221,14.8598782 L26.3464309,11.4420724 Z" id="Path"></path>
            <polygon id="Path" points="28 13 26 16 28 16"></polygon>
            <path d="M29.7246621,23.148929 L26.4367651,19.4084333 L26.4367651,16 L25.6301156,16 C25.6301156,16 24.9276198,16.7579904 24,16.4703376 L24,19.8136705 C24,20.0750813 24.0976442,20.3284176 24.2755736,20.5312885 L27.8374168,24.5841651 C28.0788149,24.8581922 28.4292491,25 28.7823956,25 C29.053087,25 29.3264907,24.9162274 29.5532423,24.7436358 C30.0740113,24.3474823 30.1504992,23.6339015 29.7246621,23.148929 Z" id="Path"></path>
            <rect id="Rectangle" x="11" y="14" width="12" height="1"></rect>
            <polygon id="Path" points="6 15 11 15 11 14.0945274 6 13"></polygon>
            <polygon id="Path" points="12.3715648 11 14.6192747 11 14.6192747 7.65429122 18 7.65429122 18 5.34474446 14.6192747 5.34474446 14.6192747 2 12.3715648 2 12.3715648 5.34474446 9 5.34474446 9 7.65429122 12.3715648 7.65429122"></polygon>
        </g>
    </g>
</svg>