<?xml version="1.0" encoding="UTF-8"?>
<svg width="80px" height="80px" viewBox="0 0 80 80" version="1.1" xmlns="http://www.w3.org/2000/svg" xmlns:xlink="http://www.w3.org/1999/xlink">
    <!-- Generator: Sketch 61.2 (89653) - https://sketch.com -->
    <title>map_icons</title>
    <desc>Created with Sketch.</desc>
    <g id="Page-1" stroke="none" stroke-width="1" fill="none" fill-rule="evenodd">
        <path d="M39.5,0 C51.2690075,0 65,7.4325 65,26.3515 C65,39.865 44.7308313,67.5675 39.5,75 C33.6154963,67.5675 14,39.189 14,26.3515 C14,7.4325 27.7309925,0 39.5,0 Z M53.5418853,40 C52.6444472,40 51.7860281,40.4752475 51.1227043,41.3663366 L51.1227043,41.3663366 L50.1472282,42.6732673 L50.0375573,42.805199 C49.7305433,43.1389806 49.3104864,43.3267327 48.8595996,43.3267327 C48.391371,43.3267327 47.9231425,43.0891089 47.5719711,42.6138614 L47.5719711,42.6138614 L46.5964949,41.3663366 L46.4607895,41.193681 C45.8136861,40.4139934 44.9785051,40 44.177314,40 C43.2798759,40 42.4604759,40.4752475 41.758133,41.3663366 L41.758133,41.3663366 L40.7436378,42.6732673 L40.6340205,42.805199 C40.3274346,43.1389806 39.9112315,43.3267327 39.4950283,43.3267327 C38.9877807,43.3267327 38.5585712,43.0891089 38.2073998,42.6138614 L38.2073998,42.6138614 L37.2319236,41.3663366 L37.0796441,41.1817755 C36.4121254,40.4097798 35.646078,40 34.8127427,40 C33.9153046,40 33.0568855,40.4752475 32.3935617,41.3663366 L32.3935617,41.3663366 L31.4180856,42.6732673 L31.3084683,42.805199 C31.0018824,43.1389806 30.5856792,43.3267327 30.1694761,43.3267327 C29.6622284,43.3267327 29.2330189,43.0891089 28.8818475,42.6138614 L28.8818475,42.6138614 L27.9063713,41.3663366 L27.753523,41.1817755 C27.0811981,40.4097798 26.2815067,40 25.4481714,40 C24.5507333,40 23.6923142,40.4752475 23.0289904,41.3663366 L23.0289904,41.3663366 L21.2731333,43.6831683 L21.1987081,43.8069307 C21.0812897,44.0214521 21,44.2772277 21,44.5742574 C21,44.9306931 21.039019,45.2871287 21.1950952,45.5247525 C21.3511714,45.8217822 21.5852857,46 21.858419,46 C22.0535143,46 22.2486095,45.8811881 22.4046857,45.6435644 L22.4046857,45.6435644 L24.1605428,43.3267327 L24.2817748,43.1771177 C24.615765,42.8016135 25.0319682,42.6138614 25.4481714,42.6138614 C25.9163999,42.6138614 26.3846285,42.8514851 26.7357999,43.3267327 L26.7357999,43.3267327 L27.7112761,44.5742574 L27.8557916,44.7469763 C28.4922543,45.4714084 29.2608897,45.8811881 30.130457,45.8811881 C31.0669141,45.8811881 31.8863141,45.4059406 32.5496379,44.5742574 L32.5496379,44.5742574 L33.5251141,43.2673267 L33.6463461,43.1177118 C33.9803363,42.7422076 34.3965395,42.5544554 34.8127427,42.5544554 C35.2809712,42.5544554 35.7491998,42.7920792 36.1003712,43.3267327 L36.1003712,43.3267327 L37.0758474,44.5742574 L37.2209175,44.7469763 C37.8620016,45.4714084 38.6616929,45.8811881 39.4950283,45.8811881 C40.3924664,45.8811881 41.2508854,45.4059406 41.9142092,44.5742574 L41.9142092,44.5742574 L42.8896854,43.2673267 L43.0109174,43.1177118 C43.3449076,42.7422076 43.7611108,42.5544554 44.177314,42.5544554 C44.6455425,42.5544554 45.1137711,42.7920792 45.4649425,43.2673267 L45.4649425,43.2673267 L46.4404187,44.5742574 L46.5854888,44.7469763 C47.2265729,45.4714084 48.0262642,45.8811881 48.8595996,45.8811881 C49.7960567,45.8811881 50.6154567,45.4059406 51.2787805,44.5742574 L51.2787805,44.5742574 L52.2542567,43.2673267 L52.3754887,43.1177118 C52.7094789,42.7422076 53.1256821,42.5544554 53.5418853,42.5544554 C54.0101138,42.5544554 54.4783424,42.7920792 54.8295138,43.2673267 L54.8295138,43.2673267 L56.5853709,45.5841584 L56.6545359,45.678723 C56.7971886,45.8533037 56.9644131,45.9405941 57.1316376,45.9405941 C57.3657519,45.9405941 57.6388852,45.7623762 57.7949614,45.4653465 C57.9510376,45.2277228 58.0290757,44.8712871 57.9900566,44.5148515 C57.9900566,44.1584158 57.8729995,43.8613861 57.6779042,43.6237624 L57.6779042,43.6237624 L55.9610662,41.3663366 L55.8082321,41.1817755 C55.136092,40.4097798 54.3389886,40 53.5418853,40 Z M53.5028662,35 C52.6054281,35 51.7470091,35.4752475 51.0836853,36.3663366 L51.0836853,36.3663366 L50.1082091,37.6732673 L49.9985383,37.805199 C49.6915242,38.1389806 49.2714673,38.3267327 48.8205806,38.3267327 C48.352352,38.3267327 47.8841234,38.0891089 47.532952,37.6138614 L47.532952,37.6138614 L46.5574758,36.3663366 L46.422256,36.193681 C45.7795227,35.4139934 44.9759038,35 44.1382949,35 C43.2408568,35 42.4214568,35.4752475 41.719114,36.3663366 L41.719114,36.3663366 L40.7046188,37.6732673 L40.5950015,37.805199 C40.2884156,38.1389806 39.8722124,38.3267327 39.4560093,38.3267327 C38.9487617,38.3267327 38.5195521,38.0891089 38.1683807,37.6138614 L38.1683807,37.6138614 L37.1929045,36.3663366 L37.040625,36.1817755 C36.3731064,35.4097798 35.607059,35 34.7737236,35 C33.8762855,35 33.0178665,35.4752475 32.3545427,36.3663366 L32.3545427,36.3663366 L31.3790665,37.6732673 L31.2694492,37.805199 C30.9628634,38.1389806 30.5466602,38.3267327 30.130457,38.3267327 C29.6232094,38.3267327 29.1939999,38.0891089 28.8428285,37.6138614 L28.8428285,37.6138614 L27.8673523,36.3663366 L27.7321325,36.193681 C27.0893992,35.4139934 26.2857802,35 25.4481714,35 C24.5507333,35 23.6923142,35.4752475 23.0289904,36.3663366 L23.0289904,36.3663366 L21.2731333,38.6831683 L21.1987081,38.8069307 C21.0812897,39.0214521 21,39.2772277 21,39.5742574 C21,39.9306931 21.039019,40.2871287 21.1950952,40.5247525 C21.3511714,40.8217822 21.5852857,41 21.858419,41 C22.0535143,41 22.2486095,40.8811881 22.4046857,40.6435644 L22.4046857,40.6435644 L24.1605428,38.3267327 L24.2817748,38.1771177 C24.615765,37.8016135 25.0319682,37.6138614 25.4481714,37.6138614 C25.9163999,37.6138614 26.3846285,37.8514851 26.7357999,38.3267327 L26.7357999,38.3267327 L27.7112761,39.5742574 L27.8557916,39.7469763 C28.4922543,40.4714084 29.2608897,40.8811881 30.130457,40.8811881 C31.0669141,40.8811881 31.8863141,40.4059406 32.5496379,39.5742574 L32.5496379,39.5742574 L33.5251141,38.2673267 L33.6463461,38.1177118 C33.9803363,37.7422076 34.3965395,37.5544554 34.8127427,37.5544554 C35.2809712,37.5544554 35.7491998,37.7920792 36.1003712,38.3267327 L36.1003712,38.3267327 L37.0758474,39.5742574 L37.2209175,39.7469763 C37.8620016,40.4714084 38.6616929,40.8811881 39.4950283,40.8811881 C40.3924664,40.8811881 41.2508854,40.4059406 41.9142092,39.5742574 L41.9142092,39.5742574 L42.8896854,38.2673267 L43.0109174,38.1177118 C43.3449076,37.7422076 43.7611108,37.5544554 44.177314,37.5544554 C44.6455425,37.5544554 45.1137711,37.7920792 45.4649425,38.2673267 L45.4649425,38.2673267 L46.4404187,39.5742574 L46.5854888,39.7469763 C47.2265729,40.4714084 48.0262642,40.8811881 48.8595996,40.8811881 C49.7960567,40.8811881 50.6154567,40.4059406 51.2787805,39.5742574 L51.2787805,39.5742574 L52.2542567,38.2673267 L52.3754887,38.1177118 C52.7094789,37.7422076 53.1256821,37.5544554 53.5418853,37.5544554 C54.0101138,37.5544554 54.4783424,37.7920792 54.8295138,38.2673267 L54.8295138,38.2673267 L56.5853709,40.5841584 L56.6545359,40.678723 C56.7971886,40.8533037 56.9644131,40.9405941 57.1316376,40.9405941 C57.3657519,40.9405941 57.6388852,40.7623762 57.7949614,40.4653465 C57.9510376,40.2277228 58.0290757,39.8712871 57.9900566,39.5148515 C57.9900566,39.1584158 57.8729995,38.8613861 57.6779042,38.6237624 L57.6779042,38.6237624 L55.9220471,36.3663366 L55.7868273,36.193681 C55.144094,35.4139934 54.3404751,35 53.5028662,35 Z M38.0824938,9.00111102 L37.9521436,9.0021155 C37.2490593,9.04129966 36.7412762,9.62906202 36.7803365,10.3343769 L36.7803365,10.3343769 L37.2881196,18.4063133 L37.28244,18.4829616 C37.2524349,18.6820537 37.1058385,18.8329852 36.8975172,18.7981549 L36.8975172,18.7981549 L36.7803365,18.7981549 L36.7014188,18.7890157 C36.5531494,18.753373 36.4622745,18.6190273 36.4287943,18.4846816 L36.4287943,18.4846816 L35.2960474,11.862559 L35.2678012,11.7400511 C35.0958637,11.139948 34.4733411,10.7335655 33.8508186,10.8437709 C33.1867945,10.9613234 32.7180716,11.6274541 32.8352523,12.2935847 L32.8352523,12.2935847 L32.843986,12.3419938 C32.9412213,12.8812262 33.8204384,17.7641285 33.9679993,18.837339 C34.1242402,20.0128637 34.2023607,20.6398103 34.2414209,21.6977825 C34.2804812,22.2855449 33.7726981,22.6382023 33.2258547,22.0896241 C33.2258547,22.0896241 32.1712283,20.7965469 31.5462645,20.1696004 C30.9213006,19.5426539 30.2572766,19.3075489 29.6323128,19.7385746 C28.9682887,20.1696004 28.7729875,21.070836 29.2417104,21.6977825 C29.2417104,21.6977825 31.9368669,26.1255923 33.5773969,27.9672477 C34.08518,28.5550101 34.7492041,29.1427724 35.4522883,29.4170615 L35.4522883,29.4170615 L35.6866498,32.1599526 L35.4815835,32.1085234 C35.2765173,32.0644412 35.071451,32.0424001 34.8663848,32.0424001 C33.9679993,32.0424001 33.108674,32.3558734 32.44465,32.9436357 L32.44465,32.9436357 L31.468144,33.8056872 L31.3439446,33.9029588 C31.0384814,34.1167114 30.6283489,34.2367129 30.2182164,34.2367129 C29.7104332,34.2367129 29.2807706,34.0799763 28.9292285,33.766503 L28.9292285,33.766503 L27.874602,32.9436357 L27.7046177,32.8024322 C27.0670858,32.3058047 26.2763873,32.0424001 25.4528672,32.0424001 C24.5544817,32.0424001 23.6951565,32.3558734 23.0311324,32.9436357 L23.0311324,32.9436357 L21.2734217,34.4718179 L21.1989179,34.5534515 C21.0813755,34.6949499 21,34.8636594 21,35.0595802 C21,35.2946852 21.0390602,35.5297901 21.1953012,35.6865267 C21.3515421,35.8824475 21.5859036,36 21.820265,36 C22.0155662,36 22.2108674,35.9216317 22.3671084,35.7648951 L22.3671084,35.7648951 L24.1248191,34.2367129 L24.2619114,34.1265075 C24.593542,33.8865045 25.0036745,33.766503 25.413807,33.766503 C25.8825298,33.766503 26.3512527,33.9232397 26.7027949,34.2367129 L26.7027949,34.2367129 L27.6793008,35.0595802 L27.8642427,35.2033045 C28.4934324,35.6625629 29.2488122,35.9216317 30.1010356,35.9216317 C31.0384814,35.9216317 31.8587464,35.6081584 32.5227704,35.0595802 L32.5227704,35.0595802 L33.4992764,34.1975288 L33.6363687,34.0873233 C33.9679993,33.8473203 34.3781318,33.7273189 34.7882643,33.7273189 C35.2569872,33.7273189 35.72571,33.8840555 36.0772522,34.2367129 L36.0772522,34.2367129 L37.0537581,35.0595802 L37.2395804,35.2033045 C37.874346,35.6625629 38.6587789,35.9216317 39.4754929,35.9216317 C40.3738784,35.9216317 41.2332037,35.6081584 41.8972277,35.0595802 L41.8972277,35.0595802 L42.8737337,34.1975288 L43.010826,34.0873233 C43.3424566,33.8473203 43.7525891,33.7273189 44.1627216,33.7273189 C44.6314445,33.7273189 45.1001673,33.8840555 45.4517095,34.1975288 L45.4517095,34.1975288 L46.4282154,35.0595802 L46.6140377,35.2033045 C47.2488033,35.6625629 48.0332362,35.9216317 48.8499502,35.9216317 C49.787396,35.9216317 50.607661,35.6081584 51.2716851,35.0595802 L51.2716851,35.0595802 L52.248191,34.1975288 L52.3852833,34.0873233 C52.7169139,33.8473203 53.1270464,33.7273189 53.5371789,33.7273189 C54.0059018,33.7273189 54.4746246,33.8840555 54.8261668,34.1975288 L54.8261668,34.1975288 L56.5838775,35.7257109 L56.6819968,35.8103487 C56.818239,35.9106601 56.9744799,35.9608158 57.1307209,35.9608158 C57.3650823,35.9608158 57.638504,35.8432634 57.7947449,35.6473426 C57.9509859,35.490606 58.0291064,35.255501 57.9900461,35.0203961 C57.9900461,34.7852911 57.8728654,34.5893703 57.6775642,34.4326337 L57.6775642,34.4326337 L55.9979739,32.9436357 L55.8279896,32.8024322 C55.1904578,32.3058047 54.3997592,32.0424001 53.5762391,32.0424001 C52.6778536,32.0424001 51.8185284,32.3558734 51.1545043,32.9436357 L51.1545043,32.9436357 L50.1779984,33.8056872 L50.0537227,33.9029588 C49.7477254,34.1167114 49.3333207,34.2367129 48.8890105,34.2367129 C48.4202876,34.2367129 47.9515648,34.0799763 47.6000226,33.766503 L47.6000226,33.766503 L46.6235166,32.9436357 L46.4535323,32.8024322 C45.8160005,32.3058047 45.0253019,32.0424001 44.2017818,32.0424001 C43.9283602,32.0424001 43.6158783,32.0815843 43.3424566,32.1599526 L43.3424566,32.1599526 L43.576818,29.2995091 L43.7428009,29.2141079 C45.0799361,28.4560215 45.2816252,26.5510774 45.5433672,24.5033339 L45.6079504,24.0096478 C45.9985528,21.1883885 46.9750588,13.4691095 46.9750588,13.4691095 C47.0531793,12.7637946 46.5844564,12.1760323 45.8813721,12.0976639 C45.1782878,12.0192956 44.5923842,12.4895055 44.5142637,13.1948203 L44.5142637,13.1948203 L43.8502397,18.7981549 L43.826553,18.8793792 C43.765742,19.0356588 43.6270383,19.1508123 43.4596373,19.1508123 L43.4596373,19.1508123 L43.4205771,19.1508123 L43.3557981,19.1438247 C43.184769,19.1072743 43.0343147,18.9331225 43.0690349,18.7589707 L43.0690349,18.7589707 L43.3815168,11.5099016 L43.382089,11.3791474 C43.3517639,10.7334124 42.8322322,10.2168244 42.2097097,10.2168244 C41.5456856,10.1776402 40.959782,10.7262184 40.9207218,11.3923491 L40.9207218,11.3923491 L40.6082399,18.6414182 L40.6012744,18.7064027 C40.5648396,18.8779744 40.3912385,19.028906 40.2176375,18.9940757 C40.0223363,18.9940757 39.8660953,18.837339 39.8660953,18.6414182 L39.8660953,18.6414182 L39.2801917,10.1776402 L39.2665645,10.0477757 C39.1674358,9.41079402 38.6112852,8.96538035 37.9521436,9.0021155 Z" id="marker_inv_flooding_helpme" fill="#000000" fill-rule="nonzero"></path>
    </g>
</svg>