<svg id="SvgjsSvg1001" width="288" height="288" xmlns="http://www.w3.org/2000/svg" version="1.1" xmlns:xlink="http://www.w3.org/1999/xlink" xmlns:svgjs="http://svgjs.com/svgjs"><defs id="SvgjsDefs1002"></defs><g id="SvgjsG1008" transform="matrix(0.9167,0,0,0.9167,11.991698873138432,11.994925451660151)"><!--?xml version="1.0" encoding="UTF-8" standalone="no"?--><svg xmlns:dc="http://purl.org/dc/elements/1.1/" xmlns:cc="http://creativecommons.org/ns#" xmlns:rdf="http://www.w3.org/1999/02/22-rdf-syntax-ns#" xmlns:svg="http://www.w3.org/2000/svg" xmlns="http://www.w3.org/2000/svg" xmlns:sodipodi="http://sodipodi.sourceforge.net/DTD/sodipodi-0.dtd" xmlns:inkscape="http://www.inkscape.org/namespaces/inkscape" width="288" height="288" viewBox="0 0 16 16" id="svg5604" version="1.1" inkscape:version="0.91 r13725" sodipodi:docname="30 location find navigation pin marker.svg">
  <defs id="defs5606"></defs>
  <sodipodi:namedview id="base" pagecolor="#ffffff" bordercolor="#666666" borderopacity="1.0" inkscape:pageopacity="0.0" inkscape:pageshadow="2" inkscape:zoom="15.839192" inkscape:cx="-3.8698567" inkscape:cy="11.225701" inkscape:document-units="px" inkscape:current-layer="layer1" showgrid="true" units="px" inkscape:snap-bbox="true" inkscape:bbox-nodes="true" inkscape:snap-nodes="false" inkscape:window-width="1366" inkscape:window-height="705" inkscape:window-x="-8" inkscape:window-y="-8" inkscape:window-maximized="1">
    <inkscape:grid type="xygrid" id="grid5612"></inkscape:grid>
  </sodipodi:namedview>
  
  <g inkscape:label="Layer 1" inkscape:groupmode="layer" id="layer1" transform="translate(0,-1036.3622)" fill="#000000" class="color000 svgShape">
    <g id="g6393" fill="#000000" class="color000 svgShape">
      <path inkscape:connector-curvature="0" id="path6718" d="m 7.9993969,1037.8631 c -2.2243797,0 -4.2296411,1.3366 -5.0808725,3.3882 -0.8512314,2.0515 -0.3795668,4.413 1.193307,5.9831 l 3.4564922,3.4529 c 0.2390225,0.2388 0.6250804,0.2388 0.864113,0 l 3.4564924,-3.4529 c 1.572874,-1.5701 2.042562,-3.9316 1.19135,-5.9831 -0.851231,-2.0516 -2.856492,-3.3882 -5.0808821,-3.3882 z m 0.017657,3.0082 c 1.3847558,0 2.508107,1.1209 2.508107,2.505 0,1.3841 -1.1233512,2.5068 -2.508107,2.5068 -1.3847458,0 -2.5061404,-1.1227 -2.5061404,-2.5068 0,-1.3841 1.1213946,-2.505 2.5061404,-2.505 z" style="fill-opacity: 1; stroke: none; stroke-width: 0.265; stroke-linecap: round; stroke-linejoin: round; stroke-miterlimit: 4; stroke-dasharray: none;" fill="#f86c6b" class="colorrgb2308080 svgShape"></path>
      <path inkscape:connector-curvature="0" id="path5375" d="m 8,1037.3613 c -2.4251273,0 -4.6145717,1.4617 -5.5429688,3.6992 -0.9284051,2.2375 -0.4144088,4.8171 1.3007813,6.5293 l 3.4570313,3.4512 c 0.4291817,0.4288 1.1411284,0.4288 1.5703124,0 l 3.4570318,-3.4512 a 0.5008374,0.5008374 0 0 0 0.08984,-0.121 c 1.628855,-1.7114 2.119628,-4.2182 1.210938,-6.4083 C 12.614571,1038.823 10.425128,1037.3613 8,1037.3613 Z m 0,1.002 c 2.023636,0 3.84508,1.2144 4.619141,3.0801 0.774046,1.8655 0.346556,4.0094 -1.083985,5.4375 l -3.457031,3.4511 c -0.048884,0.049 -0.1073713,0.049 -0.15625,0 l -3.4570312,-3.4511 c -1.4305569,-1.4282 -1.8580521,-3.572 -1.0839844,-5.4375 0.7740603,-1.8657 2.5955051,-3.0801 4.6191406,-3.0801 z" style="color: rgb(0, 0, 0); font: medium sans-serif; text-indent: 0px; text-align: start; text-decoration: none solid rgb(0, 0, 0); letter-spacing: normal; word-spacing: normal; text-transform: none; direction: ltr; writing-mode: lr-tb; baseline-shift: baseline; text-anchor: start; white-space: normal; clip-rule: nonzero; display: inline; overflow: visible; visibility: visible; opacity: 1; isolation: auto; mix-blend-mode: normal; color-interpolation: sRGB; color-interpolation-filters: linearRGB; fill-opacity: 1; fill-rule: nonzero; stroke: none; stroke-width: 1.00157; stroke-linecap: round; stroke-linejoin: round; stroke-miterlimit: 4; stroke-dasharray: none; stroke-dashoffset: 0; stroke-opacity: 1; color-rendering: auto; image-rendering: auto; shape-rendering: auto; text-rendering: auto;" fill="#000000" class="colorrgb000 svgShape"></path>
      <path inkscape:connector-curvature="0" id="circle5377" d="m 8.0175781,1040.3711 c -1.6552614,0 -3.0078125,1.351 -3.0078125,3.0059 0,1.6548 1.3525752,3.0078 3.0078125,3.0078 1.6552374,0 3.0078129,-1.353 3.0078129,-3.0078 0,-1.6549 -1.3525514,-3.0059 -3.0078129,-3.0059 z m 0,1 c 1.1142419,0 2.0058599,0.8925 2.0058599,2.0059 0,1.1133 -0.8915939,2.0058 -2.0058599,2.0058 -1.1142659,0 -2.0058593,-0.8925 -2.0058593,-2.0058 0,-1.1134 0.8916176,-2.0059 2.0058593,-2.0059 z" style="color: rgb(0, 0, 0); font: medium sans-serif; text-indent: 0px; text-align: start; text-decoration: none solid rgb(0, 0, 0); letter-spacing: normal; word-spacing: normal; text-transform: none; direction: ltr; writing-mode: lr-tb; baseline-shift: baseline; text-anchor: start; white-space: normal; clip-rule: nonzero; display: inline; overflow: visible; visibility: visible; opacity: 1; isolation: auto; mix-blend-mode: normal; color-interpolation: sRGB; color-interpolation-filters: linearRGB; fill-opacity: 1; fill-rule: nonzero; stroke: none; stroke-width: 1.00157; stroke-linecap: round; stroke-linejoin: round; stroke-miterlimit: 4; stroke-dasharray: none; stroke-dashoffset: 0; stroke-opacity: 1; color-rendering: auto; image-rendering: auto; shape-rendering: auto; text-rendering: auto;" fill="#000000" class="colorrgb000 svgShape"></path>
    </g>
  </g>

	<metadata>
		<rdf:rdf xmlns:rdf="http://www.w3.org/1999/02/22-rdf-syntax-ns#" xmlns:rdfs="http://www.w3.org/2000/01/rdf-schema#" xmlns:dc="http://purl.org/dc/elements/1.1/">
			<rdf:description about="https://iconscout.com/legal#licenses" dc:title="30 location find navigation pin marker" dc:description="30 location find navigation pin marker" dc:publisher="Iconscout" dc:date="2017-02-19" dc:format="image/svg+xml" dc:language="en">
				<dc:creator>
					<rdf:bag>
						<rdf:li>Jemis Mali</rdf:li>
					</rdf:bag>
				</dc:creator>
			</rdf:description>
		</rdf:rdf>
    </metadata></svg>
</g></svg>