<?xml version="1.0" encoding="UTF-8"?>
<svg width="80px" height="80px" viewBox="0 0 80 80" version="1.1" xmlns="http://www.w3.org/2000/svg" xmlns:xlink="http://www.w3.org/1999/xlink">
    <!-- Generator: Sketch 61.2 (89653) - https://sketch.com -->
    <title>map_icons</title>
    <desc>Created with Sketch.</desc>
    <g id="Page-1" stroke="none" stroke-width="1" fill="none" fill-rule="evenodd">
        <g id="standalone_rescue_with_person_colored" transform="translate(6.000000, 0.000000)">
            <circle id="Oval" fill="#000000" fill-rule="nonzero" cx="5.5" cy="5.5" r="5.5"></circle>
            <path d="M3.70269391,38.6231584 C4.00183982,38.8803113 4.34800867,39 4.68817459,39 C5.2134308,39 5.7306831,38.7132212 6.06084414,38.1692894 L11.6815858,28.9236347 C12.0657732,28.2920103 12.1057927,27.4530044 11.7826351,26.7739785 L7.62760836,18.021299 C7.16938485,17.0578643 6.13988269,16.7153888 5.32648594,17.2569504 C4.51308919,17.7985121 4.22394816,19.0190997 4.68117118,19.9825344 L8.30894069,27.6224646 L3.31850651,35.8312124 C2.77324055,36.7271 2.94532449,37.9773135 3.70269391,38.6231584 Z" id="Path" fill="#000000" fill-rule="nonzero"></path>
            <path d="M4,54.596147 C4,55.9232965 5.11976848,57 6.50111309,57 C7.88023152,57 9,55.9232965 9,54.596147 L9,53.8619336 L4,48 L4,54.596147 Z" id="Path" fill="#000000" fill-rule="nonzero"></path>
            <path d="M7.36283683,26.5161257 L3.78536677,19.2431146 C3.18226048,18.0138732 3.56409057,16.451418 4.63753743,15.7614416 C4.9720247,15.5459711 5.35076722,15.4329374 5.73156811,15.4329374 C6.53845434,15.4329374 7.28564746,15.933347 7.68085704,16.7363571 L11,23.4854101 L11,20.8173441 C11,17.0672161 8.52479416,14 5.49897081,14 C2.47520584,14.0011774 0,17.069571 0,20.8185216 L0,37 L2.234375,37 C1.88136228,36.1793284 1.9153256,35.1714447 2.41448353,34.377854 L7.36283683,26.5161257 Z" id="Path" fill="#000000" fill-rule="nonzero"></path>
            <polygon id="Path" fill="#000000" fill-rule="nonzero" points="11 31 6 39 11 39"></polygon>
            <path d="M8.6870436,43.3317259 L8.6870436,35 L6.80359804,35 C6.80359804,35 5.16317772,36.8528653 3,36.149714 L3,44.3223057 C3,44.9613099 3.22783616,45.5805764 3.64173851,46.0764831 L11.9539609,55.9835146 C12.5172225,56.6533588 13.3336354,57 14.1576428,57 C14.7905211,57 15.4284623,56.7952226 15.9562827,56.3733318 C17.1714089,55.4049568 17.3524121,53.6606482 16.3575275,52.4751598 L8.6870436,43.3317259 Z" id="Path" fill="#000000" fill-rule="nonzero"></path>
            <circle id="Oval" fill="#000000" fill-rule="nonzero" cx="57.5" cy="5.5" r="5.5"></circle>
            <path d="M54.7032317,38.6231584 C55.001391,38.8803113 55.347576,39 55.6887584,39 C56.2130386,39 56.730315,38.7132212 57.061492,38.1692894 L62.6804949,28.9236347 C63.0657007,28.2920103 63.1057221,27.4530044 62.7835499,26.7739785 L58.6273288,18.021299 C58.1690839,17.0578643 57.1395337,16.7153888 56.326099,17.2569504 C55.5126643,17.7985121 55.2235097,19.0190997 55.6807541,19.9825344 L59.3096934,27.6224646 L54.3180258,35.8312124 C53.773735,36.7271 53.9448264,37.9773135 54.7032317,38.6231584 Z" id="Path" fill="#000000" fill-rule="nonzero"></path>
            <path d="M57,54.596147 C57,55.9232965 58.1208816,57 59.5011131,57 C60.8813446,57 62,55.9232965 62,54.596147 L62,53.8619336 L57,48 L57,54.596147 Z" id="Path" fill="#000000" fill-rule="nonzero"></path>
            <path d="M59.362148,26.5167665 L55.7860417,19.243383 C55.1819628,18.0140787 55.5637571,16.4515435 56.6371036,15.7615318 C56.9725886,15.5460503 57.3512957,15.4330108 57.7310319,15.4330108 C58.5378426,15.4330108 59.2849659,15.933446 59.6811676,16.7364972 L63,23.4858957 L63,20.8176931 C63,17.0673732 60.5250257,14 57.4984564,14 C54.4749743,14 52,17.0673732 52,20.8176931 L52,37 L54.2331369,37 C53.8811863,36.1792863 53.9141173,35.171351 54.4132286,34.3777198 L59.362148,26.5167665 Z" id="Path" fill="#000000" fill-rule="nonzero"></path>
            <polygon id="Path" fill="#000000" fill-rule="nonzero" points="64 31 59 39 64 39"></polygon>
            <path d="M67.3575448,52.4751598 L59.6857852,43.3317259 L59.6857852,35 L57.803603,35 C57.803603,35 56.1644463,36.8528653 54,36.149714 L54,44.3223057 C54,44.9613099 54.2278365,45.5805764 54.6430051,46.0764831 L62.9539725,55.9835146 C63.5172349,56.6533588 64.3349146,57 65.1589231,57 C65.7905363,57 66.4284784,56.7952226 66.9575653,56.3733318 C68.172693,55.4049568 68.3511649,53.6606482 67.3575448,52.4751598 Z" id="Path" fill="#000000" fill-rule="nonzero"></path>
            <rect id="Rectangle" fill="#000000" fill-rule="nonzero" x="23" y="32" width="28" height="3"></rect>
            <polygon id="Path" fill="#000000" fill-rule="nonzero" points="14 36 25 36 25 33.7363184 14 31"></polygon>
            <polygon id="Path" fill="#FF0000" fill-rule="nonzero" points="31.2416028 26 36.7360047 26 36.7360047 17.8216008 45 17.8216008 45 12.176042 36.7360047 12.176042 36.7360047 4 31.2416028 4 31.2416028 12.176042 23 12.176042 23 17.8216008 31.2416028 17.8216008"></polygon>
            <g id="standalone_rescue_vehicle_colored" transform="translate(15.000000, 45.000000)">
                <path d="M15.9177377,3.34755471 L13.7308517,0.194515354 C13.4092508,-0.275086252 12.766049,0.194515354 13.0876499,0.66411696 L15.2745359,3.81715631 C15.5318167,4.28675792 16.2393386,3.75007037 15.9177377,3.34755471 Z" id="Path" fill="#3D5904"></path>
                <path d="M11.5473777,3.02921935 C11.0636408,2.85791335 10.7613052,3.48603534 11.2450422,3.71444333 L14.5102663,4.97068731 C14.9335361,5.14199331 15.2358717,4.51387132 14.7521348,4.34256532 L11.5473777,3.02921935 Z" id="Path" fill="#3D5904"></path>
                <path d="M17.0874928,3.34755471 L19.2704585,0.194515354 C19.5914829,-0.275086252 20.2335316,0.194515354 19.9125072,0.66411696 L17.7295415,3.81715631 C17.4085171,4.28675792 16.7664684,3.75007037 17.0874928,3.34755471 Z" id="Path" fill="#3D5904"></path>
                <path d="M21.5102663,3.02921935 C21.9335361,2.85791335 22.2358717,3.48603534 21.7521348,3.71444333 L18.5473777,4.97068731 C18.0636408,5.14199331 17.7613052,4.51387132 18.2450422,4.34256532 L21.5102663,3.02921935 Z" id="Path" fill="#3D5904"></path>
                <path d="M36.1576674,5.68421053 L17.9546436,5.68421053 C17.8336933,4.77192982 17.1079914,4 16.2613391,4 C15.3542117,4 14.6889849,4.77192982 14.5680346,5.68421053 L12.7537797,5.68421053 L11,8 L39,8 C38.5766739,6.66666667 37.488121,5.68421053 36.1576674,5.68421053 Z" id="Path" fill="#3D5904"></path>
                <path d="M30.5,26 C32.4035088,26 34,27.5350877 34,29.5 C34,31.4035088 32.4035088,33 30.5,33 C28.5350877,33 27,31.4035088 27,29.5 C27,27.5350877 28.5350877,26 30.5,26 Z" id="Path" fill="#000000"></path>
                <path d="M6.5,26 C8.46491228,26 10,27.5964912 10,29.5 C10,31.4649123 8.46491228,33 6.5,33 C4.53508772,33 3,31.4649123 3,29.5 C3,27.5964912 4.53508772,26 6.5,26 Z" id="Path" fill="#000000"></path>
                <path d="M25.8235294,14.4201681 L27.5294118,14.4201681 C27.7647059,14.4201681 28,14.6890756 28,15.0252101 L28,16.9747899 C28,17.3109244 27.7647059,17.5798319 27.5294118,17.5798319 L25.8235294,17.5798319 L25.8235294,19.4621849 C25.8235294,19.7310924 25.5882353,20 25.2941176,20 L23.5882353,20 C23.3529412,20 23.1176471,19.7310924 23.1176471,19.4621849 L23.1176471,17.5798319 L21.5294118,17.5798319 C21.2352941,17.5798319 21,17.3109244 21,16.9747899 L21,15.0252101 C21,14.6890756 21.2352941,14.4201681 21.5294118,14.4201681 L23.1176471,14.4201681 L23.1176471,12.605042 C23.1176471,12.2689076 23.3529412,12 23.5882353,12 L25.2941176,12 C25.5882353,12 25.8235294,12.2689076 25.8235294,12.605042 L25.8235294,14.4201681 Z" id="Path-2" fill="#FF1313"></path>
                <path d="M10.8865031,8 L10.8865031,10.1864952 C8.55368098,10.1864952 7.65644172,10.5723473 5.98159509,12.6945338 L2.03374233,17.5819936 C0.897239264,18.9324759 0,20.6688103 0,22.4694534 L0,23.9485531 C0,25.6848875 0.65797546,28 1.43558282,28 L2.81134969,28 C3.34969325,26.1993569 4.90490798,24.9131833 6.75920245,24.9131833 C8.55368098,24.9131833 10.1088957,26.1993569 10.6472393,28 L26.857362,28 C27.3957055,26.1993569 28.9509202,24.9131833 30.8052147,24.9131833 C32.5996933,24.9131833 34.154908,26.1993569 34.6932515,28 C34.6932515,28 35.6503067,28 36.8466258,28 C38.0429448,28 39,26.5209003 39,24.7845659 L39,8.77170418 C39,8.51446945 38.940184,8.19292605 38.8803681,8 L10.8865031,8 Z M25.541411,14.5594855 L27.2760736,14.5594855 C27.5153374,14.5594855 27.7546012,14.8167203 27.7546012,15.1382637 L27.7546012,17.0032154 C27.7546012,17.3247588 27.5153374,17.5819936 27.2760736,17.5819936 L25.541411,17.5819936 L25.541411,19.3826367 C25.541411,19.6398714 25.3021472,19.8971061 25.0030675,19.8971061 L23.2684049,19.8971061 C23.0291411,19.8971061 22.7898773,19.6398714 22.7898773,19.3826367 L22.7898773,17.5819936 L21.1748466,17.5819936 C20.8757669,17.5819936 20.6365031,17.3247588 20.6365031,17.0032154 L20.6365031,15.1382637 C20.6365031,14.8167203 20.8757669,14.5594855 21.1748466,14.5594855 L22.7898773,14.5594855 L22.7898773,12.8231511 C22.7898773,12.5016077 23.0291411,12.244373 23.2684049,12.244373 L25.0030675,12.244373 C25.3021472,12.244373 25.541411,12.5016077 25.541411,12.8231511 L25.541411,14.5594855 Z M25.0030675,12.8231511 L23.2684049,12.8231511 L23.2684049,15.1382637 L21.1748466,15.1382637 L21.1748466,17.0032154 L23.2684049,17.0032154 L23.2684049,19.3826367 L25.0030675,19.3826367 L25.0030675,17.0032154 L27.2760736,17.0032154 L27.2760736,15.1382637 L25.0030675,15.1382637 L25.0030675,12.8231511 Z M24.2254601,9.414791 C27.6349693,9.414791 30.446319,12.3729904 30.446319,16.1028939 C30.446319,19.7684887 27.6349693,22.7909968 24.2254601,22.7909968 C20.756135,22.7909968 18.0046012,19.7684887 18.0046012,16.1028939 C18.0046012,12.3729904 20.756135,9.414791 24.2254601,9.414791 Z M19.440184,16.1028939 C19.440184,18.9324759 21.5935583,21.1832797 24.2254601,21.1832797 C26.857362,21.1832797 28.9509202,18.9324759 28.9509202,16.1028939 C28.9509202,9.35048232 19.440184,9.35048232 19.440184,16.1028939 Z M11.006135,17.0032154 C11.006135,17.8392283 10.3481595,18.6109325 9.5107362,18.6109325 L6.10122699,18.6109325 C5.32361963,18.6109325 4.24693252,17.8392283 4.78527607,17.1961415 C8.61349693,12.3729904 11.0659509,9.09324759 11.006135,17.0032154 Z" id="Shape" fill="#525252"></path>
            </g>
        </g>
    </g>
</svg>