<?xml version="1.0" encoding="UTF-8"?>
<svg width="80px" height="80px" viewBox="0 0 80 80" version="1.1" xmlns="http://www.w3.org/2000/svg" xmlns:xlink="http://www.w3.org/1999/xlink">
    <!-- Generator: Sketch 61.2 (89653) - https://sketch.com -->
    <title>map_icons</title>
    <desc>Created with Sketch.</desc>
    <g id="Page-1" stroke="none" stroke-width="1" fill="none" fill-rule="evenodd">
        <g id="standalone_rescue_vehicle" transform="translate(0.000000, 7.000000)" fill="#000000">
            <path d="M13.7423313,52.2803865 C17.6687117,52.2803865 20.7361963,55.6374913 20.7361963,59.6401933 C20.7361963,63.7720146 17.6687117,67 13.7423313,67 C9.81595092,67 6.74846626,63.7720146 6.74846626,59.6401933 C6.74846626,55.6374913 9.81595092,52.2803865 13.7423313,52.2803865 Z M22.6993865,6.31387425 C21.7177914,5.926516 21.1042945,7.34682958 22.0858896,7.86330725 L28.7116564,10.7039344 C29.5705521,11.0912927 30.1840491,9.67097908 29.202454,9.28362083 L22.6993865,6.31387425 Z M73.7423313,11.6077703 L36.809816,11.6077703 C36.5644172,9.92921791 35.0920245,8.50890433 33.3742331,8.50890433 C31.5337423,8.50890433 30.1840491,9.92921791 29.9386503,11.6077703 L26.2576687,11.6077703 L22.6993865,15.8687111 L79.5092025,15.8687111 C78.6503067,13.4154422 76.4417178,11.6077703 73.7423313,11.6077703 Z M22.3312883,16.6434276 L22.3312883,21.0334877 C17.5460123,21.0334877 15.7055215,21.8082042 12.2699387,26.069145 L4.17177914,35.8822206 C1.8404908,38.5937284 0,42.0799526 0,45.6952963 L0,48.6650429 C0,52.1512671 1.34969325,56.7995661 2.94478528,56.7995661 L5.76687117,56.7995661 C6.87116564,53.1842224 10.0613497,50.6018341 13.8650307,50.6018341 C17.5460123,50.6018341 20.7361963,53.1842224 21.8404908,56.7995661 L55.0920245,56.7995661 C56.196319,53.1842224 59.3865031,50.6018341 63.190184,50.6018341 C66.8711656,50.6018341 70.0613497,53.1842224 71.1656442,56.7995661 C71.1656442,56.7995661 73.1288344,56.7995661 75.5828221,56.7995661 C78.0368098,56.7995661 80,53.8298195 80,50.3435953 L80,18.1928606 C80,17.6763829 79.8773006,17.0307858 79.7546012,16.6434276 L22.3312883,16.6434276 Z M34.601227,6.44299367 L38.7730061,0.374381094 C39.3865031,-0.529454821 40.6134969,0.374381094 40,1.27821701 L35.8282209,7.34682958 C35.2147239,8.2506655 33.9877301,7.21771017 34.601227,6.44299367 Z M44.0490798,6.31387425 C44.9079755,5.926516 45.5214724,7.34682958 44.5398773,7.86330725 L38.0368098,10.7039344 C37.0552147,11.0912927 36.4417178,9.67097908 37.4233129,9.28362083 L44.0490798,6.31387425 Z M32.1472393,6.44299367 L27.9754601,0.374381094 C27.3619632,-0.529454821 26.1349693,0.374381094 26.7484663,1.27821701 L30.9202454,7.34682958 C31.4110429,8.2506655 32.7607362,7.21771017 32.1472393,6.44299367 Z M52.392638,29.8136081 L55.9509202,29.8136081 C56.4417178,29.8136081 56.9325153,30.3300857 56.9325153,30.9756828 L56.9325153,34.7201459 C56.9325153,35.365743 56.4417178,35.8822206 55.9509202,35.8822206 L52.392638,35.8822206 L52.392638,39.4975643 C52.392638,40.014042 51.9018405,40.5305196 51.2883436,40.5305196 L47.7300613,40.5305196 C47.2392638,40.5305196 46.7484663,40.014042 46.7484663,39.4975643 L46.7484663,35.8822206 L43.4355828,35.8822206 C42.8220859,35.8822206 42.3312883,35.365743 42.3312883,34.7201459 L42.3312883,30.9756828 C42.3312883,30.3300857 42.8220859,29.8136081 43.4355828,29.8136081 L46.7484663,29.8136081 L46.7484663,26.3273838 C46.7484663,25.6817867 47.2392638,25.1653091 47.7300613,25.1653091 L51.2883436,25.1653091 C51.9018405,25.1653091 52.392638,25.6817867 52.392638,26.3273838 L52.392638,29.8136081 Z M51.2883436,26.3273838 L47.7300613,26.3273838 L47.7300613,30.9756828 L43.4355828,30.9756828 L43.4355828,34.7201459 L47.7300613,34.7201459 L47.7300613,39.4975643 L51.2883436,39.4975643 L51.2883436,34.7201459 L55.9509202,34.7201459 L55.9509202,30.9756828 L51.2883436,30.9756828 L51.2883436,26.3273838 Z M49.6932515,19.4840547 C56.6871166,19.4840547 62.4539877,25.4235479 62.4539877,32.912474 C62.4539877,40.2722808 56.6871166,46.3408934 49.6932515,46.3408934 C42.5766871,46.3408934 36.9325153,40.2722808 36.9325153,32.912474 C36.9325153,25.4235479 42.5766871,19.4840547 49.6932515,19.4840547 Z M39.8773006,32.912474 C39.8773006,38.5937284 44.2944785,43.112908 49.6932515,43.112908 C55.0920245,43.112908 59.3865031,38.5937284 59.3865031,32.912474 C59.3865031,19.3549353 39.8773006,19.3549353 39.8773006,32.912474 Z M22.5766871,34.7201459 C22.5766871,36.3986983 21.2269939,37.9481313 19.5092025,37.9481313 L12.5153374,37.9481313 C10.9202454,37.9481313 8.71165644,36.3986983 9.81595092,35.1075041 C17.6687117,25.4235479 22.6993865,18.8384577 22.5766871,34.7201459 Z M63.0674847,51.8930283 C66.8711656,51.8930283 70.0613497,55.1210137 70.0613497,59.252835 C70.0613497,63.2555369 66.8711656,66.6126418 63.0674847,66.6126418 C59.1411043,66.6126418 56.0736196,63.2555369 56.0736196,59.252835 C56.0736196,55.1210137 59.1411043,51.8930283 63.0674847,51.8930283 Z" id="Shape"></path>
        </g>
    </g>
</svg>