<?xml version="1.0" encoding="UTF-8"?>
<svg width="80px" height="80px" viewBox="0 0 80 80" version="1.1" xmlns="http://www.w3.org/2000/svg" xmlns:xlink="http://www.w3.org/1999/xlink">
    <!-- Generator: Sketch 61.2 (89653) - https://sketch.com -->
    <title>map_icons</title>
    <desc>Created with Sketch.</desc>
    <g id="Page-1" stroke="none" stroke-width="1" fill="none" fill-rule="evenodd">
        <g id="standalone_rescue_with_person" transform="translate(6.000000, 0.000000)" fill="#000000">
            <circle id="Oval" fill-rule="nonzero" cx="5.5" cy="5.5" r="5.5"></circle>
            <path d="M3.70269391,38.6231584 C4.00183982,38.8803113 4.34800867,39 4.68817459,39 C5.2134308,39 5.7306831,38.7132212 6.06084414,38.1692894 L11.6815858,28.9236347 C12.0657732,28.2920103 12.1057927,27.4530044 11.7826351,26.7739785 L7.62760836,18.021299 C7.16938485,17.0578643 6.13988269,16.7153888 5.32648594,17.2569504 C4.51308919,17.7985121 4.22394816,19.0190997 4.68117118,19.9825344 L8.30894069,27.6224646 L3.31850651,35.8312124 C2.77324055,36.7271 2.94532449,37.9773135 3.70269391,38.6231584 Z" id="Path" fill-rule="nonzero"></path>
            <path d="M4,54.596147 C4,55.9232965 5.11976848,57 6.50111309,57 C7.88023152,57 9,55.9232965 9,54.596147 L9,53.8619336 L4,48 L4,54.596147 Z" id="Path" fill-rule="nonzero"></path>
            <path d="M7.36283683,26.5161257 L3.78536677,19.2431146 C3.18226048,18.0138732 3.56409057,16.451418 4.63753743,15.7614416 C4.9720247,15.5459711 5.35076722,15.4329374 5.73156811,15.4329374 C6.53845434,15.4329374 7.28564746,15.933347 7.68085704,16.7363571 L11,23.4854101 L11,20.8173441 C11,17.0672161 8.52479416,14 5.49897081,14 C2.47520584,14.0011774 0,17.069571 0,20.8185216 L0,37 L2.234375,37 C1.88136228,36.1793284 1.9153256,35.1714447 2.41448353,34.377854 L7.36283683,26.5161257 Z" id="Path" fill-rule="nonzero"></path>
            <polygon id="Path" fill-rule="nonzero" points="11 31 6 39 11 39"></polygon>
            <path d="M8.6870436,43.3317259 L8.6870436,35 L6.80359804,35 C6.80359804,35 5.16317772,36.8528653 3,36.149714 L3,44.3223057 C3,44.9613099 3.22783616,45.5805764 3.64173851,46.0764831 L11.9539609,55.9835146 C12.5172225,56.6533588 13.3336354,57 14.1576428,57 C14.7905211,57 15.4284623,56.7952226 15.9562827,56.3733318 C17.1714089,55.4049568 17.3524121,53.6606482 16.3575275,52.4751598 L8.6870436,43.3317259 Z" id="Path" fill-rule="nonzero"></path>
            <circle id="Oval" fill-rule="nonzero" cx="57.5" cy="5.5" r="5.5"></circle>
            <path d="M54.7032317,38.6231584 C55.001391,38.8803113 55.347576,39 55.6887584,39 C56.2130386,39 56.730315,38.7132212 57.061492,38.1692894 L62.6804949,28.9236347 C63.0657007,28.2920103 63.1057221,27.4530044 62.7835499,26.7739785 L58.6273288,18.021299 C58.1690839,17.0578643 57.1395337,16.7153888 56.326099,17.2569504 C55.5126643,17.7985121 55.2235097,19.0190997 55.6807541,19.9825344 L59.3096934,27.6224646 L54.3180258,35.8312124 C53.773735,36.7271 53.9448264,37.9773135 54.7032317,38.6231584 Z" id="Path" fill-rule="nonzero"></path>
            <path d="M57,54.596147 C57,55.9232965 58.1208816,57 59.5011131,57 C60.8813446,57 62,55.9232965 62,54.596147 L62,53.8619336 L57,48 L57,54.596147 Z" id="Path" fill-rule="nonzero"></path>
            <path d="M59.362148,26.5167665 L55.7860417,19.243383 C55.1819628,18.0140787 55.5637571,16.4515435 56.6371036,15.7615318 C56.9725886,15.5460503 57.3512957,15.4330108 57.7310319,15.4330108 C58.5378426,15.4330108 59.2849659,15.933446 59.6811676,16.7364972 L63,23.4858957 L63,20.8176931 C63,17.0673732 60.5250257,14 57.4984564,14 C54.4749743,14 52,17.0673732 52,20.8176931 L52,37 L54.2331369,37 C53.8811863,36.1792863 53.9141173,35.171351 54.4132286,34.3777198 L59.362148,26.5167665 Z" id="Path" fill-rule="nonzero"></path>
            <polygon id="Path" fill-rule="nonzero" points="64 31 59 39 64 39"></polygon>
            <path d="M67.3575448,52.4751598 L59.6857852,43.3317259 L59.6857852,35 L57.803603,35 C57.803603,35 56.1644463,36.8528653 54,36.149714 L54,44.3223057 C54,44.9613099 54.2278365,45.5805764 54.6430051,46.0764831 L62.9539725,55.9835146 C63.5172349,56.6533588 64.3349146,57 65.1589231,57 C65.7905363,57 66.4284784,56.7952226 66.9575653,56.3733318 C68.172693,55.4049568 68.3511649,53.6606482 67.3575448,52.4751598 Z" id="Path" fill-rule="nonzero"></path>
            <rect id="Rectangle" fill-rule="nonzero" x="23" y="32" width="28" height="3"></rect>
            <polygon id="Path" fill-rule="nonzero" points="14 36 25 36 25 33.7363184 14 31"></polygon>
            <polygon id="Path" fill-rule="nonzero" points="31.2416028 26 36.7360047 26 36.7360047 17.8216008 45 17.8216008 45 12.176042 36.7360047 12.176042 36.7360047 4 31.2416028 4 31.2416028 12.176042 23 12.176042 23 17.8216008 31.2416028 17.8216008"></polygon>
            <g id="circle_rescue_vehicle" transform="translate(12.000000, 45.000000)">
                <path d="M7.21472393,27.3106497 C9.27607362,27.3106497 10.8865031,29.0643612 10.8865031,31.1553248 C10.8865031,33.313739 9.27607362,35 7.21472393,35 C5.15337423,35 3.54294479,33.313739 3.54294479,31.1553248 C3.54294479,29.0643612 5.15337423,27.3106497 7.21472393,27.3106497 Z M11.9171779,3.29829252 C11.4018405,3.0959412 11.0797546,3.83789605 11.595092,4.10769782 L15.0736196,5.59160753 C15.5245399,5.79395885 15.8466258,5.052004 15.3312883,4.84965267 L11.9171779,3.29829252 Z M38.7147239,6.06376062 L19.3251534,6.06376062 C19.196319,5.18690488 18.4233129,4.44495002 17.5214724,4.44495002 C16.5552147,4.44495002 15.8466258,5.18690488 15.7177914,6.06376062 L13.7852761,6.06376062 L11.9171779,8.28962519 L41.7423313,8.28962519 C41.291411,7.0080668 40.1319018,6.06376062 38.7147239,6.06376062 Z M11.7239264,8.69432784 L11.7239264,10.9876428 C9.21165644,10.9876428 8.24539877,11.3923455 6.44171779,13.6182101 L2.19018405,18.7444436 C0.966257669,20.1609029 0,21.9820648 0,23.8706772 L0,25.4220373 C0,27.2431992 0.708588957,29.6714151 1.54601227,29.6714151 L3.02760736,29.6714151 C3.60736196,27.7828028 5.28220859,26.4337939 7.2791411,26.4337939 C9.21165644,26.4337939 10.8865031,27.7828028 11.4662577,29.6714151 L28.9233129,29.6714151 C29.5030675,27.7828028 31.1779141,26.4337939 33.1748466,26.4337939 C35.107362,26.4337939 36.7822086,27.7828028 37.3619632,29.6714151 C37.3619632,29.6714151 38.392638,29.6714151 39.6809816,29.6714151 C40.9693252,29.6714151 42,28.120055 42,26.2988931 L42,9.50373313 C42,9.23393137 41.9355828,8.89667916 41.8711656,8.69432784 L11.7239264,8.69432784 Z M18.1656442,3.36574296 L20.3558282,0.195572213 C20.6779141,-0.276580877 21.3220859,0.195572213 21,0.667725304 L18.809816,3.83789605 C18.4877301,4.31004914 17.8435583,3.77044561 18.1656442,3.36574296 Z M23.1257669,3.29829252 C23.5766871,3.0959412 23.898773,3.83789605 23.3834356,4.10769782 L19.9693252,5.59160753 C19.4539877,5.79395885 19.1319018,5.052004 19.6472393,4.84965267 L23.1257669,3.29829252 Z M16.8773006,3.36574296 L14.6871166,0.195572213 C14.3650307,-0.276580877 13.7208589,0.195572213 14.0429448,0.667725304 L16.2331288,3.83789605 C16.4907975,4.31004914 17.1993865,3.77044561 16.8773006,3.36574296 Z M27.506135,15.5742729 L29.3742331,15.5742729 C29.6319018,15.5742729 29.8895706,15.8440746 29.8895706,16.1813268 L29.8895706,18.1373896 C29.8895706,18.4746418 29.6319018,18.7444436 29.3742331,18.7444436 L27.506135,18.7444436 L27.506135,20.633056 C27.506135,20.9028577 27.2484663,21.1726595 26.9263804,21.1726595 L25.0582822,21.1726595 C24.8006135,21.1726595 24.5429448,20.9028577 24.5429448,20.633056 L24.5429448,18.7444436 L22.803681,18.7444436 C22.4815951,18.7444436 22.2239264,18.4746418 22.2239264,18.1373896 L22.2239264,16.1813268 C22.2239264,15.8440746 22.4815951,15.5742729 22.803681,15.5742729 L24.5429448,15.5742729 L24.5429448,13.7531109 C24.5429448,13.4158587 24.8006135,13.146057 25.0582822,13.146057 L26.9263804,13.146057 C27.2484663,13.146057 27.506135,13.4158587 27.506135,13.7531109 L27.506135,15.5742729 Z M26.9263804,13.7531109 L25.0582822,13.7531109 L25.0582822,16.1813268 L22.803681,16.1813268 L22.803681,18.1373896 L25.0582822,18.1373896 L25.0582822,20.633056 L26.9263804,20.633056 L26.9263804,18.1373896 L29.3742331,18.1373896 L29.3742331,16.1813268 L26.9263804,16.1813268 L26.9263804,13.7531109 Z M26.0889571,10.1782375 C29.7607362,10.1782375 32.7883436,13.2809579 32.7883436,17.1930835 C32.7883436,21.0377586 29.7607362,24.2079294 26.0889571,24.2079294 C22.3527607,24.2079294 19.3895706,21.0377586 19.3895706,17.1930835 C19.3895706,13.2809579 22.3527607,10.1782375 26.0889571,10.1782375 Z M20.9355828,17.1930835 C20.9355828,20.1609029 23.2546012,22.5216683 26.0889571,22.5216683 C28.9233129,22.5216683 31.1779141,20.1609029 31.1779141,17.1930835 C31.1779141,10.1107871 20.9355828,10.1107871 20.9355828,17.1930835 Z M11.8527607,18.1373896 C11.8527607,19.0142454 11.1441718,19.8236507 10.2423313,19.8236507 L6.57055215,19.8236507 C5.73312883,19.8236507 4.57361963,19.0142454 5.15337423,18.339741 C9.27607362,13.2809579 11.9171779,9.84098534 11.8527607,18.1373896 Z M33.1104294,27.1082984 C35.107362,27.1082984 36.7822086,28.7945594 36.7822086,30.9529735 C36.7822086,33.0439372 35.107362,34.7976487 33.1104294,34.7976487 C31.0490798,34.7976487 29.4386503,33.0439372 29.4386503,30.9529735 C29.4386503,28.7945594 31.0490798,27.1082984 33.1104294,27.1082984 Z" id="Shape"></path>
            </g>
        </g>
    </g>
</svg>