<svg id="SvgjsSvg1001" width="288" height="288" xmlns="http://www.w3.org/2000/svg" version="1.1" xmlns:xlink="http://www.w3.org/1999/xlink" xmlns:svgjs="http://svgjs.com/svgjs"><defs id="SvgjsDefs1002"></defs><g id="SvgjsG1008" transform="matrix(0.9167,0,0,0.9167,11.995183416676525,11.993918774414055)"><!--?xml version="1.0" encoding="UTF-8" standalone="no"?--><svg xmlns:dc="http://purl.org/dc/elements/1.1/" xmlns:cc="http://creativecommons.org/ns#" xmlns:rdf="http://www.w3.org/1999/02/22-rdf-syntax-ns#" xmlns:svg="http://www.w3.org/2000/svg" xmlns="http://www.w3.org/2000/svg" xmlns:sodipodi="http://sodipodi.sourceforge.net/DTD/sodipodi-0.dtd" xmlns:inkscape="http://www.inkscape.org/namespaces/inkscape" width="288" height="288" viewBox="0 0 16 16" id="svg5604" version="1.1" inkscape:version="0.91 r13725" sodipodi:docname="5 Canoe boating forest wildlife outdoor.svg">
  <defs id="defs5606"></defs>
  <sodipodi:namedview id="base" pagecolor="#ffffff" bordercolor="#666666" borderopacity="1.0" inkscape:pageopacity="0.0" inkscape:pageshadow="2" inkscape:zoom="15.839192" inkscape:cx="9.9629908" inkscape:cy="3.0386681" inkscape:document-units="px" inkscape:current-layer="layer1" showgrid="true" units="px" inkscape:snap-bbox="true" inkscape:bbox-nodes="true" inkscape:snap-nodes="false" inkscape:window-width="1366" inkscape:window-height="705" inkscape:window-x="-8" inkscape:window-y="-8" inkscape:window-maximized="1">
    <inkscape:grid type="xygrid" id="grid5612"></inkscape:grid>
  </sodipodi:namedview>
  
  <g inkscape:label="Layer 1" inkscape:groupmode="layer" id="layer1" transform="translate(0,-1036.3622)" fill="#000000" class="color000 svgShape">
    <g id="g5937" fill="#000000" class="color000 svgShape">
      <path sodipodi:nodetypes="cssscc" inkscape:connector-curvature="0" id="path6679" d="m 3.7686274,1047.9444 -1.7184543,0.9922 c -0.4762076,0.275 -1.0809487,0.1129 -1.35588728,-0.3632 -0.27493858,-0.4762 -0.112879,-1.0809 0.36332108,-1.3559 l 1.7184543,-0.9921 z" style="fill-opacity: 1; stroke: none; stroke-width: 0.265; stroke-linecap: round; stroke-linejoin: round; stroke-miterlimit: 4; stroke-dasharray: none;" fill="#6a5b5b" class="colorrgb1069191 svgShape"></path>
      <path style="fill-opacity: 1; stroke: none; stroke-width: 0.265; stroke-linecap: round; stroke-linejoin: round; stroke-miterlimit: 4; stroke-dasharray: none;" d="m 13.223956,1042.4854 1.718454,-0.9922 c 0.476208,-0.275 0.638249,-0.8796 0.363321,-1.3558 -0.274938,-0.4762 -0.879679,-0.6383 -1.355887,-0.3632 l -1.718454,0.9922 z" id="path6681" inkscape:connector-curvature="0" sodipodi:nodetypes="cssscc" fill="#6a5b5b" class="colorrgb1069191 svgShape"></path>
      <path inkscape:connector-curvature="0" style="fill-opacity: 1; fill-rule: evenodd; stroke: none; stroke-width: 0.264583; stroke-linecap: butt; stroke-linejoin: miter; stroke-opacity: 1;" d="m 8.4128461,1037.0532 c 0.9255065,1.2612 3.0858319,4.5054 3.0858319,7.309 0,2.8038 -2.1605205,6.0481 -3.085952,7.3092 a 0.48106678,0.39246602 0 0 1 -0.8255022,-10e-5 c -0.9254953,-1.2612 -3.0858621,-4.5055 -3.0858621,-7.3091 0,-2.8037 2.1604981,-6.0481 3.0859408,-7.3092 a 0.48108726,0.39248275 0 0 1 0.8255436,2e-4 z" id="path6659" fill="#a4b7c1" class="colorrgb0182227 svgShape"></path>
      <path id="path6674" d="m 7.9851176,1036.8622 a 0.48108726,0.39248275 0 0 0 -0.3974099,0.1902 c -0.4565579,0.6222 -1.2129372,1.7297 -1.8629724,3.0262 l 0.046517,-0.011 0.9169458,0.3974 1.3124201,-0.5699 1.3124162,0.5699 0.9130705,-0.3974 0.05042,0.011 c -0.6501818,-1.2972 -1.4061972,-2.4056 -1.8629764,-3.0281 a 0.48108726,0.39248275 0 0 0 -0.4284263,-0.1898 z m -1.2969081,11.3893 -0.9285789,0.4032 -0.034888,-0.01 c 0.6498439,1.2958 1.4065646,2.4022 1.8629724,3.0241 a 0.48106678,0.39246602 0 0 0 0.8258361,0 c 0.4605718,-0.6276 1.2265922,-1.7478 1.8804197,-3.0591 l -0.100799,0.023 -0.880115,-0.3818 -1.31242,0.5699 -1.3124163,-0.5699 z" style="fill-opacity: 1; fill-rule: evenodd; stroke: none; stroke-width: 0.264583; stroke-linecap: butt; stroke-linejoin: miter; stroke-opacity: 1;" inkscape:connector-curvature="0" fill="#e65050" class="colorrgb2308080 svgShape"></path>
      <path inkscape:connector-curvature="0" id="path5297" d="m 8,1036.3613 c -0.2925056,0 -0.6091147,0.1142 -0.8164062,0.3965 -0.9478412,1.2916 -3.1816407,4.543 -3.1816407,7.6035 0,3.0605 2.2337482,6.3138 3.1816407,7.6055 0.2071639,0.2824 0.5239107,0.3945 0.8164062,0.3945 0.2924955,10e-5 0.6091593,-0.1122 0.8164062,-0.3945 0.9478173,-1.2916 3.1816408,-4.5448 3.1816408,-7.6055 0,-3.0604 -2.2337374,-6.3118 -3.1816408,-7.6035 C 8.6092806,1036.4754 8.2925056,1036.3614 8,1036.3613 Z m -0.00977,0.9883 c -0.020435,0.028 -0.017119,0.012 0.00977,0.012 0.026884,0 0.03022,0.016 0.00977,-0.012 0.9031097,1.2307 2.9882814,4.465 2.9882814,7.0117 0,2.547 -2.0852357,5.7831 -2.9882814,7.0137 0.020444,-0.028 0.017112,-0.014 -0.00977,-0.014 -0.026877,0 -0.030219,-0.014 -0.00977,0.014 -0.9030982,-1.2307 -2.9882813,-4.4669 -2.9882813,-7.0137 0,-2.5468 2.085237,-5.7811 2.9882813,-7.0117 z" style="color: rgb(0, 0, 0); font: medium sans-serif; text-indent: 0px; text-align: start; text-decoration: none solid rgb(0, 0, 0); letter-spacing: normal; word-spacing: normal; text-transform: none; direction: ltr; writing-mode: lr-tb; baseline-shift: baseline; text-anchor: start; white-space: normal; clip-rule: nonzero; display: inline; overflow: visible; visibility: visible; opacity: 1; isolation: auto; mix-blend-mode: normal; color-interpolation: sRGB; color-interpolation-filters: linearRGB; fill-opacity: 1; fill-rule: evenodd; stroke: none; stroke-width: 1; stroke-linecap: butt; stroke-linejoin: miter; stroke-miterlimit: 4; stroke-dasharray: none; stroke-dashoffset: 0; stroke-opacity: 1; color-rendering: auto; image-rendering: auto; shape-rendering: auto; text-rendering: auto;" fill="#000000" class="colorrgb000 svgShape"></path>
      <path inkscape:connector-curvature="0" id="path5299" d="m 8.0058594,1039.3965 a 0.50004997,0.50004997 0 0 0 -0.2050782,0.041 l -1.1132812,0.4844 -0.7167969,-0.3125 a 0.50032311,0.50032311 0 1 0 -0.3984375,0.9179 l 0.9160156,0.3985 a 0.50004997,0.50004997 0 0 0 0.3984376,0 L 8,1040.4414 l 1.1132812,0.4844 a 0.50004997,0.50004997 0 0 0 0.3984376,0 l 0.9140622,-0.3985 a 0.50004997,0.50004997 0 1 0 -0.398437,-0.916 l -0.714844,0.3106 -1.1132812,-0.4844 a 0.50004997,0.50004997 0 0 0 -0.1933594,-0.041 z m -1.3125,8.3535 a 0.50004997,0.50004997 0 0 0 -0.2050782,0.043 l -0.9277343,0.4023 a 0.50036897,0.50036897 0 1 0 0.3984375,0.918 l 0.7285156,-0.3164 1.1132812,0.4843 a 0.50004997,0.50004997 0 0 0 0.3984376,0 l 1.1132812,-0.4843 0.6796875,0.2949 a 0.50004997,0.50004997 0 1 0 0.4003905,-0.916 l -0.8808592,-0.3828 a 0.50004997,0.50004997 0 0 0 -0.3984376,0 L 8,1048.2773 6.8886719,1047.793 a 0.50004997,0.50004997 0 0 0 -0.1953125,-0.043 z" style="color: rgb(0, 0, 0); font: medium sans-serif; text-indent: 0px; text-align: start; text-decoration: none solid rgb(0, 0, 0); letter-spacing: normal; word-spacing: normal; text-transform: none; direction: ltr; writing-mode: lr-tb; baseline-shift: baseline; text-anchor: start; white-space: normal; clip-rule: nonzero; display: inline; overflow: visible; visibility: visible; opacity: 1; isolation: auto; mix-blend-mode: normal; color-interpolation: sRGB; color-interpolation-filters: linearRGB; fill-opacity: 1; fill-rule: evenodd; stroke: none; stroke-width: 1; stroke-linecap: round; stroke-linejoin: round; stroke-miterlimit: 4; stroke-dasharray: none; stroke-dashoffset: 0; stroke-opacity: 1; color-rendering: auto; image-rendering: auto; shape-rendering: auto; text-rendering: auto;" fill="#000000" class="colorrgb000 svgShape"></path>
      <path id="ellipse6672" d="m 9.4888623,1044.3553 a 1.4888327,2.4813874 0 0 1 -1.4888327,2.4814 1.4888327,2.4813874 0 0 1 -1.4888327,-2.4814 1.4888327,2.4813874 0 0 1 1.4888327,-2.4813 1.4888327,2.4813874 0 0 1 1.4888327,2.4813 z" style="fill-opacity: 1; stroke: none; stroke-width: 0.264583; stroke-linecap: round; stroke-linejoin: round; stroke-miterlimit: 4; stroke-dasharray: none; stroke-opacity: 1;" fill="#fff8e6" class="colorrgb255248230 svgShape"></path>
      <path inkscape:connector-curvature="0" id="ellipse5301" d="m 8,1041.373 c -0.6362977,0 -1.1552685,0.4255 -1.4824219,0.9708 -0.3271534,0.5452 -0.5058432,1.2454 -0.5058593,2.0117 -2.4e-6,0.7663 0.1787061,1.4664 0.5058593,2.0117 0.3271532,0.5452 0.8461065,0.9687 1.4824219,0.9687 0.6363154,0 1.1552687,-0.4235 1.4824219,-0.9687 0.3271532,-0.5453 0.5058617,-1.2454 0.5058593,-2.0117 -1.61e-5,-0.7663 -0.1787059,-1.4665 -0.5058593,-2.0117 C 9.1552685,1041.7985 8.6362977,1041.373 8,1041.373 Z m 0,1 c 0.1859414,0 0.4133041,0.1316 0.625,0.4844 0.2116959,0.3528 0.3632685,0.8939 0.3632812,1.4981 1.9e-6,0.6041 -0.1515827,1.1452 -0.3632812,1.498 -0.2116985,0.3528 -0.4390528,0.4824 -0.625,0.4824 -0.1859472,0 -0.4113483,-0.1296 -0.6230469,-0.4824 -0.2116985,-0.3528 -0.3652362,-0.8939 -0.3652343,-1.498 1.27e-5,-0.6042 0.1535384,-1.1453 0.3652343,-1.4981 C 7.588649,1042.5046 7.8140586,1042.373 8,1042.373 Z" style="color: rgb(0, 0, 0); font: medium sans-serif; text-indent: 0px; text-align: start; text-decoration: none solid rgb(0, 0, 0); letter-spacing: normal; word-spacing: normal; text-transform: none; direction: ltr; writing-mode: lr-tb; baseline-shift: baseline; text-anchor: start; white-space: normal; clip-rule: nonzero; display: inline; overflow: visible; visibility: visible; opacity: 1; isolation: auto; mix-blend-mode: normal; color-interpolation: sRGB; color-interpolation-filters: linearRGB; fill-opacity: 1; fill-rule: nonzero; stroke: none; stroke-width: 1; stroke-linecap: round; stroke-linejoin: round; stroke-miterlimit: 4; stroke-dasharray: none; stroke-dashoffset: 0; stroke-opacity: 1; color-rendering: auto; image-rendering: auto; shape-rendering: auto; text-rendering: auto;" fill="#000000" class="colorrgb000 svgShape"></path>
      <path inkscape:connector-curvature="0" id="path5305" d="m 12.699219,1041.123 a 0.50004997,0.50004997 0 0 0 -0.220703,0.07 l -9.3984379,5.4238 a 0.5005087,0.5005087 0 1 0 0.5,0.8672 l 9.3984379,-5.4258 a 0.50004997,0.50004997 0 0 0 -0.279297,-0.9356 z" style="color: rgb(0, 0, 0); font: medium sans-serif; text-indent: 0px; text-align: start; text-decoration: none solid rgb(0, 0, 0); letter-spacing: normal; word-spacing: normal; text-transform: none; direction: ltr; writing-mode: lr-tb; baseline-shift: baseline; text-anchor: start; white-space: normal; clip-rule: nonzero; display: inline; overflow: visible; visibility: visible; opacity: 1; isolation: auto; mix-blend-mode: normal; color-interpolation: sRGB; color-interpolation-filters: linearRGB; fill-opacity: 1; fill-rule: nonzero; stroke: none; stroke-width: 1px; stroke-linecap: round; stroke-linejoin: round; stroke-miterlimit: 4; stroke-dasharray: none; stroke-dashoffset: 0; stroke-opacity: 1; color-rendering: auto; image-rendering: auto; shape-rendering: auto; text-rendering: auto;" fill="#000000" class="colorrgb000 svgShape"></path>
      <path inkscape:connector-curvature="0" id="path5307" d="m 2.75,1045.7246 a 0.5008374,0.5008374 0 0 0 -0.2246094,0.066 l -1.71874998,0.9922 c -0.70890366,0.4094 -0.95620979,1.332 -0.546875,2.041 0.409355,0.7089 1.33200838,0.9563 2.04101558,0.5469 l 1.71875,-0.9922 a 0.5008374,0.5008374 0 0 0 0.1835938,-0.6855 l -0.9941406,-1.7188 A 0.5008374,0.5008374 0 0 0 2.75,1045.7246 Z m -0.15625,1.1856 0.4902344,0.8496 -1.2851563,0.7422 c -0.243408,0.1405 -0.5293997,0.064 -0.6699219,-0.1797 -0.14054231,-0.2435 -0.063809,-0.5313 0.1796876,-0.6719 l 1.2851562,-0.7402 z" style="color: rgb(0, 0, 0); font: medium sans-serif; text-indent: 0px; text-align: start; text-decoration: none solid rgb(0, 0, 0); letter-spacing: normal; word-spacing: normal; text-transform: none; direction: ltr; writing-mode: lr-tb; baseline-shift: baseline; text-anchor: start; white-space: normal; clip-rule: nonzero; display: inline; overflow: visible; visibility: visible; opacity: 1; isolation: auto; mix-blend-mode: normal; color-interpolation: sRGB; color-interpolation-filters: linearRGB; fill-opacity: 1; fill-rule: nonzero; stroke: none; stroke-width: 1.00157; stroke-linecap: round; stroke-linejoin: round; stroke-miterlimit: 4; stroke-dasharray: none; stroke-dashoffset: 0; stroke-opacity: 1; color-rendering: auto; image-rendering: auto; shape-rendering: auto; text-rendering: auto;" fill="#000000" class="colorrgb000 svgShape"></path>
      <path inkscape:connector-curvature="0" id="path5309" d="m 14.832031,1039.1934 c -0.37023,-0.099 -0.778311,-0.058 -1.132812,0.1464 l -1.71875,0.9922 a 0.5008374,0.5008374 0 0 0 -0.183594,0.6856 l 0.994141,1.7187 a 0.5008374,0.5008374 0 0 0 0.683593,0.1836 l 1.71875,-0.9922 c 0.708871,-0.4093 0.956175,-1.332 0.546875,-2.041 -0.204662,-0.3545 -0.537973,-0.5942 -0.908203,-0.6933 z m -0.630859,1.0136 c 0.243414,-0.1406 0.52937,-0.062 0.669922,0.1817 0.140556,0.2434 0.06386,0.5293 -0.179688,0.6699 l -1.283203,0.7422 -0.492187,-0.8516 1.285156,-0.7422 z" style="color: rgb(0, 0, 0); font: medium sans-serif; text-indent: 0px; text-align: start; text-decoration: none solid rgb(0, 0, 0); letter-spacing: normal; word-spacing: normal; text-transform: none; direction: ltr; writing-mode: lr-tb; baseline-shift: baseline; text-anchor: start; white-space: normal; clip-rule: nonzero; display: inline; overflow: visible; visibility: visible; opacity: 1; isolation: auto; mix-blend-mode: normal; color-interpolation: sRGB; color-interpolation-filters: linearRGB; fill-opacity: 1; fill-rule: nonzero; stroke: none; stroke-width: 1.00157; stroke-linecap: round; stroke-linejoin: round; stroke-miterlimit: 4; stroke-dasharray: none; stroke-dashoffset: 0; stroke-opacity: 1; color-rendering: auto; image-rendering: auto; shape-rendering: auto; text-rendering: auto;" fill="#000000" class="colorrgb000 svgShape"></path>
    </g>
  </g>

	<metadata>
		<rdf:rdf xmlns:rdf="http://www.w3.org/1999/02/22-rdf-syntax-ns#" xmlns:rdfs="http://www.w3.org/2000/01/rdf-schema#" xmlns:dc="http://purl.org/dc/elements/1.1/">
			<rdf:description about="https://iconscout.com/legal#licenses" dc:title="5 Canoe boating forest wildlife outdoor" dc:description="5 Canoe boating forest wildlife outdoor" dc:publisher="Iconscout" dc:date="2017-02-19" dc:format="image/svg+xml" dc:language="en">
				<dc:creator>
					<rdf:bag>
						<rdf:li>Jemis Mali</rdf:li>
					</rdf:bag>
				</dc:creator>
			</rdf:description>
		</rdf:rdf>
    </metadata></svg>
</g></svg>