<svg id="SvgjsSvg1001" width="288" height="288" xmlns="http://www.w3.org/2000/svg" version="1.1" xmlns:xlink="http://www.w3.org/1999/xlink" xmlns:svgjs="http://svgjs.com/svgjs"><defs id="SvgjsDefs1002"></defs><g id="SvgjsG1008" transform="matrix(0.9167,0,0,0.9167,11.995200635528562,11.995200635528562)"><svg xmlns="http://www.w3.org/2000/svg" data-name="Layer 1" viewBox="0 0 512 512" width="288" height="288"><path fill="#4dbd74" d="M435.73,120.09V283.11c0,41.78-27.06,92.96-61.61,116.51L256,480.18,137.88,399.62c-34.55-23.55-61.61-74.73-61.61-116.51V119.84L256.01,31.82ZM402.88,283.11V140.55L255.99,68.4,109.12,140.33V283.11c0,30.98,21.64,71.91,47.26,89.37L256,440.42l99.62-67.93C381.24,355.02,402.88,314.09,402.88,283.11Z" class="colorfedb41 svgShape"></path><path fill="#f0f3f5" d="M402.88,140.55V283.11c0,30.98-21.64,71.91-47.26,89.38L256,440.42l-99.62-67.94c-25.62-17.46-47.26-58.39-47.26-89.37V140.33L255.99,68.4ZM334,279V232H279V177H233v55H177v47h56v55h46V279Z" class="color00efd1 svgShape"></path><polygon fill="#4dbd74" points="334 232 334 279 279 279 279 334 233 334 233 279 177 279 177 232 233 232 233 177 279 177 279 232 334 232" class="color00acea svgShape"></polygon></svg></g></svg>