<?xml version="1.0" encoding="UTF-8" standalone="no"?>
<svg xmlns:dc="http://purl.org/dc/elements/1.1/" xmlns:cc="http://creativecommons.org/ns#" xmlns:rdf="http://www.w3.org/1999/02/22-rdf-syntax-ns#" xmlns:svg="http://www.w3.org/2000/svg" xmlns="http://www.w3.org/2000/svg" xmlns:sodipodi="http://sodipodi.sourceforge.net/DTD/sodipodi-0.dtd" xmlns:inkscape="http://www.inkscape.org/namespaces/inkscape" width="16" height="16" viewBox="0 0 16 16" id="svg5604" version="1.1" inkscape:version="0.91 r13725" sodipodi:docname="14 medicine travel tablet firstaid treatment.svg">
  <defs id="defs5606"/>
  <sodipodi:namedview id="base" pagecolor="#ffffff" bordercolor="#666666" borderopacity="1.0" inkscape:pageopacity="0.0" inkscape:pageshadow="2" inkscape:zoom="11.2" inkscape:cx="21.413371" inkscape:cy="17.619463" inkscape:document-units="px" inkscape:current-layer="layer1" showgrid="true" units="px" inkscape:snap-bbox="true" inkscape:bbox-nodes="true" inkscape:snap-nodes="true" inkscape:window-width="1366" inkscape:window-height="705" inkscape:window-x="-8" inkscape:window-y="-8" inkscape:window-maximized="1" inkscape:snap-bbox-edge-midpoints="true" inkscape:snap-bbox-midpoints="true" inkscape:bbox-paths="true">
    <inkscape:grid type="xygrid" id="grid5612"/>
  </sodipodi:namedview>
  
  <g inkscape:label="Layer 1" inkscape:groupmode="layer" id="layer1" transform="translate(0,-1036.3622)">
    <g id="g8030">
      <path id="rect7166" d="m 5.5428729,1038.8622 4.9142741,0 0,1.9999 -4.9142741,0 z" style="opacity:1;fill:#858585;fill-opacity:1;stroke:none;stroke-width:0.26458332;stroke-linecap:round;stroke-linejoin:round;stroke-opacity:1"/>
      <path id="rect7168" d="m 4.5000005,1036.8622 7.0000075,0 0,2 -7.0000075,0 z" style="opacity:1;fill:#444444;fill-opacity:1;stroke:none;stroke-width:0.26458332;stroke-linecap:round;stroke-linejoin:round;stroke-opacity:1"/>
      <path id="rect7161" d="m 4.7857059,1040.8623 6.4285881,0 c 0.712281,0 1.285706,0.5164 1.285706,1.1579 l 0,8.6842 c 0,0.6415 -0.573425,1.1579 -1.285706,1.1579 l -6.4285881,0 c -0.7122812,0 -1.2857061,-0.5164 -1.2857061,-1.1579 l 0,-8.6842 c 0,-0.6415 0.5734249,-1.1579 1.2857061,-1.1579 z" style="opacity:1;fill:#e5e5e5;fill-opacity:1;stroke:none;stroke-width:0.26458332;stroke-linecap:round;stroke-linejoin:round;stroke-opacity:1"/>
      <path inkscape:connector-curvature="0" id="rect5591" d="m 5.5429688,1038.3613 a 0.50004994,0.50004994 0 0 0 -0.5,0.5 l 0,2 a 0.50004994,0.50004994 0 0 0 0.5,0.5 l 4.9140622,0 a 0.50004994,0.50004994 0 0 0 0.5,-0.5 l 0,-2 a 0.50004994,0.50004994 0 0 0 -0.5,-0.5 l -4.9140622,0 z m 0.5,1 3.9140624,0 0,1 -3.9140624,0 0,-1 z" style="color:#000000;font-style:normal;font-variant:normal;font-weight:normal;font-stretch:normal;font-size:medium;line-height:normal;font-family:sans-serif;text-indent:0;text-align:start;text-decoration:none;text-decoration-line:none;text-decoration-style:solid;text-decoration-color:#000000;letter-spacing:normal;word-spacing:normal;text-transform:none;direction:ltr;block-progression:tb;writing-mode:lr-tb;baseline-shift:baseline;text-anchor:start;white-space:normal;clip-rule:nonzero;display:inline;overflow:visible;visibility:visible;opacity:1;isolation:auto;mix-blend-mode:normal;color-interpolation:sRGB;color-interpolation-filters:linearRGB;solid-color:#000000;solid-opacity:1;fill:#000000;fill-opacity:1;fill-rule:nonzero;stroke:none;stroke-width:0.99999988;stroke-linecap:round;stroke-linejoin:round;stroke-miterlimit:4;stroke-dasharray:none;stroke-dashoffset:0;stroke-opacity:1;color-rendering:auto;image-rendering:auto;shape-rendering:auto;text-rendering:auto;enable-background:accumulate"/>
      <path id="rect7163" d="m 3.4999998,1043.8623 6,0 0,6 -6,0 z" style="opacity:1;fill:#e65050;fill-opacity:1;stroke:none;stroke-width:0.26458335;stroke-linecap:round;stroke-linejoin:round;stroke-opacity:1"/>
      <path inkscape:connector-curvature="0" id="rect5593" d="M 4.7851562,1040.3613 C 3.8312102,1040.3613 3,1041.0801 3,1042.0195 l 0,8.6856 c 0,0.9394 0.8312102,1.6562 1.7851562,1.6562 l 6.4296878,0 c 0.953946,0 1.785156,-0.7168 1.785156,-1.6562 l 0,-8.6856 c 0,-0.9394 -0.83121,-1.6582 -1.785156,-1.6582 l -6.4296878,0 z m 0,1 6.4296878,0 c 0.470616,0 0.785156,0.3147 0.785156,0.6582 l 0,8.6856 c 0,0.3435 -0.31454,0.6562 -0.785156,0.6562 l -6.4296878,0 C 4.3145399,1051.3613 4,1051.0486 4,1050.7051 l 0,-8.6856 c 0,-0.3435 0.3145399,-0.6582 0.7851562,-0.6582 z" style="color:#000000;font-style:normal;font-variant:normal;font-weight:normal;font-stretch:normal;font-size:medium;line-height:normal;font-family:sans-serif;text-indent:0;text-align:start;text-decoration:none;text-decoration-line:none;text-decoration-style:solid;text-decoration-color:#000000;letter-spacing:normal;word-spacing:normal;text-transform:none;direction:ltr;block-progression:tb;writing-mode:lr-tb;baseline-shift:baseline;text-anchor:start;white-space:normal;clip-rule:nonzero;display:inline;overflow:visible;visibility:visible;opacity:1;isolation:auto;mix-blend-mode:normal;color-interpolation:sRGB;color-interpolation-filters:linearRGB;solid-color:#000000;solid-opacity:1;fill:#000000;fill-opacity:1;fill-rule:nonzero;stroke:none;stroke-width:0.99999988;stroke-linecap:round;stroke-linejoin:round;stroke-miterlimit:4;stroke-dasharray:none;stroke-dashoffset:0;stroke-opacity:1;color-rendering:auto;image-rendering:auto;shape-rendering:auto;text-rendering:auto;enable-background:accumulate"/>
      <path inkscape:connector-curvature="0" id="rect5595" d="m 4.5,1036.3613 a 0.50004994,0.50004994 0 0 0 -0.5,0.5 l 0,2 a 0.50004994,0.50004994 0 0 0 0.5,0.5 l 7,0 a 0.50004994,0.50004994 0 0 0 0.5,-0.5 l 0,-2 a 0.50004994,0.50004994 0 0 0 -0.5,-0.5 l -7,0 z m 0.5,1 6,0 0,1 -6,0 0,-1 z" style="color:#000000;font-style:normal;font-variant:normal;font-weight:normal;font-stretch:normal;font-size:medium;line-height:normal;font-family:sans-serif;text-indent:0;text-align:start;text-decoration:none;text-decoration-line:none;text-decoration-style:solid;text-decoration-color:#000000;letter-spacing:normal;word-spacing:normal;text-transform:none;direction:ltr;block-progression:tb;writing-mode:lr-tb;baseline-shift:baseline;text-anchor:start;white-space:normal;clip-rule:nonzero;display:inline;overflow:visible;visibility:visible;opacity:1;isolation:auto;mix-blend-mode:normal;color-interpolation:sRGB;color-interpolation-filters:linearRGB;solid-color:#000000;solid-opacity:1;fill:#000000;fill-opacity:1;fill-rule:nonzero;stroke:none;stroke-width:0.99999988;stroke-linecap:round;stroke-linejoin:round;stroke-miterlimit:4;stroke-dasharray:none;stroke-dashoffset:0;stroke-opacity:1;color-rendering:auto;image-rendering:auto;shape-rendering:auto;text-rendering:auto;enable-background:accumulate"/>
      <path inkscape:connector-curvature="0" id="rect5597" d="m 3.5,1043.3613 a 0.50005,0.50005 0 0 0 -0.5,0.5 l 0,6 a 0.50005,0.50005 0 0 0 0.5,0.5 l 6,0 a 0.50005,0.50005 0 0 0 0.5,-0.5 l 0,-6 a 0.50005,0.50005 0 0 0 -0.5,-0.5 l -6,0 z m 0.5,1 5,0 0,5 -5,0 0,-5 z" style="color:#000000;font-style:normal;font-variant:normal;font-weight:normal;font-stretch:normal;font-size:medium;line-height:normal;font-family:sans-serif;text-indent:0;text-align:start;text-decoration:none;text-decoration-line:none;text-decoration-style:solid;text-decoration-color:#000000;letter-spacing:normal;word-spacing:normal;text-transform:none;direction:ltr;block-progression:tb;writing-mode:lr-tb;baseline-shift:baseline;text-anchor:start;white-space:normal;clip-rule:nonzero;display:inline;overflow:visible;visibility:visible;opacity:1;isolation:auto;mix-blend-mode:normal;color-interpolation:sRGB;color-interpolation-filters:linearRGB;solid-color:#000000;solid-opacity:1;fill:#000000;fill-opacity:1;fill-rule:nonzero;stroke:none;stroke-width:1;stroke-linecap:round;stroke-linejoin:round;stroke-miterlimit:4;stroke-dasharray:none;stroke-dashoffset:0;stroke-opacity:1;color-rendering:auto;image-rendering:auto;shape-rendering:auto;text-rendering:auto;enable-background:accumulate"/>
      <path inkscape:connector-curvature="0" id="path5599" d="M 6.4921875,1045.3633 A 0.50005,0.50005 0 0 0 6,1045.8691 l 0,1.9864 a 0.50005,0.50005 0 1 0 1,0 l 0,-1.9864 a 0.50005,0.50005 0 0 0 -0.5078125,-0.5058 z" style="color:#000000;font-style:normal;font-variant:normal;font-weight:normal;font-stretch:normal;font-size:medium;line-height:normal;font-family:sans-serif;text-indent:0;text-align:start;text-decoration:none;text-decoration-line:none;text-decoration-style:solid;text-decoration-color:#000000;letter-spacing:normal;word-spacing:normal;text-transform:none;direction:ltr;block-progression:tb;writing-mode:lr-tb;baseline-shift:baseline;text-anchor:start;white-space:normal;clip-rule:nonzero;display:inline;overflow:visible;visibility:visible;opacity:1;isolation:auto;mix-blend-mode:normal;color-interpolation:sRGB;color-interpolation-filters:linearRGB;solid-color:#000000;solid-opacity:1;fill:#000000;fill-opacity:1;fill-rule:evenodd;stroke:none;stroke-width:1px;stroke-linecap:round;stroke-linejoin:round;stroke-miterlimit:4;stroke-dasharray:none;stroke-dashoffset:0;stroke-opacity:1;color-rendering:auto;image-rendering:auto;shape-rendering:auto;text-rendering:auto;enable-background:accumulate"/>
      <path inkscape:connector-curvature="0" id="path5601" d="m 5.5078125,1046.3613 a 0.50005,0.50005 0 1 0 0,1 l 1.984375,0 a 0.50005,0.50005 0 1 0 0,-1 l -1.984375,0 z" style="color:#000000;font-style:normal;font-variant:normal;font-weight:normal;font-stretch:normal;font-size:medium;line-height:normal;font-family:sans-serif;text-indent:0;text-align:start;text-decoration:none;text-decoration-line:none;text-decoration-style:solid;text-decoration-color:#000000;letter-spacing:normal;word-spacing:normal;text-transform:none;direction:ltr;block-progression:tb;writing-mode:lr-tb;baseline-shift:baseline;text-anchor:start;white-space:normal;clip-rule:nonzero;display:inline;overflow:visible;visibility:visible;opacity:1;isolation:auto;mix-blend-mode:normal;color-interpolation:sRGB;color-interpolation-filters:linearRGB;solid-color:#000000;solid-opacity:1;fill:#000000;fill-opacity:1;fill-rule:evenodd;stroke:none;stroke-width:1px;stroke-linecap:round;stroke-linejoin:round;stroke-miterlimit:4;stroke-dasharray:none;stroke-dashoffset:0;stroke-opacity:1;color-rendering:auto;image-rendering:auto;shape-rendering:auto;text-rendering:auto;enable-background:accumulate"/>
    </g>
  </g>

	<metadata>
		<rdf:RDF xmlns:rdf="http://www.w3.org/1999/02/22-rdf-syntax-ns#" xmlns:rdfs="http://www.w3.org/2000/01/rdf-schema#" xmlns:dc="http://purl.org/dc/elements/1.1/">
			<rdf:Description about="https://iconscout.com/legal#licenses" dc:title="14 medicine travel tablet firstaid treatment" dc:description="14 medicine travel tablet firstaid treatment" dc:publisher="Iconscout" dc:date="2017-02-19" dc:format="image/svg+xml" dc:language="en">
				<dc:creator>
					<rdf:Bag>
						<rdf:li>Jemis Mali</rdf:li>
					</rdf:Bag>
				</dc:creator>
			</rdf:Description>
		</rdf:RDF>
    </metadata></svg>
